<?xml version="1.0" encoding="UTF-8"?><svg id="uuid-eccf1ef5-1a17-42c8-bf53-523e753228fb" xmlns="http://www.w3.org/2000/svg" width="862.87" height="300.48" viewBox="0 0 862.87 300.48"><path d="m0,158.34c4.57-2.96,9.05-6.08,13.74-8.85,33.7-19.88,67.45-39.69,101.18-59.54.75-.44,1.45-.96,2.49-1.65-2.11-1.26-4-2.43-5.93-3.53-14.36-8.25-28.73-16.5-43.11-24.73-3.53-2.02-4.68-4.54-3.21-7.18,1.45-2.61,4.37-3.19,7.83-1.22,16.99,9.68,33.98,19.37,50.87,29.24,2.51,1.47,4.29,1.5,6.7-.05,4.81-3.1,9.83-5.88,15.31-9.11-1.73-1.11-3.11-2.06-4.55-2.91C108.11,49.32,74.89,29.84,41.67,10.36c-.32-.19-.64-.39-.96-.58-3.88-2.26-4.94-4.64-3.32-7.42,1.6-2.76,4.32-3.14,8.13-.9,35.04,20.56,70.1,41.09,105.02,61.84,3.72,2.21,6.39,2.5,9.96-.02,4.46-3.14,9.35-5.65,14.58-8.75-1.6-.95-2.81-1.71-4.06-2.41-21.71-12.23-43.43-24.43-65.11-36.72-3.14-1.78-6.05-3.95-9.03-5.99-2.52-1.73-3.32-4.06-1.78-6.78,1.39-2.46,4.53-2.99,7.2-1.14,25.5,17.63,53.65,30.65,80.38,46.13.86.5,2.32.96,3.02.57,5.42-3,10.72-6.22,16.54-9.65-7.01-4.16-13.51-8.03-20.01-11.88-9.33-5.52-18.67-11.04-28-16.56-3.68-2.18-4.73-4.88-2.97-7.6,1.6-2.49,4.39-2.75,7.92-.67,17.49,10.34,34.97,20.69,52.45,31.04,5.4,3.2,5.5,7.83.09,11.22-5.57,3.49-11.29,6.75-17.33,10.33,6.05,4.13,11.78,7.98,17.44,11.93,5.59,3.91,5.4,8.41-.42,11.86-5.98,3.54-11.99,7.06-18.32,10.78,6.24,3.83,12.07,7.39,17.87,10.97,5.8,3.58,5.74,8.57-.13,12.03-6.01,3.54-12.03,7.06-18.73,10.98,6.84,3.92,13.3,7.5,19.61,11.32,1.52.92,3.48,2.64,3.53,4.06.07,1.71-1.22,4.26-2.7,5.14-28.33,16.97-56.78,33.74-85.19,50.58-22.3,13.22-44.57,26.49-66.85,39.76-.73.43-1.37,1-2.05,1.51h-3.75c-4.32-3.95-4.05-6.86.97-9.84,39.62-23.58,79.25-47.16,118.87-70.73,8.56-5.09,17.11-10.18,26.07-15.5-5.14-3.15-10-5.93-14.63-9.04-2.28-1.53-3.94-1.47-6.32-.07-49.73,29.25-99.51,58.4-149.29,87.57-7.2,4.22-14.39,8.48-21.62,12.65-2.6,1.5-5.09,1.29-6.9-1.34-1.6-2.33-.7-5.16,2.06-6.97.42-.27.86-.51,1.29-.76,44.83-26.26,89.67-52.52,134.5-78.79,11.14-6.52,22.27-13.06,33.85-19.86-5.46-3.43-10.59-6.48-15.5-9.83-2.09-1.43-3.54-1.25-5.63-.02-47.44,27.98-94.93,55.88-142.41,83.79C4.78,199.66,4.08,199.6,0,195.72,0,194.48,0,193.23,0,191.99c1.69-1.23,3.29-2.6,5.08-3.66,36.51-21.49,73.05-42.94,109.58-64.41,10.29-6.04,20.56-12.11,31.39-18.49-5.75-3.51-11.1-6.64-16.28-10.02-1.98-1.29-3.38-1.11-5.34.04-38.2,22.56-76.45,45.04-114.68,67.54C4.92,165.83,4.06,165.76,0,162.08c0-1.25,0-2.49,0-3.74Zm203.15-86.45c-4.23-2.76-8.45-4.98-12.01-7.98-4.58-3.87-8.44-3.52-13.05-.08-3.99,2.97-8.55,5.18-13.27,7.96,6.15,3.75,11.62,7.18,17.22,10.38.91.52,2.66.42,3.62-.11,5.65-3.12,11.17-6.46,17.49-10.17Zm-66.5,16.43c6.11,3.8,11.68,7.31,17.32,10.69.69.41,2,.52,2.67.14,5.78-3.28,11.47-6.7,17.62-10.33-6.14-3.74-11.72-7.2-17.39-10.5-.76-.44-2.2-.45-2.96-.02-5.63,3.15-11.17,6.46-17.26,10.03Zm65.52,17.55c-6.03-3.69-11.38-7.06-16.85-10.24-.86-.5-2.46-.56-3.31-.08-5.73,3.2-11.35,6.6-17.35,10.14,5.85,3.67,11.38,7.2,16.99,10.59.67.4,1.97.41,2.65.03,5.8-3.29,11.53-6.71,17.86-10.43Z" style="fill:#178a90; stroke-width:0px;"/><path d="m679.02,166.91c0-1.47,0-2.8,0-4.14,0-25.04-.49-50.08.15-75.1.56-21.77-17.82-25.29-31.2-20.15-1.39.53-2.73,1.24-3.99,2.03-4.21,2.6-6.65,5.64-6.57,11.37.4,27.4.18,54.8.18,82.2v3.86h-41.27V39.37h41.28v12.74c3.69-2.89,6.74-5.88,10.32-7.97,17.96-10.48,36.36-10.91,54.3-.41,12.99,7.6,18.12,20.27,18.26,34.76.27,29.02.08,58.04.06,87.06,0,.36-.14.72-.27,1.36h-41.24Z" style="fill:#15898f; stroke-width:0px;"/><path d="m862.87,107.63h-91.87c-2.79,14.85,7.75,31.85,21.26,34.59,11.25,2.29,21.07-2.34,26.12-12.6,1.68-3.42,2.78-7.12,4.21-10.84h38.62c-3.18,16.48-10.41,30.16-24.02,40.12-22.77,16.67-65.82,16.17-87.88-5.61-10.53-10.4-16.22-23.1-18.19-37.58-2.16-15.86-.88-31.33,6.31-45.88,9.73-19.7,26.26-30.05,47.56-33.26,15.14-2.28,29.96-.83,43.76,6.18,18.63,9.47,28.6,25.34,32.17,45.45,1.1,6.19,1.29,12.54,1.96,19.41Zm-41.6-20.91c-1.79-14.05-13.2-24.7-25.2-23.92-12.92.84-23.4,11.41-23.62,23.92h48.82Z" style="fill:#14888e; stroke-width:0px;"/><path d="m428.85,170.26c-14.22.33-27.8-2.39-39.95-10.11-17.7-11.25-25.7-28.2-27.64-48.41-1.16-11.99-.29-23.89,3.85-35.32,8.71-24.03,26.73-36.34,51.39-39.89,12.62-1.82,25.15-1.08,37.37,2.8,19.86,6.3,33.17,19.31,39.27,39.2,5.61,18.31,5.33,36.72-1.84,54.51-8.7,21.59-25.79,32.77-48.3,36.49-1.84.3-3.7.62-5.56.69-2.86.12-5.73.03-8.59.03Zm27.34-60.15c-.04-12.37-.35-21.67-4.23-30.44-4.3-9.71-11.7-14.91-22.43-15.11-10.66-.2-18.87,4.23-22.97,14.08-2.39,5.75-3.75,12.12-4.45,18.33-1.17,10.34-.33,20.67,4.11,30.32,4.45,9.67,12.23,14.55,22.86,14.49,10.46-.06,18.48-4.74,22.41-14.46,2.57-6.36,3.67-13.3,4.7-17.22Z" style="fill:#13888e; stroke-width:0px;"/><path d="m581.4,67.1h-18.76c-.08,1.59-.19,2.9-.19,4.22-.01,18.06-.01,36.12,0,54.19,0,9.59,3.6,13.16,13.35,13.27,1.74.02,3.48,0,5.46,0v28.48c-12.96-.59-25.97,1.41-38.73-1.69-13.31-3.23-20.9-13.73-20.96-28.59-.09-21.8-.02-43.6-.02-65.4,0-1.35,0-2.7,0-4.34h-19.1v-28.06h19.01V14.14h40.92v24.78h19.02v28.18Z" style="fill:#14888e; stroke-width:0px;"/><path d="m289.83,209.01v-25.13c3.48,0,6.71.03,9.93,0,7.15-.08,9.71-2.63,9.71-9.71,0-43.48,0-86.97,0-130.45v-4.38h41.16c.06,1.26.16,2.57.16,3.88,0,44.11.01,88.21,0,132.32,0,19.76-9.85,31.31-29.8,33.3-10.24,1.03-20.67.18-31.19.18Z" style="fill:#13888e; stroke-width:0px;"/><path d="m350.62,30.19h-40.95V1.65h40.95v28.54Z" style="fill:#15898f; stroke-width:0px;"/><path d="m564.17,230.73c-2.17-2.05-5.21-3.07-9.11-3.07-2.79,0-5.24.59-7.35,1.77-2.11,1.18-3.86,2.73-5.25,4.65-1.4,1.92-2.45,4.11-3.16,6.56-.71,2.45-1.07,4.94-1.07,7.49s.36,5.04,1.07,7.49c.71,2.45,1.77,4.64,3.16,6.56,1.39,1.92,3.15,3.47,5.25,4.65,2.11,1.18,4.56,1.77,7.35,1.77,1.8,0,3.5-.34,5.12-1.02,1.61-.68,3.04-1.63,4.28-2.84,1.24-1.21,2.26-2.65,3.07-4.32.8-1.67,1.3-3.5,1.49-5.49h5.86c-.81,5.83-2.95,10.37-6.42,13.62-3.47,3.25-7.94,4.88-13.39,4.88-3.66,0-6.9-.67-9.72-2-2.82-1.33-5.19-3.15-7.11-5.44-1.92-2.29-3.38-4.98-4.37-8.04-.99-3.07-1.49-6.34-1.49-9.81s.5-6.74,1.49-9.81c.99-3.07,2.45-5.75,4.37-8.04,1.92-2.29,4.29-4.12,7.11-5.49,2.82-1.36,6.06-2.05,9.72-2.05,5.15,0,9.5,1.36,13.07,4.09,3.56,2.73,5.69,6.85,6.37,12.37h-5.86c-.81-3.6-2.29-6.42-4.46-8.46Z" style="fill:#13888e; stroke-width:0px;"/><path d="m613.04,224.78c2.82,1.36,5.19,3.19,7.11,5.49,1.92,2.29,3.38,4.98,4.37,8.04.99,3.07,1.49,6.34,1.49,9.81s-.5,6.74-1.49,9.81c-.99,3.07-2.45,5.75-4.37,8.04-1.92,2.29-4.29,4.11-7.11,5.44-2.82,1.33-6.06,2-9.72,2s-6.9-.67-9.72-2c-2.82-1.33-5.19-3.15-7.11-5.44-1.92-2.29-3.38-4.98-4.37-8.04-.99-3.07-1.49-6.34-1.49-9.81s.5-6.74,1.49-9.81c.99-3.07,2.45-5.75,4.37-8.04,1.92-2.29,4.29-4.12,7.11-5.49,2.82-1.36,6.06-2.05,9.72-2.05s6.9.68,9.72,2.05Zm-17.07,4.65c-2.11,1.18-3.86,2.73-5.25,4.65-1.4,1.92-2.45,4.11-3.16,6.56-.71,2.45-1.07,4.94-1.07,7.49s.36,5.04,1.07,7.49c.71,2.45,1.77,4.64,3.16,6.56,1.39,1.92,3.15,3.47,5.25,4.65,2.11,1.18,4.56,1.77,7.35,1.77s5.24-.59,7.35-1.77c2.11-1.18,3.86-2.73,5.25-4.65,1.4-1.92,2.45-4.11,3.16-6.56.71-2.45,1.07-4.94,1.07-7.49s-.36-5.04-1.07-7.49c-.71-2.45-1.77-4.63-3.16-6.56-1.39-1.92-3.15-3.47-5.25-4.65-2.11-1.18-4.56-1.77-7.35-1.77s-5.24.59-7.35,1.77Z" style="fill:#13888e; stroke-width:0px;"/><path d="m640.52,224.12v8.28h.19c1.12-2.91,3.1-5.25,5.95-7.02,2.85-1.77,5.98-2.65,9.39-2.65s6.15.43,8.42,1.3c2.26.87,4.08,2.09,5.44,3.67,1.36,1.58,2.32,3.52,2.88,5.81.56,2.29.84,4.87.84,7.72v30.88h-5.86v-29.95c0-2.05-.19-3.95-.56-5.72s-1.02-3.3-1.95-4.6c-.93-1.3-2.19-2.33-3.77-3.07-1.58-.74-3.55-1.12-5.91-1.12s-4.45.42-6.28,1.26c-1.83.84-3.38,1.99-4.65,3.44-1.27,1.46-2.26,3.19-2.98,5.21-.71,2.02-1.1,4.2-1.16,6.56v27.99h-5.86v-47.99h5.86Z" style="fill:#13888e; stroke-width:0px;"/><path d="m690.46,224.12v8.28h.19c1.12-2.91,3.1-5.25,5.95-7.02,2.85-1.77,5.98-2.65,9.39-2.65s6.15.43,8.42,1.3c2.26.87,4.08,2.09,5.44,3.67,1.36,1.58,2.32,3.52,2.88,5.81.56,2.29.84,4.87.84,7.72v30.88h-5.86v-29.95c0-2.05-.19-3.95-.56-5.72s-1.02-3.3-1.95-4.6c-.93-1.3-2.19-2.33-3.77-3.07-1.58-.74-3.55-1.12-5.91-1.12s-4.45.42-6.28,1.26c-1.83.84-3.38,1.99-4.65,3.44-1.27,1.46-2.26,3.19-2.98,5.21-.71,2.02-1.1,4.2-1.16,6.56v27.99h-5.86v-47.99h5.86Z" style="fill:#13888e; stroke-width:0px;"/><path d="m738.96,256.26c.59,2.26,1.54,4.29,2.84,6.09,1.3,1.8,2.94,3.29,4.93,4.46,1.98,1.18,4.37,1.77,7.16,1.77,4.28,0,7.63-1.12,10.04-3.35s4.09-5.21,5.02-8.93h5.86c-1.24,5.46-3.52,9.67-6.83,12.65-3.32,2.98-8.01,4.46-14.09,4.46-3.78,0-7.05-.67-9.81-2-2.76-1.33-5.01-3.16-6.74-5.49-1.74-2.32-3.02-5.02-3.86-8.09-.84-3.07-1.26-6.31-1.26-9.72,0-3.16.42-6.26,1.26-9.3.84-3.04,2.12-5.75,3.86-8.14,1.73-2.39,3.98-4.31,6.74-5.77,2.76-1.46,6.03-2.19,9.81-2.19s7.13.78,9.86,2.32c2.73,1.55,4.94,3.58,6.65,6.09,1.7,2.51,2.93,5.39,3.67,8.65s1.05,6.56.93,9.9h-36.92c0,2.11.29,4.29.88,6.56Zm29.02-17.9c-.71-2.05-1.72-3.86-3.02-5.44-1.3-1.58-2.88-2.85-4.74-3.81-1.86-.96-3.97-1.44-6.32-1.44s-4.56.48-6.42,1.44c-1.86.96-3.44,2.23-4.74,3.81-1.3,1.58-2.34,3.41-3.12,5.49-.78,2.08-1.29,4.2-1.53,6.37h31.06c-.06-2.23-.45-4.37-1.16-6.42Z" style="fill:#13888e; stroke-width:0px;"/><path d="m812.29,230.73c-2.17-2.05-5.21-3.07-9.11-3.07-2.79,0-5.24.59-7.35,1.77-2.11,1.18-3.86,2.73-5.25,4.65-1.4,1.92-2.45,4.11-3.16,6.56-.71,2.45-1.07,4.94-1.07,7.49s.36,5.04,1.07,7.49c.71,2.45,1.77,4.64,3.16,6.56,1.39,1.92,3.15,3.47,5.25,4.65,2.11,1.18,4.56,1.77,7.35,1.77,1.8,0,3.5-.34,5.12-1.02,1.61-.68,3.04-1.63,4.28-2.84,1.24-1.21,2.26-2.65,3.07-4.32.8-1.67,1.3-3.5,1.49-5.49h5.86c-.81,5.83-2.95,10.37-6.42,13.62-3.47,3.25-7.94,4.88-13.39,4.88-3.66,0-6.9-.67-9.72-2-2.82-1.33-5.19-3.15-7.11-5.44-1.92-2.29-3.38-4.98-4.37-8.04-.99-3.07-1.49-6.34-1.49-9.81s.5-6.74,1.49-9.81c.99-3.07,2.45-5.75,4.37-8.04,1.92-2.29,4.29-4.12,7.11-5.49,2.82-1.36,6.06-2.05,9.72-2.05,5.15,0,9.5,1.36,13.07,4.09,3.56,2.73,5.69,6.85,6.37,12.37h-5.86c-.81-3.6-2.29-6.42-4.46-8.46Z" style="fill:#13888e; stroke-width:0px;"/><path d="m850.23,224.12v4.93h-9.76v32.36c0,1.92.26,3.43.79,4.51.53,1.09,1.84,1.69,3.95,1.81,1.67,0,3.35-.09,5.02-.28v4.93c-.87,0-1.74.03-2.6.09-.87.06-1.74.09-2.6.09-3.91,0-6.63-.76-8.18-2.28-1.55-1.52-2.29-4.32-2.23-8.42v-32.83h-8.37v-4.93h8.37v-14.42h5.86v14.42h9.76Z" style="fill:#13888e; stroke-width:0px;"/></svg>