<?xml version="1.0" encoding="UTF-8"?><svg id="uuid-01085502-032f-44ca-8e79-5df9f50cf3b4" xmlns="http://www.w3.org/2000/svg" width="7.32in" height="1.6in" viewBox="0 0 526.83 115.19"><rect x="62.81" y="72.9" width="456" height="4" style="fill:#ed1c2e; stroke:#ed1c2e; stroke-width:.5px;"/><path d="m125.56,93.58h2.75l-3.65,12.96h-2.58l-1.56-7.58-.46-2.5-.46,2.5-1.56,7.58h-2.51l-3.67-12.96h2.87l1.71,7.42.37,2.07.38-2.02,1.46-7.46h2.86l1.54,7.42.4,2.07.4-1.99,1.73-7.5Z" style="fill:#231f20; stroke-width:0px;"/><path d="m151.55,93.58h2.75l-3.65,12.96h-2.58l-1.56-7.58-.46-2.5-.46,2.5-1.56,7.58h-2.51l-3.67-12.96h2.87l1.71,7.42.37,2.07.38-2.02,1.46-7.46h2.86l1.54,7.42.4,2.07.4-1.99,1.73-7.5Z" style="fill:#231f20; stroke-width:0px;"/><path d="m177.54,93.58h2.75l-3.65,12.96h-2.58l-1.56-7.58-.46-2.5-.46,2.5-1.56,7.58h-2.51l-3.67-12.96h2.87l1.71,7.42.37,2.07.38-2.02,1.46-7.46h2.86l1.54,7.42.4,2.07.4-1.99,1.73-7.5Z" style="fill:#231f20; stroke-width:0px;"/><path d="m189.7,103.92h2.66v2.62h-2.66v-2.62Z" style="fill:#231f20; stroke-width:0px;"/><path d="m208.64,104.67c.64,0,1.16-.07,1.56-.21.76-.27,1.13-.77,1.13-1.5,0-.43-.19-.76-.56-.99-.38-.23-.96-.43-1.77-.61l-1.37-.31c-1.35-.3-2.28-.64-2.79-.99-.87-.6-1.31-1.53-1.31-2.8,0-1.16.42-2.12,1.27-2.89s2.08-1.15,3.72-1.15c1.37,0,2.53.36,3.49,1.09s1.47,1.77,1.52,3.15h-2.6c-.05-.78-.39-1.33-1.02-1.66-.42-.22-.95-.33-1.57-.33-.7,0-1.25.14-1.67.42s-.62.67-.62,1.18c0,.46.21.81.62,1.04.26.15.83.33,1.69.54l2.23.54c.98.23,1.72.55,2.21.94.77.61,1.16,1.49,1.16,2.65s-.45,2.17-1.36,2.95-2.18,1.17-3.84,1.17-3.01-.39-3.98-1.16-1.45-1.83-1.45-3.18h2.58c.08.59.24,1.03.48,1.33.44.53,1.19.8,2.26.8Z" style="fill:#231f20; stroke-width:0px;"/><path d="m234.36,93.58v2.29h-3.88v10.66h-2.72v-10.66h-3.89v-2.29h10.49Z" style="fill:#231f20; stroke-width:0px;"/><path d="m253.96,100.88h-6.29v3.33h7.17v2.33h-9.82v-12.96h9.5v2.29h-6.86v2.75h6.29v2.25Z" style="fill:#231f20; stroke-width:0px;"/><path d="m271.45,101.88h-2.75v4.66h-2.69v-12.96h5.64c1.3,0,2.34.33,3.11,1s1.16,1.7,1.16,3.1c0,1.53-.39,2.61-1.16,3.24s-1.88.95-3.31.95Zm1.27-2.7c.35-.31.53-.8.53-1.48s-.18-1.15-.53-1.44-.85-.43-1.49-.43h-2.52v3.81h2.52c.64,0,1.14-.16,1.49-.47Z" style="fill:#231f20; stroke-width:0px;"/><path d="m296.37,93.58v2.29h-3.88v10.66h-2.72v-10.66h-3.89v-2.29h10.49Z" style="fill:#231f20; stroke-width:0px;"/><path d="m312.36,106.9c-1.85,0-3.27-.5-4.25-1.51-1.31-1.24-1.97-3.02-1.97-5.34s.66-4.15,1.97-5.34c.98-1.01,2.39-1.51,4.25-1.51s3.27.5,4.25,1.51c1.31,1.19,1.96,2.97,1.96,5.34s-.65,4.11-1.96,5.34c-.98,1.01-2.39,1.51-4.25,1.51Zm2.56-3.48c.63-.79.94-1.92.94-3.38s-.31-2.58-.94-3.37-1.48-1.19-2.55-1.19-1.93.4-2.57,1.19-.96,1.92-.96,3.38.32,2.58.96,3.38,1.49,1.19,2.57,1.19,1.92-.4,2.56-1.19Z" style="fill:#231f20; stroke-width:0px;"/><path d="m335.37,106.9c-1.85,0-3.27-.5-4.25-1.51-1.31-1.24-1.97-3.02-1.97-5.34s.66-4.15,1.97-5.34c.98-1.01,2.39-1.51,4.25-1.51s3.27.5,4.25,1.51c1.31,1.19,1.96,2.97,1.96,5.34s-.65,4.11-1.96,5.34c-.98,1.01-2.39,1.51-4.25,1.51Zm2.56-3.48c.63-.79.94-1.92.94-3.38s-.31-2.58-.94-3.37-1.48-1.19-2.55-1.19-1.93.4-2.57,1.19-.96,1.92-.96,3.38.32,2.58.96,3.38,1.49,1.19,2.57,1.19,1.92-.4,2.56-1.19Z" style="fill:#231f20; stroke-width:0px;"/><path d="m352.64,93.58h2.71v10.63h6.42v2.33h-9.12v-12.96Z" style="fill:#231f20; stroke-width:0px;"/><path d="m377.33,104.67c.64,0,1.16-.07,1.56-.21.76-.27,1.13-.77,1.13-1.5,0-.43-.19-.76-.56-.99-.38-.23-.96-.43-1.77-.61l-1.37-.31c-1.35-.3-2.28-.64-2.79-.99-.87-.6-1.31-1.53-1.31-2.8,0-1.16.42-2.12,1.27-2.89s2.08-1.15,3.72-1.15c1.37,0,2.53.36,3.49,1.09s1.47,1.77,1.52,3.15h-2.6c-.05-.78-.39-1.33-1.02-1.66-.42-.22-.95-.33-1.57-.33-.7,0-1.25.14-1.67.42s-.62.67-.62,1.18c0,.46.21.81.62,1.04.26.15.83.33,1.69.54l2.23.54c.98.23,1.72.55,2.21.94.77.61,1.16,1.49,1.16,2.65s-.45,2.17-1.36,2.95-2.18,1.17-3.84,1.17-3.01-.39-3.98-1.16-1.45-1.83-1.45-3.18h2.58c.08.59.24,1.03.48,1.33.44.53,1.19.8,2.26.8Z" style="fill:#231f20; stroke-width:0px;"/><path d="m393.39,103.92h2.66v2.62h-2.66v-2.62Z" style="fill:#231f20; stroke-width:0px;"/><path d="m416.78,105.57c-.97.88-2.2,1.33-3.71,1.33-1.86,0-3.33-.6-4.39-1.79-1.07-1.2-1.6-2.85-1.6-4.94,0-2.26.61-4,1.82-5.23,1.05-1.07,2.4-1.6,4.03-1.6,2.18,0,3.77.71,4.78,2.14.56.8.86,1.61.9,2.42h-2.71c-.18-.62-.4-1.09-.68-1.41-.49-.56-1.22-.84-2.19-.84s-1.76.4-2.33,1.19-.85,1.92-.85,3.37.3,2.54.9,3.27,1.36,1.09,2.29,1.09,1.67-.31,2.17-.93c.28-.33.5-.83.69-1.5h2.68c-.23,1.41-.83,2.56-1.79,3.45Z" style="fill:#231f20; stroke-width:0px;"/><path d="m435.37,106.9c-1.85,0-3.27-.5-4.25-1.51-1.31-1.24-1.97-3.02-1.97-5.34s.66-4.15,1.97-5.34c.98-1.01,2.39-1.51,4.25-1.51s3.27.5,4.25,1.51c1.31,1.19,1.96,2.97,1.96,5.34s-.65,4.11-1.96,5.34c-.98,1.01-2.39,1.51-4.25,1.51Zm2.56-3.48c.63-.79.94-1.92.94-3.38s-.31-2.58-.94-3.37-1.48-1.19-2.55-1.19-1.93.4-2.57,1.19-.96,1.92-.96,3.38.32,2.58.96,3.38,1.49,1.19,2.57,1.19,1.92-.4,2.56-1.19Z" style="fill:#231f20; stroke-width:0px;"/><path d="m455.12,106.54h-2.52v-12.96h3.94l2.36,10.19,2.34-10.19h3.89v12.96h-2.52v-8.76c0-.25,0-.6,0-1.06s0-.8,0-1.05l-2.45,10.87h-2.63l-2.43-10.87c0,.25,0,.6,0,1.05s0,.81,0,1.06v8.76Z" style="fill:#231f20; stroke-width:0px;"/><path d="m391.23,21.05c-.84.84-1.86,1.27-3.05,1.27s-2.21-.42-3.04-1.27c-.83-.84-1.25-1.86-1.25-3.05s.42-2.2,1.26-3.04,1.85-1.25,3.03-1.25,2.21.42,3.05,1.25,1.26,1.85,1.26,3.04-.42,2.21-1.26,3.05Zm-5.66-5.67c-.72.72-1.08,1.6-1.08,2.62s.36,1.91,1.07,2.64c.72.73,1.59,1.09,2.62,1.09s1.9-.36,2.62-1.09,1.08-1.61,1.08-2.64-.36-1.9-1.08-2.62c-.72-.73-1.6-1.09-2.62-1.09s-1.89.36-2.61,1.09Zm2.53.24c.59,0,1.02.06,1.29.17.49.2.73.6.73,1.2,0,.42-.15.73-.46.93-.16.11-.39.18-.68.23.37.06.64.21.81.46.17.25.26.49.26.73v.35c0,.11,0,.23.01.35,0,.12.02.21.04.25l.03.06h-.78v-.05s-.02-.03-.02-.05l-.02-.15v-.37c0-.54-.15-.91-.45-1.08-.18-.1-.48-.15-.93-.15h-.66v1.86h-.83v-4.72h1.65Zm.9.74c-.21-.12-.55-.18-1.01-.18h-.71v1.71h.75c.35,0,.62-.04.79-.11.33-.13.49-.38.49-.74,0-.34-.1-.57-.31-.69Z" style="fill:#231f20; stroke-width:0px;"/><path d="m82.23,45.6c2.13,0,3.86-.23,5.19-.7,2.52-.9,3.78-2.57,3.78-5.01,0-1.43-.63-2.53-1.88-3.31-1.25-.76-3.21-1.44-5.89-2.02l-4.57-1.03c-4.49-1.02-7.6-2.12-9.32-3.31-2.91-1.99-4.37-5.11-4.37-9.35,0-3.87,1.41-7.08,4.22-9.64,2.81-2.56,6.94-3.84,12.39-3.84,4.55,0,8.43,1.21,11.65,3.62,3.21,2.41,4.9,5.91,5.05,10.5h-8.67c-.16-2.6-1.29-4.44-3.4-5.54-1.41-.72-3.15-1.08-5.24-1.08-2.32,0-4.18.47-5.57,1.41-1.39.94-2.08,2.25-2.08,3.93,0,1.54.68,2.7,2.05,3.46.88.51,2.75,1.1,5.62,1.79l7.44,1.79c3.26.78,5.72,1.83,7.38,3.13,2.58,2.03,3.87,4.97,3.87,8.82s-1.51,7.22-4.53,9.83-7.28,3.91-12.79,3.91-10.05-1.28-13.27-3.85c-3.22-2.57-4.83-6.1-4.83-10.59h8.61c.27,1.97.81,3.45,1.61,4.42,1.46,1.78,3.97,2.67,7.53,2.67Z" style="fill:#ed1c2e; stroke:#ed1c2e; stroke-width:.5px;"/><path d="m137.95,8.66v7.65h-12.92v35.54h-9.08V16.3h-12.98v-7.65h34.98Z" style="fill:#ed1c2e; stroke:#ed1c2e; stroke-width:.5px;"/><path d="m173.28,32.97h-20.98v11.1h23.91v7.76h-32.72V8.66h31.67v7.65h-22.85v9.17h20.98v7.5Z" style="fill:#ed1c2e; stroke:#ed1c2e; stroke-width:.5px;"/><path d="m201.59,36.31h-9.17v15.53h-8.96V8.66h18.81c4.34,0,7.79,1.11,10.37,3.34s3.87,5.67,3.87,10.34c0,5.1-1.29,8.7-3.87,10.81s-6.26,3.16-11.04,3.16Zm4.22-8.99c1.17-1.04,1.76-2.68,1.76-4.92s-.59-3.85-1.77-4.8c-1.18-.96-2.84-1.44-4.97-1.44h-8.41v12.71h8.41c2.13,0,3.79-.52,4.98-1.55Z" style="fill:#ed1c2e; stroke:#ed1c2e; stroke-width:.5px;"/><path d="m270.26,8.66v7.65h-12.92v35.54h-9.08V16.3h-12.98v-7.65h34.98Z" style="fill:#231f20; stroke:#fff; stroke-width:.5px;"/><path d="m297.06,23.95c2.7,3.38,4.04,7.37,4.04,11.98s-1.35,8.7-4.04,12.03c-2.7,3.33-6.79,5-12.28,5s-9.58-1.67-12.28-5c-2.7-3.33-4.04-7.34-4.04-12.03s1.35-8.6,4.04-11.98c2.7-3.38,6.79-5.07,12.28-5.07s9.58,1.69,12.28,5.07Zm-12.3,1.99c-2.44,0-4.32.86-5.64,2.59s-1.98,4.19-1.98,7.4.66,5.67,1.98,7.41c1.32,1.74,3.2,2.61,5.64,2.61s4.32-.87,5.62-2.61c1.31-1.74,1.96-4.21,1.96-7.41s-.65-5.67-1.96-7.4c-1.31-1.73-3.18-2.59-5.62-2.59Z" style="fill:#231f20; stroke:#fff; stroke-width:.5px;"/><path d="m333.71,23.95c2.7,3.38,4.04,7.37,4.04,11.98s-1.35,8.7-4.04,12.03c-2.7,3.33-6.79,5-12.28,5s-9.58-1.67-12.28-5c-2.7-3.33-4.04-7.34-4.04-12.03s1.35-8.6,4.04-11.98c2.7-3.38,6.79-5.07,12.28-5.07s9.58,1.69,12.28,5.07Zm-12.3,1.99c-2.44,0-4.32.86-5.64,2.59s-1.98,4.19-1.98,7.4.66,5.67,1.98,7.41c1.32,1.74,3.2,2.61,5.64,2.61s4.32-.87,5.62-2.61c1.31-1.74,1.96-4.21,1.96-7.41s-.65-5.67-1.96-7.4c-1.31-1.73-3.18-2.59-5.62-2.59Z" style="fill:#231f20; stroke:#fff; stroke-width:.5px;"/><path d="m343.91,8.66h8.35v43.18h-8.35V8.66Z" style="fill:#231f20; stroke:#fff; stroke-width:.5px;"/><path d="m382.41,21.37c2.5,1.6,3.94,4.36,4.31,8.26h-8.35c-.12-1.07-.42-1.92-.91-2.55-.92-1.13-2.48-1.7-4.69-1.7-1.82,0-3.11.28-3.88.85-.77.57-1.16,1.23-1.16,1.99,0,.96.41,1.65,1.23,2.08.82.45,3.72,1.22,8.7,2.31,3.32.78,5.81,1.96,7.47,3.54,1.64,1.6,2.46,3.6,2.46,6.01,0,3.16-1.18,5.75-3.53,7.75-2.35,2-5.99,3-10.91,3s-8.73-1.06-11.12-3.18c-2.39-2.12-3.59-4.82-3.59-8.1h8.47c.18,1.48.56,2.54,1.14,3.16,1.04,1.11,2.95,1.67,5.74,1.67,1.64,0,2.94-.24,3.91-.73.97-.49,1.45-1.22,1.45-2.2s-.39-1.65-1.17-2.14c-.78-.49-3.68-1.33-8.7-2.52-3.61-.9-6.16-2.02-7.65-3.37-1.48-1.33-2.23-3.24-2.23-5.74,0-2.95,1.16-5.48,3.47-7.6,2.31-2.12,5.57-3.18,9.77-3.18s7.24.79,9.76,2.37Z" style="fill:#231f20; stroke:#fff; stroke-width:.5px;"/><path d="m401.83,54.83c-.35,1.45-1.01,2.7-1.96,3.75-1.04,1.13-2.25,1.99-3.65,2.56-1.4.58-2.36.86-2.89.86v-3.22c1.68-.47,2.92-1.25,3.71-2.34.79-1.09,1.25-2.63,1.36-4.6h-5.07v-8.73h9.02v7.56c0,1.33-.18,2.71-.53,4.16Z" style="fill:#231f20; stroke:#fff; stroke-width:.5px;"/><path d="m427.08,8.66h8.96v43.18h-8.96V8.66Z" style="fill:#231f20; stroke:#fff; stroke-width:.5px;"/><path d="m458.81,26.09c-2.83,0-4.78,1.2-5.83,3.6-.55,1.27-.82,2.89-.82,4.86v17.29h-8.32v-31.88h8.06v4.66c1.07-1.64,2.09-2.82,3.05-3.54,1.72-1.29,3.9-1.93,6.53-1.93,3.3,0,6,.86,8.1,2.59,2.1,1.73,3.15,4.6,3.15,8.6v21.5h-8.55v-19.42c0-1.68-.22-2.97-.67-3.87-.82-1.64-2.38-2.46-4.69-2.46Z" style="fill:#231f20; stroke:#fff; stroke-width:.5px;"/><path d="m508.06,31.36h-8.55c-.16-1.19-.56-2.27-1.2-3.22-.94-1.29-2.39-1.93-4.37-1.93-2.81,0-4.74,1.4-5.77,4.19-.55,1.48-.82,3.46-.82,5.92s.27,4.23.82,5.65c1,2.66,2.87,3.98,5.62,3.98,1.95,0,3.34-.53,4.16-1.58s1.32-2.42,1.49-4.1h8.53c-.2,2.54-1.11,4.94-2.75,7.21-2.62,3.65-6.49,5.48-11.63,5.48s-8.92-1.52-11.34-4.57c-2.42-3.05-3.63-7-3.63-11.87,0-5.49,1.34-9.76,4.01-12.8,2.68-3.05,6.37-4.57,11.07-4.57,4,0,7.28.9,9.83,2.7,2.55,1.8,4.06,4.97,4.53,9.52Z" style="fill:#231f20; stroke:#fff; stroke-width:.5px;"/><path d="m513.66,43.11h8.88v8.73h-8.88v-8.73Z" style="fill:#231f20; stroke:#fff; stroke-width:.5px;"/><rect x=".05" y="3.29" width="48.45" height="106.05" style="stroke-width:0px;"/><path d="m21.25,36.81c-1.28.55-2.69.86-4.17.86-5.82,0-10.53-4.72-10.53-10.53,0-.04.04-.02.04-.03.08.06.13.15.25.15-.03.09.03.17.05.25.07.08.19.11.25.2.08.14.04.3.05.45.03.08.07.17.1.25.05.05.1.1.15.15v.1c.1.08.18.17.15.35.1.11.23.21.3.35v.15c.05.1.1.2.15.3.1-.02.19.08.3.05.02-.03.05-.06.1-.05,0-.09.04-.14.1-.2v-.25h-.1c-.16-.05-.23-.21-.3-.35,0-.12.03-.23.05-.35.09-.1.19-.22.35-.2-.01.11.06.05.1.05-.02.12.09.22.05.35-.11.08-.14.24-.05.35.03.09.14-.1.15.05.11.03.17.13.25.2-.01.06-.01.11.05.15.14,0,.25.13.3.25v.4c.14,0,.2.12.3.2.23.02.46.08.69.05.03.03.07.07.1.1h.2c.13.12.33.06.45.2.14,0,.27-.02.4.05.22,0,.43.01.64-.05.05-.05.1-.1.15-.15.22-.03.42-.13.64-.1.05.02.1.03.15.05v.15s.07.07.1.1c.13,0,.25.06.35.15.12.04.22-.09.35-.05.05.08.13.06.2.05.03.02.06.05.05.1.03.02.07.03.1.05.07.2.17.39.25.59-.07.16-.07.33-.1.49.13.06.06.24.2.3.03.23.12.45.1.69.11.14.24.25.35.4.23.03.46.07.69.05-.02.13.15-.02.15.1.28,0,.56-.03.84.05.16-.1.33-.03.49-.05.07.07.17.06.25.1,0,.13.08.26.05.39.02.15.2.17.25.3h.1c.12.07.12.23.25.3-.02.16.05.28.15.4.22.05.42.16.64.2.09.08.14.19.2.3.13,0,.09.17.2.2.3.15.62.21.94.3,0,.07-.03.15.05.2h.15c.06.08.16.11.25.15.11.04.25-.07.35.05.11-.04.15.11.25.1v.15s0-.06-.05-.05" style="fill:#ed1c2e; stroke:#ed1c2e; stroke-width:.5px;"/><path d="m11.17,18.42c1.2-1.28,3.72-1.82,5.92-1.82.05,0,.07-.03.1-.02.04.04.1.02.15.02.08-.04.16-.02.25-.02.08.04.17.06.25.1.05-.02.1.02.15.02.05.02.04.09.1.1.04.19,0,.38.05.57.05.02.07.07.1.1.07,0,.12.04.17.07h.07c-.02-.06.03-.11.02-.17,0,0-.02-.02-.02-.03,0-.02.02-.03.02-.05.08-.05.17-.02.25-.02.03.02.04.06.05.1.03.06-.02.11-.02.17.03.04.08.04.12.05,0,.02.02.03.02.05.06-.02.09.06.15.05h.12s.06,0,.05-.05v-.1s.03-.03.05-.05c.07,0,.14-.01.2.02-.01.05.03.11-.02.15h-.05s-.03.03-.05.05c0,.08.02.17-.02.25-.01.13.04.26.02.39-.05,0-.02.08-.07.07-.09.05-.18.01-.27.03-.02,0-.03-.02-.05-.03v-.07c-.08-.05-.16-.08-.25-.1h-.2c-.06,0-.04.06-.07.07,0,.12-.04.25-.03.37-.03.05-.02.11-.07.15-.08-.02-.09.09-.15.1h-.05s0,.07-.05.1c.02.12-.04.23.02.35,0,.24-.04.48-.05.72.05.03.07.08.1.12,0,.05,0,.1.02.15.03.03.08.07.07.12.14.04.26.1.4.15,0,.09.03.18.02.27-.11.05-.23.01-.35.02-.05.04-.04.1-.07.15-.02.07.04.13.02.2.05.03.11.05.15.1.1.01.18.06.27.1h.3s.06-.06.1-.07c.09.02.13-.1.22-.07,0-.02,0-.06.05-.05v-.05c.05-.03.11-.04.15-.1.04-.02.08-.04.12-.05.04-.06.11-.07.15-.12v-.07s.04-.08.05-.12c.02-.02.03-.03.05-.05.07.01.13-.05.2-.03.03-.1.07-.19.07-.3.04-.05.07-.11.07-.17.02,0,.03-.02.05-.02.04-.09.02-.18.02-.27-.06-.08-.06-.18-.1-.27-.02-.02-.03-.03-.05-.05,0-.12-.05-.23-.02-.35.04-.06.11-.06.15-.12.09.01.16-.06.25-.07h.12s.09.06.12.1c.04.08.02.16.02.25,0,.02,0,.06-.05.05v.05s.09.05.12.1c.1.04.2.02.3.02.05-.03.09-.08.15-.1.03-.09.03-.18.02-.27-.05-.03,0-.09-.05-.12h-.05c-.01-.05-.07-.06-.1-.1,0-.06,0-.12.02-.17.2-.06.41,0,.62-.02.07-.05.16-.05.22-.1v-.2s.06-.02.07-.05c.06,0,.11.04.17.02.03-.01.06-.02.07-.05-.02-.01.03-.06-.03-.05-.03-.05.03-.1.03-.15.09-.03.18-.06.27-.05,0,.05.03.02.05.03.05.02,0,.08.05.1v.17s-.04,0-.05.02c.02.07-.07.11-.05.17-.04.03-.02.1-.07.12,0,.09-.04.18-.02.27-.02,0-.03,0-.02-.02,0,.04.02.09-.02.12h-.15c-.05.04-.04.12-.07.17-.02.21.03.43-.02.64-.09-.02-.16.03-.25.02-.02.08-.06.16-.05.25-.07.05-.16.02-.22.07-.03,0-.06,0-.07-.03-.05,0-.1.01-.15.03-.03.01-.03.06-.07.05-.04.06-.09.11-.12.17-.05.06-.12.08-.17.12h-.07s-.04.08-.02.12c-.06,0-.07.08-.12.07-.05,0-.1-.01-.15.02v.05s-.03.03-.05.05c-.03.14-.03.28-.02.42-.09.06-.14.14-.2.22-.03.13-.01.27-.07.4.04.02.02.05.02.07-.08.07-.09.18-.17.25v.12c-.02.06-.05.12-.07.17,0,.11-.04.23-.02.35.03.02.03.05.02.07.02,0,.04,0,.05.02.02.08.04.16.05.25.03,0,.06,0,.07.02.03.1.03.2.07.3.04.17,0,.35.05.52,0,.03.02,0,.02,0,.01.14-.02.28-.02.42.04.06.09.12.1.2.02.04.07.04.1.07,0,.05.04.1.02.15.02,0,.03.02.05.02-.02.08.03.15.02.22.06.09.11.19.2.27h.05s.07.07.1.1h.05c.02.07.08.1.12.15.13.05.27,0,.4.05.03.03.07.07.1.1.07.03.13.06.17.12.08.05.19.06.27.1.02,0,.06,0,.05.05.03.02.06.03.1.02.03.03.06.06.1.07.1,0,.2.02.3.05.11,0,.23.02.35-.02.08-.05.1-.14.17-.2h.07c.09-.07.22-.08.3-.17.03,0,.07-.02.1-.02.13-.12.23-.27.35-.4.03-.1.08-.2.12-.3-.03-.08.06-.14.05-.22.05-.07.11-.12.15-.2.09,0,.15-.07.22-.1.1,0,.2-.03.3-.05h.42s0,.06.05.05c.02,0,.02,0,.02-.02v.05h.05c0,.08.05.14.05.22.02.02.05.05.07.07v.27c.1.08.2.15.3.25,0,.13.02.26.05.4.03.04.06.08.07.12.16.09.27.22.4.35.04.06.06.13.1.2v.15c.07,0,.02.09.08.1,0,0-.03-.03-.06-.06.1.4.04.79,0,1.19.1.06,0,.19.1.25v.49c.04.06.09.06.15.05.06.21.05.43.05.64-.04.13-.09.26-.1.4.09.1.07.24.15.35.18.02.03.18.19.23-.8,2.41-2.45,4.43-4.6,5.71-.08.05-.19-.06-.3-.04-.05-.02-.09-.08-.15-.07h-.22c-.05-.04-.1-.09-.17-.1-.03-.04-.04-.1-.05-.15-.06-.03-.06-.11-.1-.15-.16-.05-.29-.16-.44-.22-.1-.02-.19-.09-.3-.1.02-.05-.04-.09-.02-.15-.07-.06-.15-.1-.22-.15-.02-.03-.03-.07-.05-.1-.03-.09-.03-.18-.02-.27.06-.1.01-.2.02-.3-.04-.12-.02-.25-.07-.37-.07-.1-.16-.18-.2-.3-.02-.06-.03-.13-.02-.2.01-.07.03-.15.05-.22v-.67c-.03-.13-.06-.26-.05-.4.02-.14.06-.28.1-.42.04-.09.08-.18.1-.27,0-.08.01-.17.02-.25-.03-.11-.04-.23-.07-.35v-.2c.01-.05.02-.1.05-.15.04-.15,0-.3.05-.45-.02-.03-.03-.06-.02-.1-.06-.07-.11-.16-.15-.25-.03-.06-.04-.13-.05-.2,0-.18.1-.34.07-.52-.06-.05-.09-.13-.15-.17-.05,0-.05-.05-.1-.05-.07.01-.13-.02-.2-.02-.09-.03-.17-.09-.27-.1-.12,0-.25,0-.37-.02-.03-.01-.06-.02-.07-.05-.15-.03-.3-.03-.44-.05-.04-.01-.09,0-.12-.05-.02.04-.07.02-.1.05-.07.1-.27,0-.42-.03-.02-.02-.03-.03-.05-.05h-.25s-.07.03-.1.05c-.16-.02-.31.03-.47.03-.17-.04-.35-.03-.52-.05-.09.06-.18,0-.27.02-.07.06-.11.16-.17.22-.07.02-.15.05-.22.07-.2,0-.39-.07-.59-.05-.12.02-.22.08-.35.07,0,.04-.03.05-.05.07.01.12-.02.25-.02.37-.04.05-.07.1-.12.15-.05.03-.09.06-.12.1-.03.09-.06.18-.05.27-.07.07-.06.17-.12.25-.05.02-.1.03-.15.05h-.15c-.16-.05-.33-.1-.49-.15-.08,0-.16-.03-.25-.02-.1-.06-.21-.08-.3-.15-.03-.08-.1-.12-.15-.17-.08,0-.15-.05-.22-.05h-.25c0-.08-.06-.05-.1-.07-.04-.04-.08-.07-.1-.12-.16.01-.34-.04-.49.05-.06.07-.11.15-.2.2-.22,0-.43-.03-.64-.07h-.3c0-.08-.1-.08-.12-.15,0-.03-.02-.07-.02-.1-.02,0-.03-.02-.05-.02-.02-.05-.05-.08-.07-.12-.06-.03-.12-.06-.17-.1-.05-.01-.08-.06-.1-.1,0-.05-.01-.09-.05-.12.03-.04.06-.07.05-.12.05-.03.11-.05.15-.1.07-.01.12-.08.2-.07.01-.03.06-.03.05-.07.1-.03.2-.03.3-.02.05-.03.09-.08.15-.1.02-.06.08-.1.12-.15.15-.02.3.04.45-.02.1-.06.2-.14.3-.2h.25c.08.05.14.12.22.17.12.03.25.03.37.02.07-.04.15-.02.22-.02.04-.03.07-.06.12-.07,0-.05.04-.09.07-.12-.01-.06.01-.11.02-.17-.1-.1-.18-.21-.27-.32-.05-.09-.01-.2-.02-.3-.05-.02-.05-.1-.12-.1-.03-.05-.05-.11-.1-.15,0-.07-.01-.14.02-.2.05-.06.11-.12.17-.17,0-.08,0-.17.05-.25,0,.02,0,0-.02,0,0-.02.03-.06-.02-.05.02-.01.03-.03.02-.05h.05s.02-.03.02-.05c.04.02.06-.03.1-.02.02-.06.05-.11.1-.15-.02-.1.05-.18.05-.27-.04-.05-.09-.09-.12-.15-.06,0-.11-.06-.17-.05,0-.06-.04-.09-.07-.12v-.15c.02-.06.07-.11.1-.17.05-.03.11,0,.15-.05.04-.07.08-.14.1-.22v-.32c.06-.06.12-.12.2-.15h.05s.08-.08.07-.15c-.04-.06-.11-.07-.15-.12-.04.05-.04-.04-.07-.02v-.1s.08-.05.12-.07c.07,0,.13-.03.2-.02.02-.03.05-.04.07-.05.03-.04.03-.09.07-.12.02-.08-.02-.15-.02-.22-.05-.05-.1-.1-.15-.15-.14-.08-.3-.04-.45-.05-.12.07-.15-.09-.25-.1-.04-.06-.13-.07-.15-.15-.06.02-.08-.05-.12-.05-.13,0-.26-.04-.4-.02-.08.04-.17.04-.25.07-.1.01-.2-.02-.3-.02-.04-.05-.11-.05-.17-.07-.18.01-.36.04-.54.07-.02-.02-.03-.03-.05-.05v-.22c0-.05.08-.05.07-.1.05,0,.07-.07.12-.05.03-.03.07-.07.1-.1,0-.1.09-.15.1-.25,0-.12,0-.25-.02-.37-.02-.02-.03-.03-.05-.05.02-.06-.05-.08-.05-.12-.03,0-.06-.03-.07-.07-.13-.03-.26-.06-.4-.1-.17-.02-.33.04-.49.02-.08,0-.17.06-.27.05,0-.06-.05-.04-.07-.05-.06.04-.09-.05-.15-.02-.1.03-.2.06-.3.07-.02.02-.03.03-.05.05-.08-.02-.13.06-.2.05-.01.08-.06.15-.07.22-.03.06-.07.1-.12.15-.05.01-.1.01-.15.05-.09,0,0,.05-.02.07-.04.03-.07.06-.12.05-.07-.06-.11-.14-.15-.22v-.32c-.07-.06-.18-.05-.25-.12-.01-.03-.02-.05-.05-.07v-.15c.06-.01.03-.07.05-.1.03,0,.05-.01.07-.02.02-.01.03-.02.03-.05,0,.02,0,.03,0,.03.2-.29.41-.57.63-.83-.04.05.05.03.07.04.04.08.02.18.1.25h.05s0,.04.02.05c.07,0,.1.09.17.1.18.01.35-.03.52-.05.01-.07.09-.1.12-.15v-.05c.06-.04.13-.02.2-.02.08-.08.08-.2.17-.27.08.01.16-.04.25-.02.05.05.12.02.17.02.02.01.03.03.02.05h.07s.02.04.05.05c.04.03.03.06.02.1.06,0,.08.05.12.07.33.01.66-.03.99.02,0,.02,0,.06.05.05.02.04.04.08.05.12.03.03.06.03.1.02.03-.04.08-.05.12-.07.01-.22-.02-.43-.02-.64-.05-.04-.09-.08-.15-.1-.11,0-.22,0-.32-.02-.06-.05-.1-.12-.17-.15-.02-.04-.03-.08-.02-.12-.02-.02-.05-.05-.07-.07,0-.02-.02-.05-.02-.07-.08,0-.16-.04-.25-.05-.04-.06-.08-.12-.12-.17,0-.04,0-.07-.02-.1-.05-.07-.14-.07-.2-.12-.09.06-.2,0-.3.02,0-.05-.02-.09-.05-.12.03-.05.04-.11.05-.17.11-.09.21-.19.3-.3h.05s.02-.04.04-.07Z" style="fill:#ed1c2e; stroke:#ed1c2e; stroke-width:.5px;"/><path d="m10.06,22.26c.04-.08.11-.13.17-.2.05-.03.1-.03.15-.02.02.02.05.05.07.07-.02.08.06.14.05.22-.03-.02-.07,0-.1.05-.11.01-.2-.05-.3-.07v-.07s-.03.02-.05.02Z" style="fill:#ed1c2e; stroke-width:0px;"/><path d="m10.46,23.6s.08-.03.1-.07c.09,0,.16.04.25.05v.17h-.1s-.04.07-.07.1c-.05,0-.1.01-.15-.02v-.07s.04,0,.05-.03v-.15s.03,0,.02.02" style="fill:#ed1c2e; stroke:#ed1c2e; stroke-width:2px;"/><polygon points="33.42 71.71 17.16 71.71 11.25 76.72 11.25 80.96 5.8 87.34 5.8 92.55 .12 98.93 .12 110.37 48.59 110.37 48.59 98.86 43.23 93.02 43.23 87.42 38.32 81.43 38.32 76.52 33.42 71.71" style="fill:#fff; stroke-width:0px;"/><rect x="11.95" y="77.22" width="25.52" height="3.27" style="fill:#a6a6a6; stroke-width:0px;"/><rect x="6.5" y="87.73" width="35.87" height="4.82" style="fill:#a6a6a6; stroke-width:0px;"/><polygon points="48.58 110.38 48.58 99.33 0 99.37 0 110.38 48.58 110.38" style="fill:#a6a6a6; stroke-width:0px;"/><path d="m12.92,18.64c.06-.09.21-.1.2-.25.05-.09.18-.07.25-.15h.35v.2c.14.07.25.17.35.3v.25s-.07.07-.1.1h-.1c-.08.08-.19.1-.25.2-.03.12.08.23.05.35-.09.07-.19.09-.3.1-.05-.08-.06-.17-.1-.25h-.49c-.04-.09-.14-.12-.2-.2,0-.1-.08-.19-.05-.3.05-.13.16-.2.25-.3.12.03.22-.14.35-.05-.04-.09.09-.15.05-.25.03.03.11-.06.1.05" style="stroke-width:0px;"/><path d="m16.12,18.75c0,.06-.04.11-.02.17.03.03.03.08.07.1.04.05.1.01.15.02.03-.08.03-.16.02-.25-.02-.01-.03-.03-.02-.05-.05-.01-.11.03-.15-.02-.01.02-.06-.03-.05.02Z" style="stroke-width:0px;"/><path d="m17.53,19.96c-.07,0-.14.02-.2-.02-.07.02-.15-.03-.22.02-.11,0-.22,0-.32-.02-.03-.02-.04-.06-.05-.1-.02-.19.03-.38-.02-.57,0-.17,0-.35.02-.52.08,0,.15,0,.22-.02.05-.1.07-.2.12-.3h.15v-.07s.03-.02.05-.02c.01-.05.03-.1.02-.15.02-.05.05-.07.1-.07,0,.02,0,.04.02.05.03,0,.05.01.07.02v.07c.05.03,0,.09.05.12v.17s0,.08-.05.1v.27c.04.06.05.13.07.2.06.2.01.41.02.62-.07.05-.09.14-.15.2h-.05" style="stroke-width:0px;"/><path d="m13.8,28.74c-.05.01-.06.06-.07.1-.03-.01-.03.07-.07.02,0,.02-.02.03-.02.05-.09-.01-.13.11-.22.07-.01-.1-.08.03-.1-.02,0-.06-.07-.07-.07-.12-.02-.05.03-.1.02-.15.08-.05.18-.07.25-.15,0-.06.04-.11.02-.17.12-.02.25-.04.37-.05.04-.04.08-.08.12-.12-.02-.06.05-.08.05-.12.07-.05.15-.07.22-.1v.02s.04-.03.07-.02v-.17s.1-.03.1-.1c.06-.01.14.03.2-.02v-.17s.09-.06.12-.1h.17s.08.05.12.07c0,.04.04.05.05.07.04.09.02.18.02.27-.01.02-.03.04-.02.07-.06.02-.1.09-.17.07-.08.05-.13.14-.2.2v.07s-.06.03-.07.07c-.06.04-.14.01-.2.05-.04-.01-.09.03-.12-.02-.05-.01-.1.02-.15.02,0,.05-.07.07-.05.12-.03.03-.07.07-.1.1-.1.05-.2.06-.3.1,0,.03.02.07-.03.1.02-.02.03-.03.05-.05Z" style="stroke-width:0px;"/></svg>