<?xml version="1.0" encoding="UTF-8"?><svg id="uuid-04fc5ee4-f06c-4ab3-b000-093f40f28721" xmlns="http://www.w3.org/2000/svg" width="666.57" height="143.16" viewBox="0 0 666.57 143.16"><path d="m562.17,33.4c-1.68,0-2.78,0-3.89,0-33.09-.1-66.18-.2-99.26-.29-16.23-.05-32.47,0-48.7-.2-2.73-.03-3.81.92-4.76,3.33-12.83,32.65-25.75,65.27-38.71,97.87-3.26,8.19-11.9,11.37-19.36,7.28-3.87-2.12-5.75-5.62-6.9-9.77-5.66-20.38-11.41-40.73-17.14-61.09-.27-.94-.59-1.87-1.07-3.36-7.33,15.68-14.47,30.83-21.5,46.03-3.02,6.54-5.85,13.17-8.73,19.77-2.53,5.78-8.17,8.31-13.8,6.14-5.24-2.03-7.94-7.99-5.84-13.63,4.05-10.84,8.29-21.6,12.43-32.4.43-1.12.77-2.27,1.29-3.83-1.85,0-3.19,0-4.53,0-26.09.21-52.18.46-78.27.56-2.75.01-3.84,1.03-4.73,3.5-4.7,12.98-9.54,25.91-14.44,38.81-1.87,4.93-5.85,7.44-10.69,7.14-4.56-.29-8.71-3.59-9.45-8.2-.36-2.21-.02-4.76.74-6.9,3.4-9.61,7.06-19.14,10.62-28.7.47-1.26.86-2.54,1.31-3.91-4.01,0-7.71-.22-11.36.15-.96.1-2.14,1.84-2.55,3.05-4.44,13.07-8.7,26.19-13.11,39.27-1.61,4.78-5.94,7.67-10.55,7.34-4.95-.36-9.15-3.91-9.71-8.83-.25-2.25.27-4.71.97-6.91,3.08-9.72,6.36-19.39,9.56-29.07.27-.82.46-1.66.82-2.99-6.32.59-12.34,1.09-18.35,1.72-5.33.56-10.64,1.63-15.98,1.81-4.64.16-7.88,2.17-11.05,5.24-11.65,11.28-23.46,22.39-35.21,33.56-.36.34-.7.71-1.08,1.04-3.37,2.93-7.27,2.93-10.03,0-2.6-2.75-2.34-7.04.76-10.01,6.49-6.2,13.08-12.3,19.56-18.51,2.33-2.23,4.46-4.66,7.26-7.6-25.73,4-50.95,7.92-76.76,11.93,1.06-4.68,2-9.25,3.23-13.73.2-.73,1.66-1.35,2.65-1.58,32.39-7.58,64.8-15.08,97.18-22.68,1.5-.35,3.08-1.15,4.19-2.2,24.12-22.78,48.17-45.63,72.24-68.46.63-.6,1.27-1.19,1.91-1.79,2.69-2.53,5.68-3.13,8.83-1.03,3.22,2.14,3.53,5.27,2.3,8.6-3.7,10.04-7.56,20.01-11.21,30.07-3.08,8.49-5.96,17.05-9.13,26.17,4.76-.3,8.87-.38,12.9-.95,1.01-.14,2.21-1.69,2.65-2.85,5.31-13.95,10.51-27.94,15.72-41.93,3.1-8.31,5.31-9.86,14.05-9.86,23.1,0,46.21-.03,69.31.02,8.17.02,13.34,7.37,10.23,14.56-1.94,4.49-5.59,6.41-10.46,6.4-20.61-.04-41.21-.02-61.82-.02h-2.99c-4.05,10.86-8.11,21.74-12,32.17,14.5,0,28.84.05,43.18-.02,12.11-.06,24.21-.37,36.32-.31,2.96.01,4.39-.8,5.44-3.62,5.16-13.74,10.54-27.4,15.85-41.09,2.76-7.13,7.45-10.61,13.89-10.32,6.39.29,10.84,4.25,12.89,11.56,6.18,22.03,12.35,44.06,18.83,67.22.83-1.88,1.31-2.87,1.72-3.89,8.71-21.97,17.41-43.94,26.1-65.92,3.57-9.03,6.83-11.23,16.66-11.22,33.97.03,67.93.06,101.9.12,23.72.04,47.45.11,71.17.21,26.09.11,52.19.26,78.28.42,8.78.05,14.6,5.53,14.53,13.55-.07,7.89-6.18,13.4-14.88,13.38-20.98-.04-41.96-.02-62.94-.19-2.83-.02-4.06.84-5.13,3.46-12.96,31.66-26.05,63.26-39.13,94.87-2.46,5.96-6.95,8.83-12.04,7.83-7.01-1.38-10.55-7.95-7.78-14.86,4.36-10.85,8.89-21.63,13.35-32.44,7.64-18.51,15.28-37.02,22.91-55.54.37-.9.65-1.84,1.23-3.46Zm-405.6,12.62c-.31-.19-.63-.39-.94-.58-8.51,8.08-17.01,16.16-26.14,24.82,3.28-.4,5.5-.63,7.72-.96,4.12-.61,9.41.05,12.02-2.28,2.83-2.53,3.21-7.83,4.58-11.96.99-2.99,1.85-6.03,2.76-9.05Z" style="fill:#1a5597; stroke-width:0px;"/><path d="m499.15,101.88h-53.69c-2.24,7.31-.41,13.95,4.63,17.14,5.95,3.77,15.55,2.84,20.63-2.85,2.94-3.3,5.92-4.18,10-3.93,4.7.28,9.42.07,15.58.07-2.99,4.2-5.09,7.83-7.83,10.87-10.88,12.07-24.77,16.53-40.55,14.23-16.17-2.35-24.63-12.52-24.02-28.9.63-16.68,5.57-31.93,18.83-43.18,11.64-9.88,25.17-12.7,39.92-8.98,11.57,2.92,18.61,12.6,18.61,26.15,0,6.39-1.35,12.79-2.11,19.39Zm-18.82-15.16c1.29-9.01-2.13-15.02-9.02-16.28-11.49-2.09-20.41,6.13-22.55,16.28h31.57Z" style="fill:#1a5597; stroke-width:0px;"/></svg>