<?xml version="1.0" encoding="UTF-8" standalone="no"?>
<svg
   xmlns:dc="http://purl.org/dc/elements/1.1/"
   xmlns:cc="http://creativecommons.org/ns#"
   xmlns:rdf="http://www.w3.org/1999/02/22-rdf-syntax-ns#"
   xmlns:svg="http://www.w3.org/2000/svg"
   xmlns="http://www.w3.org/2000/svg"
   xmlns:sodipodi="http://sodipodi.sourceforge.net/DTD/sodipodi-0.dtd"
   xmlns:inkscape="http://www.inkscape.org/namespaces/inkscape"
   width="600"
   height="169"
   viewBox="0 0 600 169"
   version="1.1"
   id="svg54"
   sodipodi:docname="McDonnell_Douglas.svg"
   inkscape:version="1.0.2 (e86c870879, 2021-01-15)">
  <metadata
     id="metadata60">
    <rdf:RDF>
      <cc:Work
         rdf:about="">
        <dc:format>image/svg+xml</dc:format>
        <dc:type
           rdf:resource="http://purl.org/dc/dcmitype/StillImage" />
      </cc:Work>
    </rdf:RDF>
  </metadata>
  <defs
     id="defs58" />
  <sodipodi:namedview
     pagecolor="#ffffff"
     bordercolor="#666666"
     borderopacity="1"
     objecttolerance="10"
     gridtolerance="10"
     guidetolerance="10"
     inkscape:pageopacity="0"
     inkscape:pageshadow="2"
     inkscape:window-width="1600"
     inkscape:window-height="837"
     id="namedview56"
     showgrid="false"
     inkscape:zoom="1"
     inkscape:cx="300"
     inkscape:cy="84.5"
     inkscape:window-x="-8"
     inkscape:window-y="-8"
     inkscape:window-maximized="1"
     inkscape:current-layer="svg54"
     inkscape:document-rotation="0" />
  <g
     id="group1"
     fill="#050806">
    <path
       d="m 530.76223,17.955084 c 2.95718,-2.37152 5.82269,-4.861771 8.75931,-7.273008 -1.35183,3.459212 -3.5907,6.420761 -5.7393,9.40105 -1.0101,-0.715967 -2.02005,-1.421934 -3.02001,-2.128042 z"
       id="path3" />
    <path
       d="m 506.5555,43.425545 c 7.38072,-8.593888 15.09478,-16.952408 23.48923,-24.570356 0.95276,0.906787 1.91551,1.813433 2.87827,2.720079 -7.26145,8.542219 -14.22845,17.400356 -22.34055,25.184378 -1.32594,-1.131598 -2.67158,-2.242918 -4.02695,-3.334101 z"
       id="path5" />
    <path
       d="m 435.18425,79.645575 c 1.79681,0.474958 3.61487,1.039629 5.13064,2.158575 5.64433,3.851568 11.61178,7.208577 17.81237,10.072282 1.37104,0.780934 2.95074,0.748874 4.47863,0.587526 0.0242,0.299692 0.0923,0.878798 0.11633,1.16849 13.22367,6.616012 28.17097,8.467492 42.64986,10.435532 25.93839,2.5681 52.05207,1.93343 78.02334,3.99101 2.51408,0.27493 5.18744,0.49762 7.27972,2.07856 -14.75465,0.48606 -29.52544,0.53229 -44.278,1.16833 -24.36324,1.37031 -48.81282,1.57169 -73.09875,4.18103 -4.10485,0.39736 -8.20984,0.7847 -12.31665,1.04207 6.07431,-3.31514 12.9724,-4.9316 18.82087,-8.66362 -7.51331,-0.18512 -15.11398,-0.17899 -22.51454,1.26447 -1.47806,-1.99956 -2.94612,-3.99925 -4.45391,-5.97839 -0.40735,-0.52437 -0.80472,-1.04887 -1.20208,-1.57338 -5.49265,-7.314018 -11.18306,-14.465266 -16.44783,-21.932485 z"
       id="path7" />
    <path
       d="m 17.656193,111.34827 c 2.859827,-7.9107 4.975958,-16.081046 8.16729,-23.886364 5.492118,0.113328 10.991163,0.0065 16.481186,-0.03017 0.728156,4.160239 1.805441,8.255597 2.842731,12.351514 3.334239,-4.016946 6.82014,-7.915997 10.144241,-11.9428 5.477651,-0.2065 10.976975,-0.293291 16.458814,-0.199821 -2.56251,7.71653 -5.225289,15.414457 -7.396022,23.255537 -4.228192,0.15904 -8.458338,0.17811 -12.678765,0.17703 1.947061,-5.23769 3.893981,-10.48539 5.499399,-15.838322 -4.769857,5.057092 -9.195139,10.439402 -13.539732,15.870592 -2.899996,0.0205 -5.799714,0.061 -8.699152,0.12147 -1.416801,-5.49076 -2.73403,-11.0129 -3.811842,-16.578394 -2.456312,5.294811 -3.987548,10.946734 -5.509204,16.568534 -2.660298,-0.002 -5.309622,0.0642 -7.958944,0.13114 z"
       id="path9" />
    <path
       d="m 73.838716,96.812419 c 3.760042,-5.753059 10.713477,-8.420404 17.272505,-9.252063 5.814965,-0.401228 12.214069,-0.510585 17.338939,2.66817 2.39946,1.376633 3.27736,4.084639 4.02219,6.574483 -3.82907,0.09347 -7.64883,0.136808 -11.47874,0.170285 -0.74176,-2.269865 -2.086962,-4.781328 -4.827253,-4.783068 -6.491376,-0.769441 -10.987048,6.73406 -9.366078,12.521994 2.33859,2.74761 6.894515,2.42397 9.432292,0.0983 3.807119,-3.81352 9.637419,-1.68473 14.407509,-1.71132 -6.82371,8.37608 -18.773281,9.92308 -28.774981,7.72251 -3.510549,-0.73106 -6.50014,-2.82952 -9.142975,-5.16285 -0.03119,-2.94985 -0.798032,-6.29947 1.116592,-8.846451 z"
       id="path11" />
    <path
       d="m 120.07789,87.835944 c 7.32153,0.05778 14.64193,0.03558 21.95317,0.07349 3.86102,0.0461 8.14716,0.456292 11.09597,3.21539 3.46147,3.662027 2.70588,9.713162 -0.60562,13.209742 -3.87237,4.15447 -9.42608,6.79227 -15.13608,6.832 -8.22808,0.1949 -16.45175,-0.0103 -24.68206,0.0246 2.63236,-7.72751 5.18417,-15.493896 7.37462,-23.355246 m 11.09201,5.795697 c -1.06223,4.145235 -2.4861,8.175509 -3.67887,12.282559 4.00807,-0.16597 8.91365,0.91564 11.92686,-2.45676 2.35681,-2.39314 3.94201,-7.045726 0.98613,-9.594705 -3.01143,-0.798032 -6.16485,-0.303955 -9.23412,-0.231094 z"
       id="path13" />
    <path
       d="m 176.50909,87.528012 c 5.66135,-0.659109 11.60329,-0.562062 16.97349,1.563166 3.38964,1.382808 6.58275,4.448524 6.58706,8.338843 0.17129,4.388029 -3.04701,8.113339 -6.62762,10.243539 -7.14108,4.27012 -15.93157,5.01292 -24.00242,3.57547 -4.2009,-0.75142 -8.71727,-2.60854 -10.76334,-6.61037 -1.71661,-3.32636 -0.0311,-7.240267 2.23266,-9.852128 3.96887,-4.405843 9.9019,-6.378873 15.60017,-7.25852 m -3.52105,18.570978 c 3.15989,0.68594 7.05207,1.53168 9.58566,-1.09395 2.63051,-2.847 4.46084,-7.132978 2.97723,-10.962636 -1.39011,-1.430731 -3.55507,-1.770537 -5.45139,-1.494033 -6.21479,0.416812 -9.69567,8.256179 -7.1115,13.550619 z"
       id="path15" />
    <path
       d="m 208.7674,87.897652 c 4.6808,0.02465 9.36118,0.0193 14.05114,-0.01622 2.86033,4.300482 5.76079,8.610406 9.17547,12.503102 1.35177,-4.179275 2.623,-8.397435 3.90437,-12.605736 2.64045,0.01313 5.28047,-0.0037 7.92049,-0.02062 -2.48057,7.855399 -4.83072,15.738979 -7.26129,23.593679 -4.38069,-0.0189 -8.76068,0.0123 -13.14109,0.0139 -3.28545,-4.66458 -6.61033,-9.28862 -9.9848,-13.88195 -1.46659,4.55092 -2.99319,9.10268 -4.28898,13.71122 -2.57877,0.10601 -5.15851,0.14204 -7.72896,0.12793 2.4914,-7.79555 4.95266,-15.600676 7.35365,-23.424961 z"
       id="path17" />
    <path
       d="m 252.00157,87.894008 c 4.46928,-0.08241 8.94912,-0.124961 13.42106,-0.01742 3.06421,4.577663 6.36602,8.981992 9.57883,13.457576 1.57826,-4.432473 2.88544,-8.941164 4.22276,-13.440274 2.45948,-0.05434 4.90924,-0.08855 7.37928,-0.10304 -2.29129,7.802751 -4.85352,15.539284 -6.97397,23.399654 -4.33055,-0.01 -8.69538,0.39145 -13.01208,-0.0583 -3.7794,-4.22764 -6.61923,-9.20847 -10.17115,-13.619317 -1.43675,4.540507 -2.88336,9.091147 -4.16927,13.689557 -2.48977,0.0347 -4.97952,0.0695 -7.46942,0.0943 2.49182,-7.76556 4.84282,-15.589147 7.19396,-23.402736 z"
       id="path19" />
    <path
       d="m 294.98617,87.923852 c 10.73881,-0.159952 21.48391,0.130051 32.22202,-0.0799 -0.33552,1.754856 -0.69105,3.50999 -1.02645,5.274845 -6.61796,0.19242 -13.25653,-0.374946 -19.85904,0.207296 -0.53403,1.147568 -0.91737,2.343037 -1.33085,3.528926 5.37394,0.244991 10.76104,-2.51e-4 16.15316,0.114478 -0.44789,1.586408 -0.88592,3.162681 -1.31368,4.758811 -5.34032,0.0143 -10.67007,0.069 -16.00137,0.0134 -0.51082,1.37727 -1.00164,2.75425 -1.48247,4.1311 6.66103,0.027 13.33206,0.0538 20.0021,0.0107 -0.52509,1.78751 -1.04018,3.57487 -1.55542,5.35223 -10.92214,-0.0775 -21.85248,-0.0249 -32.78169,0.10772 2.261,-7.82233 4.71268,-15.597318 6.97369,-23.419649 z"
       id="path21" />
    <path
       d="m 334.81955,87.887688 c 4.25001,-0.02934 8.50029,-0.03869 12.76043,-0.05817 -1.71647,5.99455 -3.64362,11.942037 -5.069,18.012534 6.2812,0.0423 12.57156,0.0245 18.86109,-0.0533 -0.48523,1.77695 -0.96061,3.54376 -1.42585,5.32043 -10.58883,0.15786 -21.17101,0.0756 -31.76095,0.15343 1.84007,-7.88646 4.52326,-15.554668 6.63428,-23.374905 z"
       id="path23" />
    <path
       d="m 363.99639,111.09258 c 2.39196,-7.75415 4.32202,-15.641871 6.64372,-23.415045 4.39124,0.0587 8.78207,0.08739 13.17192,0.0461 -1.67661,5.983993 -3.47377,11.929664 -5.05997,17.942405 6.40314,0.18061 12.81321,0.14111 19.22301,0.0816 -0.45497,1.79653 -0.90992,3.59305 -1.34475,5.3993 -10.88131,-0.0181 -21.75472,-0.18628 -32.63393,-0.0544 z"
       id="path25" />
    <path
       d="m 39.000504,150.18404 c 2.107528,-8.07021 4.938058,-15.9305 7.306537,-23.93435 8.733253,0.88816 17.534854,0.22519 26.284334,0.84309 5.688521,0.57064 10.319757,6.35654 8.459252,12.06308 -3.093942,8.334 -12.805519,11.86995 -21.091692,11.4856 -6.968677,-0.57276 -13.968693,-0.52502 -20.958431,-0.45742 m 18.407195,-17.51872 c -1.143476,4.05636 -2.608455,8.00721 -3.651662,12.08217 3.379391,-0.0672 6.952953,0.16294 10.081981,-1.3609 2.967788,-1.6116 4.461145,-4.96277 4.585472,-8.23483 -0.750818,-0.76959 -1.501777,-1.54918 -2.252735,-2.32877 -2.922787,-0.17921 -5.84348,-0.20843 -8.763056,-0.15767 z"
       id="path27" />
    <path
       d="m 92.924581,129.32911 c 8.373519,-3.38724 18.155449,-4.03388 26.671679,-0.78247 3.52725,1.21087 5.47355,4.51401 6.5805,7.86888 -0.64124,4.92944 -3.65062,9.29188 -8.19197,11.37549 -8.02545,3.96244 -17.8564,4.67977 -26.309699,1.6375 -3.618638,-1.3096 -7.82593,-3.95112 -7.657106,-8.3339 -0.51675,-5.49331 4.233303,-9.82006 8.906596,-11.7655 m 5.623008,15.93304 c 2.526311,0.43477 5.330291,1.41572 7.709661,-0.0777 4.08386,-2.61728 6.82735,-8.11612 4.80136,-12.82829 -1.79513,-0.35496 -3.57655,-1.16018 -5.43315,-0.90423 -5.875744,1.06214 -9.733435,8.41673 -7.077871,13.81017 z"
       id="path29" />
    <path
       d="m 129.3879,146.50167 c 0.0955,-6.77199 3.51093,-12.85026 5.10056,-19.3331 4.38042,-0.002 8.7625,0.11767 13.14501,0.2665 -1.63095,5.67333 -4.33472,11.1516 -4.59134,17.12577 3.9021,1.55567 8.15141,1.47634 11.97716,-0.28725 2.25354,-5.49201 3.82338,-11.24448 5.61459,-16.90004 3.04026,-0.002 6.07039,-0.0146 9.10065,-0.0169 -1.60388,5.46292 -3.27804,10.90684 -5.06274,16.31228 -0.77195,2.73104 -2.912,4.89114 -5.56917,5.82833 -6.71472,2.574 -14.1593,2.29791 -21.13621,1.13521 -3.24611,-0.41472 -5.99209,-2.25656 -8.57851,-4.13063 z"
       id="path31" />
    <path
       d="m 175.12736,133.25176 c 6.9461,-6.05757 16.83341,-7.03572 25.63973,-5.92856 4.64002,0.68528 10.13308,2.29874 11.9509,7.14383 -4.20917,0.0887 -8.41875,0.14756 -12.62156,-0.0238 -1.60617,-1.14769 -3.2292,-2.78519 -5.37648,-2.57519 -6.51755,0.22102 -11.0554,8.28516 -8.17483,14.03551 1.80485,0.33483 3.5925,0.86993 5.44218,0.8341 2.71652,-0.26796 4.78979,-2.19709 6.79711,-3.83528 -2.33368,-0.24745 -4.66639,-0.42489 -7.00909,-0.6022 0.45915,-1.49655 0.91844,-2.98312 1.37758,-4.47967 6.26136,0.0526 12.52312,0.13516 18.78223,0.0277 -0.98791,4.45423 -2.47772,8.77546 -3.73672,13.15346 -2.61639,0.27656 -5.12201,-0.1085 -7.2547,-1.71888 -4.67963,0.77542 -9.07709,3.13705 -13.94094,2.89493 -5.50212,-0.11319 -11.85412,-1.64465 -15.03307,-6.56075 -2.31842,-4.16804 -0.2622,-9.46725 3.15766,-12.36529 z"
       id="path33" />
    <path
       d="m 222.37084,127.44157 c 4.45998,-0.0323 8.91067,-0.0145 13.36121,-0.007 -1.75591,6.0351 -3.66249,12.02231 -5.55895,18.01937 6.10066,0.005 12.21147,0.0195 18.31157,-0.0157 -1.03532,1.77463 -0.62076,5.67922 -3.45314,5.52876 -10.00903,0.13975 -20.01336,-0.10058 -30.0228,0.009 2.4507,-7.84497 5.0521,-15.64206 7.36211,-23.53508 z"
       id="path35" />
    <path
       d="m 248.26247,151.01237 c 7.35037,-7.9034 14.76157,-15.74764 21.99027,-23.76935 4.8719,0.10199 9.74003,-0.066 14.60472,0.23611 2.16899,7.79048 4.39782,15.57011 6.86566,23.2764 -4.71094,-0.0343 -9.42034,0.0415 -14.1203,0.0772 -0.2491,-1.36666 -0.49835,-2.74332 -0.7376,-4.12011 -4.99979,0.0498 -10.0153,-0.31019 -14.99993,0.10948 -1.54421,1.14168 -2.71273,2.68814 -3.9932,4.09615 -3.19941,0.0647 -6.40979,0.0595 -9.60962,0.0942 m 17.35473,-9.0932 c 3.31023,-0.006 6.62047,-0.0124 9.93071,-0.0183 -0.69113,-2.94063 -1.37212,-5.87141 -2.10309,-8.80149 -2.71051,2.84812 -5.20837,5.8833 -7.82762,8.82015 z"
       id="path37" />
    <path
       d="m 305.03122,127.60747 c 7.39029,-1.46333 15.29575,-1.84374 22.54883,0.47522 2.3594,0.65712 3.85774,2.6764 5.08555,4.65945 -4.01904,0.0961 -8.02852,0.16211 -12.04036,0.0581 -2.94937,-2.79909 -7.04655,-1.85179 -10.56419,-0.94259 0.75375,0.97956 1.12717,2.65452 2.66689,2.62302 5.52733,1.20294 12.17504,-0.44003 16.8203,3.48549 3.08866,2.74714 0.86241,7.32867 -2.0819,9.18996 -6.40407,4.04981 -14.34771,4.56077 -21.71482,4.10359 -4.89789,-0.53167 -10.94085,-1.41738 -13.1917,-6.47645 4.15875,-0.11808 8.31918,-0.11617 12.48129,0.006 3.21069,2.17538 7.40684,2.58684 11.01875,1.26627 0.35201,-0.57497 1.04616,-1.71477 1.38817,-2.2896 -4.982,-1.54059 -10.26687,-1.13676 -15.31314,-2.26641 -2.98032,-0.71846 -6.56999,-2.81855 -6.25944,-6.36323 0.13421,-4.71234 5.33954,-6.51519 9.15577,-7.52857 z"
       id="path39" />
  </g>
  <g
     id="group2"
     fill="#3863cd">
    <path
       d="m 395.76026,45.972737 c 16.39262,-10.669917 38.13207,-12.293605 56.07105,-4.613324 13.25746,5.455428 25.35969,15.557441 30.93794,29.000866 0.2578,0.556455 0.76338,1.669504 1.01118,2.226099 4.06368,8.114053 5.0561,17.59112 3.97062,26.517146 -2.01664,-0.461888 -4.02343,-0.933915 -6.04008,-1.395803 0.50347,-6.917704 0.0156,-13.921576 -2.13702,-20.542166 l -0.78287,-2.349298 c -4.45242,-10.168825 -12.02525,-18.913945 -21.63433,-24.510326 -13.65931,-8.45011 -31.09568,-10.216833 -46.30788,-5.253954 -16.16832,5.246257 -29.44097,19.472959 -31.99349,36.500257 -2.15062,-0.02998 -4.3014,-0.06995 -6.4423,-0.120063 2.39869,-14.434898 11.05646,-27.547057 23.34718,-35.459434 z"
       id="path42" />
    <path
       d="m 380.00785,116.09951 c 2.35978,-0.0329 4.72996,-0.036 7.11043,-0.0194 5.49172,7.9641 13.45166,13.63352 21.91437,18.06579 1.05604,0.4253 2.14124,0.79018 3.23588,1.11493 6.38298,1.60104 12.80014,3.50162 19.44893,3.36878 15.46366,0.15411 31.15039,-6.63558 40.65841,-19.01953 2.04345,-3.34886 6.39824,-2.31956 9.69066,-2.88559 -5.37149,8.52583 -12.59787,15.99745 -21.58304,20.70336 -16.1503,8.68634 -36.4333,9.3296 -53.04338,1.56076 -0.92606,-0.42711 -1.86169,-0.82409 -2.78733,-1.22121 -10.37833,-4.10549 -18.73439,-12.35963 -24.64493,-21.66801 z"
       id="path44" />
  </g>
  <g
     id="group3"
     fill="#c52443">
    <path
       d="m 497.33919,53.065165 c 2.30355,-3.342488 5.3769,-6.705726 9.74549,-6.836735 -0.01,1.460277 -0.0193,2.910554 -0.019,4.370692 -4.0697,4.347245 -9.26758,7.400116 -13.34755,11.727503 -3.29235,3.436304 -6.64538,6.823449 -9.93772,10.259753 -0.2478,-0.556595 -0.75338,-1.669644 -1.01118,-2.226099 5.42728,-5.246288 10.34693,-11.035541 14.56994,-17.295114 z"
       id="path47" />
    <path
       d="m 479.57395,77.165555 c -5.9589,5.1337 -11.00462,11.204742 -16.85173,16.466893 -0.024,-0.289692 -0.0921,-0.868798 -0.11633,-1.16849 -0.24617,-1.156676 1.09546,-1.765467 1.67423,-2.573627 5.07361,-4.791305 10.14664,-9.622606 14.51096,-15.074074 0,0 0.57626,1.161159 0.78287,2.349298 z"
       id="path62" />
    <path
       d="m 412.11881,133.13284 c 14.22433,-9.09949 27.15226,-20.08107 39.51327,-31.55478 0.39736,0.52451 0.79473,1.04901 1.20208,1.57338 -13.04373,11.28321 -26.08592,22.67642 -40.56563,32.10951 -1.09464,-0.32475 -2.17984,-0.68963 -3.23588,-1.11493 1.06696,-0.22492 2.09225,-0.56927 3.08616,-1.01318 z"
       id="path49" />
    <path
       d="m 353.66911,134.27903 c 1.19526,-6.07728 3.30142,-12.09728 6.83028,-17.21705 -2.27441,6.86243 -6.22088,13.58818 -5.36624,21.07698 0.55014,6.45295 6.52994,11.40994 12.85407,11.66167 13.21422,0.92559 25.7706,-5.15032 36.66556,-12.03311 0.92564,0.39712 1.86127,0.7941 2.78733,1.22121 -8.91426,4.05486 -17.32985,9.44288 -27.03182,11.51855 -6.67008,1.47326 -14.34787,2.40055 -20.42133,-1.38501 -4.83406,-3.12282 -7.49898,-9.1862 -6.31785,-14.84324 z"
       id="path51" />
  </g>
</svg>
