<?xml version="1.0" encoding="UTF-8"?><svg xmlns="http://www.w3.org/2000/svg" width="16cm" height="8cm" xmlns:xlink="http://www.w3.org/1999/xlink" viewBox="0 0 453.54 226.77"><defs><linearGradient id="uuid-5546fe64-9f95-44f2-bfff-34c42cfac68c" x1="49.84" y1="66.11" x2="270.18" y2="66.11" gradientUnits="userSpaceOnUse"><stop offset="0" stop-color="#fff" stop-opacity="0"/><stop offset=".19" stop-color="#feffff" stop-opacity="0"/><stop offset=".22" stop-color="#feffff" stop-opacity="0"/><stop offset=".4" stop-color="#c9cece" stop-opacity=".22"/><stop offset=".69" stop-color="#3c4c49" stop-opacity=".83"/><stop offset=".76" stop-color="#152824"/></linearGradient><linearGradient id="uuid-4ff39953-3dc2-4d17-ba75-1b2bd28e5a70" x1="199.44" y1="168.62" x2="90.79" y2="168.62" xlink:href="#uuid-5546fe64-9f95-44f2-bfff-34c42cfac68c"/><linearGradient id="uuid-f76a2bad-f6fa-4715-b2e3-389310898d46" x1="337.53" y1="213.63" x2="373.9" y2="213.63" gradientTransform="translate(0 404.8) scale(1 -1.03)" gradientUnits="userSpaceOnUse"><stop offset="0" stop-color="#fff" stop-opacity="0"/><stop offset=".19" stop-color="#fdfefe" stop-opacity="0"/><stop offset=".22" stop-color="#fdfefe" stop-opacity="0"/><stop offset=".29" stop-color="#9ea2a6" stop-opacity=".41"/><stop offset=".39" stop-color="#50575e" stop-opacity=".74"/><stop offset=".52" stop-color="#222b34" stop-opacity=".94"/><stop offset=".76" stop-color="#151e28"/></linearGradient><linearGradient id="uuid-f248cabf-441e-4cfc-9909-347ef24eecc7" x1="304.63" y1="100.08" x2="373.9" y2="100.08" gradientTransform="translate(0 279.19) scale(1 -1)" gradientUnits="userSpaceOnUse"><stop offset="0" stop-color="#fff" stop-opacity="0"/><stop offset=".05" stop-color="#feffff" stop-opacity="0"/><stop offset=".06" stop-color="#feffff" stop-opacity="0"/><stop offset=".65" stop-color="#505e5b" stop-opacity=".22"/><stop offset=".79" stop-color="#152824" stop-opacity=".3"/></linearGradient><linearGradient id="uuid-6d96d238-727d-4410-93df-8c09edea91cf" x1="295.46" y1="47.52" x2="367.01" y2="47.52" gradientTransform="matrix(1,0,0,1,0,0)" xlink:href="#uuid-f248cabf-441e-4cfc-9909-347ef24eecc7"/></defs><g style="isolation:isolate;"><g id="uuid-0b715f62-343a-4009-9640-9cccc6cb5d71"><path d="m174.28,166.82h-60.72c-17.43,0-31.61-14.18-31.61-31.61v-11.86h64.53v-31.79h-64.53v-.3c0-17.43,14.18-31.61,31.61-31.61h82.73l31.48,36.03,23.23-21.73-26.3-30.11c-11.32-13.02-24.3-15.58-30.78-15.99h-80.36c-34.96,0-63.4,28.44-63.4,63.4v43.95c0,34.96,28.44,63.4,63.4,63.4h32.94l27.77-31.79Z" style="fill:#d85577; stroke-width:0px;"/><g style="opacity:.5;"><path d="m224.69,43.84c-11.31-13.01-24.3-15.57-30.77-15.98h-80.36c-34.96,0-63.4,28.44-63.4,63.4v13.1l31.79-12.8v-.3c0-17.43,14.18-31.61,31.61-31.61h82.73l31.48,36.03,23.23-21.73-26.31-30.11Z" style="fill:url(#uuid-5546fe64-9f95-44f2-bfff-34c42cfac68c); mix-blend-mode:multiply; stroke-width:0px;"/></g><path d="m346.3,182.97l-13.73-15.83-40.01-45.61-.04.04-68.9-78.87c-11.05-11.98-23.42-14.44-29.69-14.84h-25.49l67.64,77.42.04-.04,68.9,78.87c11.06,11.98,23.42,14.44,29.69,14.84h25.49l-.02-.02h13.72c-7.55-1.51-18.01-5.56-27.6-15.95Z" style="fill:#d85577; stroke-width:0px;"/><path d="m226.56,121.56l-.04-.04-67.64,77.42h25.49c5.39,0,18.64-2.86,29.69-14.84l39.94-45-21.08-24.13-6.35,6.59Z" style="fill:#d85577; stroke-width:0px;"/><path d="m146.51,198.61l27.77-31.79h-60.72c-16.27,0-29.7-12.36-31.41-28.18,1.8,33.36,29.43,59.97,63.23,59.97h1.13Z" style="fill:url(#uuid-4ff39953-3dc2-4d17-ba75-1b2bd28e5a70); mix-blend-mode:multiply; opacity:.2; stroke-width:0px;"/><path d="m364.9,28.05s1.89-.19,2.12-.21c-9.53,0-16.38,0-16.37,0h-25.49c-.77,0-1.58.13-2.34.23-6.7.85-17.54,3.98-27.35,14.61l-29.66,33.88,21.1,24.15,29.26-33.39s.07-.06.11-.09l21.29-24.55c9.81-10.63,20.65-13.76,27.35-14.61Z" style="fill:#d85577; stroke-width:0px;"/><path d="m373.9,198.94l-36.37-.1v-30.3c4.26,21.29,29.67,29.52,36.37,30.39Z" style="fill:url(#uuid-f76a2bad-f6fa-4715-b2e3-389310898d46); mix-blend-mode:multiply; opacity:.2; stroke-width:0px;"/><g style="mix-blend-mode:multiply;"><path d="m373.9,198.93s-14.09-.28-14.09-.27h-25.49c-.77,0-1.58-.13-2.34-.23-6.7-.85-17.54-3.98-27.35-14.61,0,0,20.77-24.57,20.8-24.54l21.29,24.55c9.81,10.63,20.48,14.25,27.18,15.1Z" style="fill:url(#uuid-f248cabf-441e-4cfc-9909-347ef24eecc7); stroke-width:0px;"/></g><g style="mix-blend-mode:multiply;"><path d="m364.9,28.05s1.89-.19,2.12-.21c-9.53,0-16.38,0-16.37,0h-25.49c-.77,0-1.58.13-2.34.23-6.7.85-17.54,3.98-27.35,14.61,0,0,20.77,24.57,20.8,24.54l21.29-24.55c9.81-10.63,20.65-13.76,27.35-14.61Z" style="fill:url(#uuid-6d96d238-727d-4410-93df-8c09edea91cf); stroke-width:0px;"/></g><rect x="367.01" y="27.83" width="36.37" height="171.02" style="fill:#d85577; stroke-width:0px;"/></g></g></svg>