<?xml version="1.0" encoding="UTF-8"?><svg id="uuid-3792a530-0e3a-4d08-b2fe-5707fe05325a" xmlns="http://www.w3.org/2000/svg" width="36.09cm" height="11.92cm" viewBox="0 0 1023 338"><path d="m347.17,146.22l-15.27,17.89h51.68l23-26.67h-41.9c-4.78.14-10.9,1.82-17.51,8.78Z" style="fill:#231f20; stroke-width:0px;"/><path d="m346.72,125.91c5.47-4.64,10.52-7.36,15.3-7.66l65.48-.02,27.42-31.79s-73.74.02-73.72,0h-25.49c-.77,0-1.58.13-2.34.23-6.7.85-17.54,3.98-27.35,14.61l-29.66,33.88,21.1,24.15,29.26-33.39Z" style="fill:#231f20; stroke-width:0px;"/><path d="m323.13,180.14l-.04.04-41.56-47.57.04-.04-26.3-30.11c-11.32-13.02-24.3-15.58-30.78-15.99h-80.36c-34.96,0-63.4,28.44-63.4,63.4v43.95c0,34.96,28.44,63.4,63.4,63.4h32.94l27.77-31.79h-60.72c-17.43,0-31.61-14.18-31.61-31.61v-11.86h64.53v-31.79h-64.53v-.3c0-17.43,14.18-31.61,31.61-31.61h82.65l39.87,45.63.04-.04,68.9,78.87c11.06,11.98,23.42,14.44,29.69,14.84h25.49l-.02-.02,22.8.02,27.41-31.78-77.98-.03-39.85-45.61Z" style="fill:#231f20; stroke-width:0px;"/><path d="m257.12,180.18l-.04-.04-67.64,77.42h25.49c5.39,0,18.64-2.86,29.69-14.84l39.94-45-21.08-24.13-6.35,6.59Z" style="fill:#231f20; stroke-width:0px;"/><path d="m505.6,174.39v-56h42.32v10.4h-29.44v35.2h30.48v10.4h-43.36Zm11.92-23.36v-10.16h26.96v10.16h-26.96Z" style="fill:#231f20; stroke-width:0px;"/><path d="m565.11,174.39l24-33.2v9.44l-22.96-32.24h14.64l15.92,22.4-6.24.16,15.84-22.56h14l-22.88,31.68v-9.28l24.24,33.6h-14.96l-16.48-23.76h5.92l-16.24,23.76h-14.8Z" style="fill:#231f20; stroke-width:0px;"/><path d="m637.84,174.39v-56h24.24c5.01,0,9.33.81,12.96,2.44,3.63,1.63,6.43,3.96,8.4,7,1.97,3.04,2.96,6.64,2.96,10.8s-.99,7.83-2.96,10.84c-1.97,3.01-4.77,5.35-8.4,7-3.63,1.65-7.95,2.48-12.96,2.48h-17.12l5.92-5.84v21.28h-13.04Zm13.04-19.84l-5.92-6.16h16.4c3.95,0,6.93-.85,8.96-2.56,2.03-1.71,3.04-4.11,3.04-7.2s-1.01-5.48-3.04-7.16c-2.03-1.68-5.01-2.52-8.96-2.52h-16.4l5.92-6.16v31.76Z" style="fill:#231f20; stroke-width:0px;"/><path d="m704.39,174.39v-56h23.92c7.79,0,13.84,1.8,18.16,5.4,4.32,3.6,6.48,8.55,6.48,14.84,0,4.21-.99,7.83-2.96,10.84-1.97,3.01-4.77,5.31-8.4,6.88-3.63,1.57-7.95,2.36-12.96,2.36h-17.12l5.92-5.6v21.28h-13.04Zm13.04-19.84l-5.92-6.16h16.4c3.95,0,6.93-.85,8.96-2.56,2.03-1.71,3.04-4.11,3.04-7.2s-1.01-5.48-3.04-7.16c-2.03-1.68-5.01-2.52-8.96-2.52h-16.4l5.92-6.16v31.76Zm22.64,19.84l-14.08-20.32h13.92l14.08,20.32h-13.92Z" style="fill:#231f20; stroke-width:0px;"/><path d="m772.59,174.39v-56h42.32v10.4h-29.44v35.2h30.48v10.4h-43.36Zm11.92-23.36v-10.16h26.96v10.16h-26.96Z" style="fill:#231f20; stroke-width:0px;"/><path d="m852.85,175.35c-4.48,0-8.79-.6-12.92-1.8-4.13-1.2-7.45-2.76-9.96-4.68l4.4-9.76c2.35,1.71,5.17,3.11,8.48,4.2,3.31,1.09,6.64,1.64,10,1.64,2.56,0,4.63-.27,6.2-.8,1.57-.53,2.73-1.24,3.48-2.12.75-.88,1.12-1.91,1.12-3.08,0-1.49-.59-2.68-1.76-3.56-1.17-.88-2.73-1.6-4.68-2.16-1.95-.56-4.07-1.09-6.36-1.6-2.29-.51-4.6-1.12-6.92-1.84-2.32-.72-4.45-1.68-6.4-2.88-1.95-1.2-3.49-2.77-4.64-4.72-1.15-1.95-1.72-4.39-1.72-7.32,0-3.2.85-6.12,2.56-8.76,1.71-2.64,4.31-4.75,7.8-6.32,3.49-1.57,7.88-2.36,13.16-2.36,3.52,0,7,.43,10.44,1.28,3.44.85,6.44,2.08,9,3.68l-4.08,9.76c-2.51-1.44-5.09-2.52-7.76-3.24-2.67-.72-5.23-1.08-7.68-1.08s-4.61.28-6.16.84c-1.55.56-2.68,1.32-3.4,2.28-.72.96-1.08,2.03-1.08,3.2,0,1.49.59,2.69,1.76,3.6,1.17.91,2.72,1.61,4.64,2.12,1.92.51,4.05,1.01,6.4,1.52,2.35.51,4.67,1.13,6.96,1.88,2.29.75,4.4,1.69,6.32,2.84,1.92,1.15,3.48,2.69,4.68,4.64,1.2,1.95,1.8,4.36,1.8,7.24,0,3.15-.87,6.03-2.6,8.64-1.73,2.61-4.36,4.72-7.88,6.32-3.52,1.6-7.92,2.4-13.2,2.4Z" style="fill:#231f20; stroke-width:0px;"/><path d="m914.43,175.35c-4.48,0-8.79-.6-12.92-1.8-4.13-1.2-7.45-2.76-9.96-4.68l4.4-9.76c2.35,1.71,5.17,3.11,8.48,4.2,3.31,1.09,6.64,1.64,10,1.64,2.56,0,4.63-.27,6.2-.8,1.57-.53,2.73-1.24,3.48-2.12.75-.88,1.12-1.91,1.12-3.08,0-1.49-.59-2.68-1.76-3.56-1.17-.88-2.73-1.6-4.68-2.16-1.95-.56-4.07-1.09-6.36-1.6-2.29-.51-4.6-1.12-6.92-1.84-2.32-.72-4.45-1.68-6.4-2.88-1.95-1.2-3.49-2.77-4.64-4.72-1.15-1.95-1.72-4.39-1.72-7.32,0-3.2.85-6.12,2.56-8.76,1.71-2.64,4.31-4.75,7.8-6.32,3.49-1.57,7.88-2.36,13.16-2.36,3.52,0,7,.43,10.44,1.28,3.44.85,6.44,2.08,9,3.68l-4.08,9.76c-2.51-1.44-5.09-2.52-7.76-3.24-2.67-.72-5.23-1.08-7.68-1.08s-4.61.28-6.16.84c-1.55.56-2.68,1.32-3.4,2.28-.72.96-1.08,2.03-1.08,3.2,0,1.49.59,2.69,1.76,3.6,1.17.91,2.72,1.61,4.64,2.12,1.92.51,4.05,1.01,6.4,1.52,2.35.51,4.67,1.13,6.96,1.88,2.29.75,4.4,1.69,6.32,2.84,1.92,1.15,3.48,2.69,4.68,4.64,1.2,1.95,1.8,4.36,1.8,7.24,0,3.15-.87,6.03-2.6,8.64-1.73,2.61-4.36,4.72-7.88,6.32-3.52,1.6-7.92,2.4-13.2,2.4Z" style="fill:#231f20; stroke-width:0px;"/><path d="m507.75,218.02v-21h3v18.39h11.37v2.61h-14.37Z" style="fill:#231f20; stroke-width:0px;"/><path d="m535.41,218.2c-1.18,0-2.21-.2-3.1-.6-.89-.4-1.58-.96-2.06-1.66-.48-.71-.72-1.52-.72-2.42s.21-1.64.62-2.34c.41-.7,1.08-1.26,2.01-1.68s2.18-.63,3.76-.63h5.04v2.07h-4.92c-1.44,0-2.41.24-2.91.72s-.75,1.06-.75,1.74c0,.78.31,1.4.93,1.88.62.47,1.48.71,2.58.71s2.02-.24,2.83-.72c.81-.48,1.39-1.18,1.75-2.1l.57,1.98c-.38.94-1.05,1.68-2.01,2.23-.96.55-2.17.83-3.63.83Zm5.22-.18v-3.36l-.15-.63v-5.73c0-1.22-.36-2.17-1.07-2.83s-1.78-1-3.19-1c-.94,0-1.86.16-2.76.46-.9.31-1.66.73-2.28,1.25l-1.2-2.16c.82-.66,1.8-1.16,2.96-1.51,1.15-.35,2.35-.52,3.61-.52,2.18,0,3.86.53,5.04,1.59,1.18,1.06,1.77,2.68,1.77,4.86v9.6h-2.73Z" style="fill:#231f20; stroke-width:0px;"/><path d="m553.57,218.02v-15.9h2.76v4.29l-.45-1.14c.52-1.04,1.32-1.85,2.4-2.43,1.08-.58,2.34-.87,3.78-.87,1.3,0,2.45.25,3.44.75.99.5,1.76,1.26,2.33,2.28.56,1.02.84,2.31.84,3.87v9.15h-2.88v-8.82c0-1.54-.38-2.7-1.12-3.48-.75-.78-1.81-1.17-3.17-1.17-1.02,0-1.91.2-2.67.6-.76.4-1.35.99-1.76,1.77-.41.78-.61,1.75-.61,2.91v8.19h-2.88Z" style="fill:#231f20; stroke-width:0px;"/><path d="m585.81,217.36c-1.54,0-2.92-.32-4.12-.97-1.21-.65-2.17-1.55-2.88-2.71s-1.07-2.5-1.07-4.02.36-2.88,1.07-4.04,1.67-2.04,2.88-2.69c1.21-.64,2.58-.96,4.12-.96,1.36,0,2.6.27,3.72.82,1.12.55,2.01,1.39,2.69,2.54.67,1.14,1,2.58,1,4.32s-.33,3.15-1,4.29c-.67,1.14-1.57,2-2.69,2.57-1.12.57-2.36.85-3.72.85Zm.36,6.66c-1.46,0-2.88-.21-4.25-.62-1.37-.41-2.49-.99-3.35-1.75l1.38-2.22c.74.64,1.65,1.14,2.73,1.52,1.08.37,2.21.55,3.39.55,1.88,0,3.26-.44,4.14-1.32s1.32-2.22,1.32-4.02v-3.36l.3-3.15-.15-3.18v-4.35h2.73v13.74c0,2.8-.7,4.86-2.1,6.18-1.4,1.32-3.45,1.98-6.15,1.98Zm-.03-9.18c1.06,0,2-.22,2.82-.66.82-.44,1.46-1.05,1.93-1.83.47-.78.71-1.68.71-2.7s-.24-1.92-.71-2.7-1.12-1.38-1.93-1.82c-.82-.43-1.76-.64-2.82-.64s-2.01.21-2.83.64c-.83.43-1.48,1.04-1.95,1.82s-.71,1.68-.71,2.7.24,1.92.71,2.7c.47.78,1.12,1.39,1.95,1.83.83.44,1.77.66,2.83.66Z" style="fill:#231f20; stroke-width:0px;"/><path d="m611.45,218.2c-1.36,0-2.55-.25-3.58-.75s-1.83-1.26-2.4-2.3c-.57-1.03-.85-2.32-.85-3.88v-9.15h2.88v8.82c0,1.56.38,2.73,1.12,3.51s1.8,1.17,3.17,1.17c1,0,1.87-.21,2.61-.62.74-.41,1.31-1.01,1.71-1.8.4-.79.6-1.74.6-2.87v-8.22h2.88v15.9h-2.73v-4.29l.45,1.14c-.52,1.06-1.3,1.88-2.34,2.46s-2.21.87-3.51.87Z" style="fill:#231f20; stroke-width:0px;"/><path d="m634.73,218.2c-1.18,0-2.21-.2-3.1-.6-.89-.4-1.58-.96-2.06-1.66-.48-.71-.72-1.52-.72-2.42s.21-1.64.62-2.34c.41-.7,1.08-1.26,2.01-1.68s2.18-.63,3.76-.63h5.04v2.07h-4.92c-1.44,0-2.41.24-2.91.72s-.75,1.06-.75,1.74c0,.78.31,1.4.93,1.88.62.47,1.48.71,2.58.71s2.02-.24,2.83-.72c.81-.48,1.39-1.18,1.75-2.1l.57,1.98c-.38.94-1.05,1.68-2.01,2.23-.96.55-2.17.83-3.63.83Zm5.22-.18v-3.36l-.15-.63v-5.73c0-1.22-.36-2.17-1.07-2.83s-1.78-1-3.19-1c-.94,0-1.86.16-2.76.46-.9.31-1.66.73-2.28,1.25l-1.2-2.16c.82-.66,1.8-1.16,2.96-1.51,1.15-.35,2.35-.52,3.61-.52,2.18,0,3.86.53,5.04,1.59,1.18,1.06,1.77,2.68,1.77,4.86v9.6h-2.73Z" style="fill:#231f20; stroke-width:0px;"/><path d="m659.9,217.36c-1.54,0-2.92-.32-4.12-.97-1.21-.65-2.17-1.55-2.88-2.71s-1.07-2.5-1.07-4.02.36-2.88,1.07-4.04,1.67-2.04,2.88-2.69c1.21-.64,2.58-.96,4.12-.96,1.36,0,2.6.27,3.72.82,1.12.55,2.01,1.39,2.69,2.54.67,1.14,1,2.58,1,4.32s-.33,3.15-1,4.29c-.67,1.14-1.57,2-2.69,2.57-1.12.57-2.36.85-3.72.85Zm.36,6.66c-1.46,0-2.88-.21-4.25-.62-1.37-.41-2.49-.99-3.35-1.75l1.38-2.22c.74.64,1.65,1.14,2.73,1.52,1.08.37,2.21.55,3.39.55,1.88,0,3.26-.44,4.14-1.32s1.32-2.22,1.32-4.02v-3.36l.3-3.15-.15-3.18v-4.35h2.73v13.74c0,2.8-.7,4.86-2.1,6.18-1.4,1.32-3.45,1.98-6.15,1.98Zm-.03-9.18c1.06,0,2-.22,2.82-.66.82-.44,1.46-1.05,1.93-1.83.47-.78.71-1.68.71-2.7s-.24-1.92-.71-2.7-1.12-1.38-1.93-1.82c-.82-.43-1.76-.64-2.82-.64s-2.01.21-2.83.64c-.83.43-1.48,1.04-1.95,1.82s-.71,1.68-.71,2.7.24,1.92.71,2.7c.47.78,1.12,1.39,1.95,1.83.83.44,1.77.66,2.83.66Z" style="fill:#231f20; stroke-width:0px;"/><path d="m686.39,218.2c-1.7,0-3.19-.35-4.48-1.05-1.29-.7-2.29-1.66-3-2.88-.71-1.22-1.07-2.62-1.07-4.2s.35-2.98,1.04-4.2c.69-1.22,1.64-2.17,2.85-2.87s2.58-1.03,4.1-1.03,2.9.34,4.08,1.02c1.18.68,2.1,1.63,2.77,2.87.67,1.23,1,2.67,1,4.3,0,.12,0,.26-.01.42-.01.16-.03.31-.04.45h-13.53v-2.07h12.03l-1.17.72c.02-1.02-.19-1.93-.63-2.73-.44-.8-1.05-1.42-1.82-1.88s-1.67-.67-2.68-.67-1.89.22-2.67.67c-.78.45-1.39,1.08-1.83,1.89-.44.81-.66,1.74-.66,2.78v.48c0,1.06.24,2,.74,2.83.49.83,1.17,1.48,2.05,1.94.88.46,1.89.69,3.03.69.94,0,1.79-.16,2.56-.48s1.45-.8,2.03-1.44l1.59,1.86c-.72.84-1.62,1.48-2.69,1.92-1.07.44-2.26.66-3.58.66Z" style="fill:#231f20; stroke-width:0px;"/><path d="m718.16,218.02v-21h14.82v2.61h-11.82v18.39h-3Zm2.7-8.49v-2.58h10.83v2.58h-10.83Z" style="fill:#231f20; stroke-width:0px;"/><path d="m748.88,218.2c-1.58,0-3-.35-4.25-1.05-1.25-.7-2.24-1.67-2.96-2.9s-1.08-2.62-1.08-4.18.36-2.97,1.08-4.19c.72-1.21,1.7-2.16,2.94-2.87,1.24-.7,2.66-1.05,4.26-1.05s3,.34,4.25,1.03,2.23,1.65,2.94,2.87,1.07,2.62,1.07,4.2-.36,2.98-1.07,4.2c-.71,1.22-1.69,2.18-2.94,2.88-1.25.7-2.67,1.05-4.25,1.05Zm0-2.52c1.02,0,1.93-.23,2.75-.69.81-.46,1.44-1.12,1.91-1.96.46-.85.69-1.83.69-2.96s-.23-2.12-.69-2.96c-.46-.83-1.1-1.47-1.91-1.94-.81-.46-1.73-.69-2.75-.69s-1.93.23-2.73.69c-.8.46-1.44,1.11-1.92,1.94-.48.83-.72,1.81-.72,2.96s.24,2.11.72,2.96c.48.85,1.12,1.5,1.92,1.96s1.71.69,2.73.69Z" style="fill:#231f20; stroke-width:0px;"/><path d="m773.09,218.2c-1.36,0-2.55-.25-3.58-.75s-1.83-1.26-2.4-2.3c-.57-1.03-.85-2.32-.85-3.88v-9.15h2.88v8.82c0,1.56.38,2.73,1.12,3.51s1.8,1.17,3.17,1.17c1,0,1.87-.21,2.61-.62.74-.41,1.31-1.01,1.71-1.8.4-.79.6-1.74.6-2.87v-8.22h2.88v15.9h-2.73v-4.29l.45,1.14c-.52,1.06-1.3,1.88-2.34,2.46s-2.21.87-3.51.87Z" style="fill:#231f20; stroke-width:0px;"/><path d="m791.51,218.02v-15.9h2.76v4.29l-.45-1.14c.52-1.04,1.32-1.85,2.4-2.43,1.08-.58,2.34-.87,3.78-.87,1.3,0,2.45.25,3.44.75.99.5,1.76,1.26,2.33,2.28.56,1.02.84,2.31.84,3.87v9.15h-2.88v-8.82c0-1.54-.38-2.7-1.12-3.48-.75-.78-1.81-1.17-3.17-1.17-1.02,0-1.91.2-2.67.6-.76.4-1.35.99-1.76,1.77-.41.78-.61,1.75-.61,2.91v8.19h-2.88Z" style="fill:#231f20; stroke-width:0px;"/><path d="m823.78,218.2c-1.54,0-2.92-.34-4.12-1.02-1.21-.68-2.17-1.63-2.87-2.85-.7-1.22-1.05-2.64-1.05-4.26s.35-3.04,1.05-4.25,1.66-2.16,2.87-2.83,2.58-1.02,4.12-1.02c1.34,0,2.55.3,3.63.9s1.95,1.5,2.6,2.7c.65,1.2.97,2.7.97,4.5s-.32,3.3-.95,4.5c-.63,1.2-1.48,2.11-2.56,2.71-1.08.61-2.31.92-3.69.92Zm.24-2.52c1,0,1.91-.23,2.71-.69.81-.46,1.45-1.12,1.92-1.96s.71-1.83.71-2.96-.24-2.12-.71-2.96-1.11-1.47-1.92-1.94c-.81-.46-1.71-.69-2.71-.69s-1.93.23-2.73.69c-.8.46-1.44,1.11-1.92,1.94-.48.83-.72,1.81-.72,2.96s.24,2.11.72,2.96c.48.85,1.12,1.5,1.92,1.96s1.71.69,2.73.69Zm5.43,2.34v-4.29l.18-3.69-.3-3.69v-10.59h2.88v22.26h-2.76Z" style="fill:#231f20; stroke-width:0px;"/><path d="m847.34,218.2c-1.18,0-2.21-.2-3.1-.6-.89-.4-1.58-.96-2.06-1.66-.48-.71-.72-1.52-.72-2.42s.21-1.64.62-2.34c.41-.7,1.08-1.26,2.01-1.68s2.18-.63,3.76-.63h5.04v2.07h-4.92c-1.44,0-2.41.24-2.91.72s-.75,1.06-.75,1.74c0,.78.31,1.4.93,1.88.62.47,1.48.71,2.58.71s2.02-.24,2.83-.72c.81-.48,1.39-1.18,1.75-2.1l.57,1.98c-.38.94-1.05,1.68-2.01,2.23-.96.55-2.17.83-3.63.83Zm5.22-.18v-3.36l-.15-.63v-5.73c0-1.22-.36-2.17-1.07-2.83s-1.78-1-3.19-1c-.94,0-1.86.16-2.76.46-.9.31-1.66.73-2.28,1.25l-1.2-2.16c.82-.66,1.8-1.16,2.96-1.51,1.15-.35,2.35-.52,3.61-.52,2.18,0,3.86.53,5.04,1.59,1.18,1.06,1.77,2.68,1.77,4.86v9.6h-2.73Z" style="fill:#231f20; stroke-width:0px;"/><path d="m863.09,204.49v-2.37h10.14v2.37h-10.14Zm7.74,13.71c-1.6,0-2.84-.43-3.72-1.29s-1.32-2.09-1.32-3.69v-14.58h2.88v14.46c0,.86.21,1.52.64,1.98.43.46,1.04.69,1.84.69.9,0,1.65-.25,2.25-.75l.9,2.07c-.44.38-.96.66-1.58.84s-1.25.27-1.9.27Z" style="fill:#231f20; stroke-width:0px;"/><path d="m884.31,199.06c-.56,0-1.03-.18-1.39-.54-.37-.36-.56-.8-.56-1.32s.18-.99.56-1.35c.37-.36.83-.54,1.39-.54s1.02.17,1.4.52c.37.35.55.79.55,1.31s-.18.99-.54,1.36-.83.56-1.41.56Zm-1.44,18.96v-15.9h2.88v15.9h-2.88Z" style="fill:#231f20; stroke-width:0px;"/><path d="m903.23,218.2c-1.58,0-3-.35-4.25-1.05-1.25-.7-2.24-1.67-2.96-2.9s-1.08-2.62-1.08-4.18.36-2.97,1.08-4.19c.72-1.21,1.7-2.16,2.94-2.87,1.24-.7,2.66-1.05,4.26-1.05s3,.34,4.25,1.03,2.23,1.65,2.94,2.87,1.07,2.62,1.07,4.2-.36,2.98-1.07,4.2c-.71,1.22-1.69,2.18-2.94,2.88-1.25.7-2.67,1.05-4.25,1.05Zm0-2.52c1.02,0,1.93-.23,2.75-.69.81-.46,1.44-1.12,1.91-1.96.46-.85.69-1.83.69-2.96s-.23-2.12-.69-2.96c-.46-.83-1.1-1.47-1.91-1.94-.81-.46-1.73-.69-2.75-.69s-1.93.23-2.73.69c-.8.46-1.44,1.11-1.92,1.94-.48.83-.72,1.81-.72,2.96s.24,2.11.72,2.96c.48.85,1.12,1.5,1.92,1.96s1.71.69,2.73.69Z" style="fill:#231f20; stroke-width:0px;"/><path d="m920.77,218.02v-15.9h2.76v4.29l-.45-1.14c.52-1.04,1.32-1.85,2.4-2.43,1.08-.58,2.34-.87,3.78-.87,1.3,0,2.45.25,3.44.75.99.5,1.76,1.26,2.33,2.28.56,1.02.84,2.31.84,3.87v9.15h-2.88v-8.82c0-1.54-.38-2.7-1.12-3.48-.75-.78-1.81-1.17-3.17-1.17-1.02,0-1.91.2-2.67.6-.76.4-1.35.99-1.76,1.77-.41.78-.61,1.75-.61,2.91v8.19h-2.88Z" style="fill:#231f20; stroke-width:0px;"/></svg>