<?xml version="1.0" encoding="UTF-8"?><svg xmlns="http://www.w3.org/2000/svg" width="40.82cm" height="11.92cm" xmlns:xlink="http://www.w3.org/1999/xlink" viewBox="0 0 1157.08 338"><defs><linearGradient id="uuid-71e773c5-9a7b-4ef5-a3ce-dc98e9cb5fbc" x1="49.76" y1="124.72" x2="270.1" y2="124.72" gradientUnits="userSpaceOnUse"><stop offset="0" stop-color="#fff" stop-opacity="0"/><stop offset=".19" stop-color="#feffff" stop-opacity="0"/><stop offset=".22" stop-color="#feffff" stop-opacity="0"/><stop offset=".4" stop-color="#c9cece" stop-opacity=".22"/><stop offset=".69" stop-color="#3c4c49" stop-opacity=".83"/><stop offset=".76" stop-color="#152824"/></linearGradient><linearGradient id="uuid-c9aac2b1-7169-4cf1-aa08-952be7d54303" x1="199.35" y1="227.24" x2="90.71" y2="227.24" xlink:href="#uuid-71e773c5-9a7b-4ef5-a3ce-dc98e9cb5fbc"/><linearGradient id="uuid-192c7922-243f-49a9-9412-dbf5686b8d5d" x1="296.11" y1="220.84" x2="375.76" y2="220.84" gradientUnits="userSpaceOnUse"><stop offset="0" stop-color="#fff" stop-opacity="0"/><stop offset=".98" stop-color="#151e28" stop-opacity=".3"/></linearGradient><linearGradient id="uuid-ab89f2ad-8bfc-4cfe-abfb-849d3a06687b" x1="295.82" y1="117.57" x2="375.48" y2="117.57" xlink:href="#uuid-192c7922-243f-49a9-9412-dbf5686b8d5d"/><linearGradient id="uuid-a39d2ddc-c47a-464b-a528-d4146c0c9c79" x1="-1679.16" y1="109.11" x2="-1755.65" y2="109.11" gradientTransform="translate(-1230.02) rotate(-180) scale(.95 -1)" gradientUnits="userSpaceOnUse"><stop offset="0" stop-color="#fff" stop-opacity="0"/><stop offset=".19" stop-color="#fdfefe" stop-opacity="0"/><stop offset=".22" stop-color="#fdfefe" stop-opacity="0"/><stop offset=".4" stop-color="#c9cbce" stop-opacity=".22"/><stop offset=".69" stop-color="#3c444c" stop-opacity=".83"/><stop offset=".76" stop-color="#151e28"/></linearGradient><linearGradient id="uuid-69bee834-09de-4ec1-9c79-c17b150016e3" x1="417.59" y1="244.39" x2="458.62" y2="203.36" gradientUnits="userSpaceOnUse"><stop offset=".09" stop-color="#fff" stop-opacity="0"/><stop offset=".1" stop-color="#f3f4f4" stop-opacity=".02"/><stop offset=".35" stop-color="#69716e" stop-opacity=".31"/><stop offset=".52" stop-color="#38433f" stop-opacity=".41"/><stop offset=".79" stop-color="#bdc1c0" stop-opacity=".13"/><stop offset="1" stop-color="#feffff" stop-opacity="0"/></linearGradient><linearGradient id="uuid-8037e086-16ec-4382-8c36-e47ad5cf24fd" x1="364.6" y1="304.89" x2="260.45" y2="304.89" gradientTransform="translate(82.82 -77.65)" xlink:href="#uuid-71e773c5-9a7b-4ef5-a3ce-dc98e9cb5fbc"/></defs><g style="isolation:isolate;"><g id="uuid-ee2ba0c1-acc0-4ddc-810f-d4375900b5e6"><path d="m174.2,225.43h-60.72c-17.43,0-31.61-14.18-31.61-31.61v-11.86h64.53v-31.79h-64.53v-.3c0-17.43,14.18-31.61,31.61-31.61h82.73l31.48,36.03,23.23-21.73-26.3-30.11c-11.32-13.02-24.3-15.58-30.78-15.99h-80.36c-34.96,0-63.4,28.44-63.4,63.4v43.95c0,34.96,28.44,63.4,63.4,63.4h32.94l27.77-31.79Z" style="fill:#ed1c24; stroke-width:0px;"/><g style="opacity:.5;"><path d="m224.61,102.45c-11.31-13.01-24.3-15.57-30.77-15.98h-80.36c-34.96,0-63.4,28.44-63.4,63.4v13.1l31.79-12.8v-.3c0-17.43,14.18-31.61,31.61-31.61h82.73l31.48,36.03,23.23-21.73-26.31-30.11Z" style="fill:url(#uuid-71e773c5-9a7b-4ef5-a3ce-dc98e9cb5fbc); mix-blend-mode:multiply; stroke-width:0px;"/></g><path d="m346.21,241.58l-13.73-15.83h-.16s-39.85-45.61-39.85-45.61l-.04.04-68.9-78.87c-11.05-11.98-23.42-14.44-29.69-14.84h-25.49l67.64,77.42.04-.04,68.9,78.87c11.06,11.98,23.42,14.44,29.69,14.84h25.49l-.02-.02h13.72c-7.55-1.51-18.01-5.56-27.6-15.95Z" style="fill:#ed1c24; stroke-width:0px;"/><path d="m226.48,180.18l-.04-.04-67.64,77.42h25.49c5.39,0,18.64-2.86,29.69-14.84l39.94-45-21.08-24.13-6.35,6.59Z" style="fill:#ed1c24; stroke-width:0px;"/><path d="m146.42,257.22l27.77-31.79h-60.72c-16.27,0-29.7-12.36-31.41-28.18,1.8,33.36,29.43,59.97,63.23,59.97h1.13Z" style="fill:url(#uuid-c9aac2b1-7169-4cf1-aa08-952be7d54303); mix-blend-mode:multiply; opacity:.2; stroke-width:0px;"/><path d="m542.58,197.25v-56h42.32v10.4h-29.44v35.2h30.48v10.4h-43.36Zm11.92-23.36v-10.16h26.96v10.16h-26.96Z" style="fill:#ed1c24; stroke-width:0px;"/><path d="m602.09,197.25l24-33.2v9.44l-22.96-32.24h14.64l15.92,22.4-6.24.16,15.84-22.56h14l-22.88,31.68v-9.28l24.24,33.6h-14.96l-16.48-23.76h5.92l-16.24,23.76h-14.8Z" style="fill:#ed1c24; stroke-width:0px;"/><path d="m674.82,197.25v-56h24.24c5.01,0,9.33.81,12.96,2.44,3.63,1.63,6.43,3.96,8.4,7,1.97,3.04,2.96,6.64,2.96,10.8s-.99,7.83-2.96,10.84c-1.97,3.01-4.77,5.35-8.4,7-3.63,1.65-7.95,2.48-12.96,2.48h-17.12l5.92-5.84v21.28h-13.04Zm13.04-19.84l-5.92-6.16h16.4c3.95,0,6.93-.85,8.96-2.56,2.03-1.71,3.04-4.11,3.04-7.2s-1.01-5.48-3.04-7.16c-2.03-1.68-5.01-2.52-8.96-2.52h-16.4l5.92-6.16v31.76Z" style="fill:#ed1c24; stroke-width:0px;"/><path d="m741.37,197.25v-56h23.92c7.79,0,13.84,1.8,18.16,5.4,4.32,3.6,6.48,8.55,6.48,14.84,0,4.21-.99,7.83-2.96,10.84-1.97,3.01-4.77,5.31-8.4,6.88-3.63,1.57-7.95,2.36-12.96,2.36h-17.12l5.92-5.6v21.28h-13.04Zm13.04-19.84l-5.92-6.16h16.4c3.95,0,6.93-.85,8.96-2.56,2.03-1.71,3.04-4.11,3.04-7.2s-1.01-5.48-3.04-7.16c-2.03-1.68-5.01-2.52-8.96-2.52h-16.4l5.92-6.16v31.76Zm22.64,19.84l-14.08-20.32h13.92l14.08,20.32h-13.92Z" style="fill:#ed1c24; stroke-width:0px;"/><path d="m809.57,197.25v-56h42.32v10.4h-29.44v35.2h30.48v10.4h-43.36Zm11.92-23.36v-10.16h26.96v10.16h-26.96Z" style="fill:#ed1c24; stroke-width:0px;"/><path d="m889.83,198.21c-4.48,0-8.79-.6-12.92-1.8-4.13-1.2-7.45-2.76-9.96-4.68l4.4-9.76c2.35,1.71,5.17,3.11,8.48,4.2,3.31,1.09,6.64,1.64,10,1.64,2.56,0,4.63-.27,6.2-.8,1.57-.53,2.73-1.24,3.48-2.12.75-.88,1.12-1.91,1.12-3.08,0-1.49-.59-2.68-1.76-3.56-1.17-.88-2.73-1.6-4.68-2.16-1.95-.56-4.07-1.09-6.36-1.6-2.29-.51-4.6-1.12-6.92-1.84-2.32-.72-4.45-1.68-6.4-2.88-1.95-1.2-3.49-2.77-4.64-4.72-1.15-1.95-1.72-4.39-1.72-7.32,0-3.2.85-6.12,2.56-8.76,1.71-2.64,4.31-4.75,7.8-6.32,3.49-1.57,7.88-2.36,13.16-2.36,3.52,0,7,.43,10.44,1.28,3.44.85,6.44,2.08,9,3.68l-4.08,9.76c-2.51-1.44-5.09-2.52-7.76-3.24-2.67-.72-5.23-1.08-7.68-1.08s-4.61.28-6.16.84c-1.55.56-2.68,1.32-3.4,2.28-.72.96-1.08,2.03-1.08,3.2,0,1.49.59,2.69,1.76,3.6,1.17.91,2.72,1.61,4.64,2.12,1.92.51,4.05,1.01,6.4,1.52,2.35.51,4.67,1.13,6.96,1.88,2.29.75,4.4,1.69,6.32,2.84,1.92,1.15,3.48,2.69,4.68,4.64,1.2,1.95,1.8,4.36,1.8,7.24,0,3.15-.87,6.03-2.6,8.64-1.73,2.61-4.36,4.72-7.88,6.32-3.52,1.6-7.92,2.4-13.2,2.4Z" style="fill:#ed1c24; stroke-width:0px;"/><path d="m951.41,198.21c-4.48,0-8.79-.6-12.92-1.8-4.13-1.2-7.45-2.76-9.96-4.68l4.4-9.76c2.35,1.71,5.17,3.11,8.48,4.2,3.31,1.09,6.64,1.64,10,1.64,2.56,0,4.63-.27,6.2-.8,1.57-.53,2.73-1.24,3.48-2.12.75-.88,1.12-1.91,1.12-3.08,0-1.49-.59-2.68-1.76-3.56-1.17-.88-2.73-1.6-4.68-2.16-1.95-.56-4.07-1.09-6.36-1.6-2.29-.51-4.6-1.12-6.92-1.84-2.32-.72-4.45-1.68-6.4-2.88-1.95-1.2-3.49-2.77-4.64-4.72-1.15-1.95-1.72-4.39-1.72-7.32,0-3.2.85-6.12,2.56-8.76,1.71-2.64,4.31-4.75,7.8-6.32,3.49-1.57,7.88-2.36,13.16-2.36,3.52,0,7,.43,10.44,1.28,3.44.85,6.44,2.08,9,3.68l-4.08,9.76c-2.51-1.44-5.09-2.52-7.76-3.24-2.67-.72-5.23-1.08-7.68-1.08s-4.61.28-6.16.84c-1.55.56-2.68,1.32-3.4,2.28-.72.96-1.08,2.03-1.08,3.2,0,1.49.59,2.69,1.76,3.6,1.17.91,2.72,1.61,4.64,2.12,1.92.51,4.05,1.01,6.4,1.52,2.35.51,4.67,1.13,6.96,1.88,2.29.75,4.4,1.69,6.32,2.84,1.92,1.15,3.48,2.69,4.68,4.64,1.2,1.95,1.8,4.36,1.8,7.24,0,3.15-.87,6.03-2.6,8.64-1.73,2.61-4.36,4.72-7.88,6.32-3.52,1.6-7.92,2.4-13.2,2.4Z" style="fill:#ed1c24; stroke-width:0px;"/><path d="m992.97,179.73v-10h22.64v10h-22.64Z" style="fill:#ed1c24; stroke-width:0px;"/><path d="m1066.34,198.21c-4.37,0-8.43-.72-12.16-2.16-3.73-1.44-6.99-3.47-9.76-6.08-2.77-2.61-4.92-5.68-6.44-9.2-1.52-3.52-2.28-7.36-2.28-11.52s.76-8.07,2.28-11.56c1.52-3.49,3.67-6.55,6.44-9.16,2.77-2.61,6.01-4.64,9.72-6.08,3.71-1.44,7.77-2.16,12.2-2.16s8.49.71,12.2,2.12c3.71,1.41,6.95,3.43,9.72,6.04,2.77,2.61,4.92,5.68,6.44,9.2,1.52,3.52,2.28,7.39,2.28,11.6s-.76,8.01-2.28,11.56c-1.52,3.55-3.67,6.63-6.44,9.24-2.77,2.61-6.01,4.63-9.72,6.04-3.71,1.41-7.77,2.12-12.2,2.12Zm0-10.96c2.51,0,4.81-.44,6.92-1.32,2.11-.88,3.96-2.12,5.56-3.72,1.6-1.6,2.84-3.51,3.72-5.72s1.32-4.63,1.32-7.24-.44-5.09-1.32-7.28c-.88-2.19-2.12-4.08-3.72-5.68s-3.45-2.84-5.56-3.72c-2.11-.88-4.41-1.32-6.92-1.32s-4.83.44-6.96,1.32c-2.13.88-3.99,2.12-5.56,3.72-1.57,1.6-2.8,3.49-3.68,5.68-.88,2.19-1.32,4.61-1.32,7.28s.44,5.03,1.32,7.24c.88,2.21,2.11,4.12,3.68,5.72,1.57,1.6,3.43,2.84,5.56,3.72,2.13.88,4.45,1.32,6.96,1.32Zm18.32,22.88c-2.19,0-4.25-.25-6.2-.76-1.95-.51-3.87-1.29-5.76-2.36-1.89-1.07-3.85-2.49-5.88-4.28-2.03-1.79-4.29-4.01-6.8-6.68l13.68-3.44c1.44,1.97,2.77,3.55,4,4.72,1.23,1.17,2.41,2.01,3.56,2.52,1.15.51,2.36.76,3.64.76,3.41,0,6.45-1.41,9.12-4.24l5.76,6.88c-3.79,4.59-8.83,6.88-15.12,6.88Z" style="fill:#ed1c24; stroke-width:0px;"/><path d="m364.82,86.66s1.89-.19,2.12-.21c-9.53,0-16.38,0-16.37,0h-25.49c-.77,0-1.58.13-2.34.23-6.7.85-17.54,3.98-27.35,14.61l-29.66,33.88,21.1,24.15,29.26-33.39s.07-.06.11-.09l21.29-24.55c9.81-10.63,20.65-13.76,27.35-14.61Z" style="fill:#ed1c24; stroke-width:0px;"/><path d="m346.5,241.58l-13.73-15.83h-.16s-36.37-41.63-36.37-41.63l-.13,28.75c0,10.04,3.81,20.88,10.2,30.98,10.77,10.99,22.54,13.34,28.6,13.72h25.49l-.02-.02h13.49s0-.04,0-.04c-7.53-1.56-17.88-5.63-27.38-15.92Z" style="fill:url(#uuid-192c7922-243f-49a9-9412-dbf5686b8d5d); stroke-width:0px;"/><path d="m316.18,125.82l21.29-24.55c9.81-10.63,20.65-13.76,27.35-14.61,0,0,1.89-.19,2.12-.21-9.53,0-16.38,0-16.37,0h-25.49c-.77,0-1.58.13-2.34.23-2.74.35-6.19,1.09-9.96,2.56-10.11,11.71-16.55,24.95-16.55,35.72l-.11,23.75,19.96-22.78s.07-.06.11-.09Z" style="fill:url(#uuid-ab89f2ad-8bfc-4cfe-abfb-849d3a06687b); stroke-width:0px;"/><path d="m470.59,127.72c-1.07-22.63-32.4-41.29-51.09-41.29h-31.03c-27.06,0-54.66,30.09-54.66,49.58l-.3,61.25c.8,28.5,23.87,56.06,56.96,59.97h32.84c23.53-3.85,47.14-20.57,47.14-55.26l.13-70.23h.01v-4.01Zm-29.88,4.13s-.2,62.87-.2,68.25c0,20.29-14,25.9-26.36,25.6l-19.76-.04c-14.37-.32-29.69-10.69-30.21-26.54l.08-57.27c0-10.12,13.79-23.58,28.94-23.58,0,0,25.78,0,25.86,0,10.98.05,16.46,5.44,21.55,13.45l.1.12Z" style="fill:#4ec0aa; stroke-width:0px;"/><path d="m440.62,131.73s-2.15-13.72-19.13-13.55l-24.07.08-10.6-31.79c43.35,0,53.79,45.26,53.79,45.26" style="fill:url(#uuid-a39d2ddc-c47a-464b-a528-d4146c0c9c79); mix-blend-mode:multiply; opacity:.2; stroke-width:0px;"/><path d="m470.59,127.72c-1.07-22.63-32.4-41.29-51.09-41.29h-31.03c-27.06,0-54.66,30.09-54.66,49.58l-.3,61.25c.8,28.5,23.87,56.06,56.96,59.97h32.84c23.53-3.85,47.14-20.57,47.14-55.26l.13-70.23h.01v-4.01Zm-29.88,4.13s-.2,62.87-.2,68.25c0,20.29-14,25.9-26.36,25.6l-19.76-.04c-14.37-.32-29.69-10.69-30.21-26.54l.08-57.27c0-10.12,13.79-23.58,28.94-23.58,0,0,25.78,0,25.86,0,10.98.05,16.46,5.44,21.55,13.45l.1.12Z" style="fill:#ed1c24; stroke-width:0px;"/><path d="m440.62,131.73s-2.15-13.72-19.13-13.55l-24.07.08-10.6-31.79c43.35,0,53.79,45.26,53.79,45.26" style="fill:url(#uuid-a39d2ddc-c47a-464b-a528-d4146c0c9c79); mix-blend-mode:multiply; opacity:.2; stroke-width:0px;"/><path d="m440.51,186.11c3.08,34.73-5.38,40.94-38.46,39.58l27.12,30.29c28.34-6.27,35.23-25.67,40.21-41.85l-28.88-28.03Z" style="fill:url(#uuid-69bee834-09de-4ec1-9c79-c17b150016e3); stroke-width:0px;"/><path d="m448.65,263.6l-42.05-42.05,10.73-.9c10.85-.91,16.78-5.83,18.13-15.06l1.45-9.84,68.98,68.98-57.24-1.12Z" style="fill:#ed1c24; stroke-width:0px;"/><path d="m440.41,206.31l24,24,29.17,29.17-42.82-.84-7.38-7.38-25.63-25.63c9.98-.84,20.61-5.36,22.66-19.31m-7-21.14l-2.9,19.68c-1.27,8.62-7.59,10.3-13.61,10.8l-21.47,1.8,15.23,15.23,25.63,25.63,7.38,7.38,2.85,2.85,4.03.08,42.82.84,24.82.49-17.56-17.56-29.17-29.17-24-24-14.07-14.07h0Z" style="fill:#fff; stroke-width:0px;"/><path d="m423.31,257.22l-21.25-31.53-35.65-1.26c-16.27,1-29.7-11.36-31.41-27.18,1.8,33.36,29.43,59.97,63.23,59.97h25.09Z" style="fill:url(#uuid-8037e086-16ec-4382-8c36-e47ad5cf24fd); mix-blend-mode:multiply; opacity:.2; stroke-width:0px;"/></g></g></svg>