<?xml version="1.0" encoding="UTF-8"?><svg xmlns="http://www.w3.org/2000/svg" width="40.82cm" height="11.92cm" xmlns:xlink="http://www.w3.org/1999/xlink" viewBox="0 0 1157.08 338"><defs><linearGradient id="uuid-ec842ec5-96f8-48ef-b19c-2cbd1e1738aa" x1="49.76" y1="124.72" x2="270.1" y2="124.72" gradientUnits="userSpaceOnUse"><stop offset="0" stop-color="#fff" stop-opacity="0"/><stop offset=".19" stop-color="#feffff" stop-opacity="0"/><stop offset=".22" stop-color="#feffff" stop-opacity="0"/><stop offset=".4" stop-color="#c9cece" stop-opacity=".22"/><stop offset=".69" stop-color="#3c4c49" stop-opacity=".83"/><stop offset=".76" stop-color="#152824"/></linearGradient><linearGradient id="uuid-386972d7-cf75-4a79-b601-f9018db14dbe" x1="199.35" y1="227.24" x2="90.71" y2="227.24" xlink:href="#uuid-ec842ec5-96f8-48ef-b19c-2cbd1e1738aa"/><linearGradient id="uuid-ccdb08a0-881a-49c5-baa8-4c689e008007" x1="296.11" y1="220.84" x2="375.76" y2="220.84" gradientUnits="userSpaceOnUse"><stop offset="0" stop-color="#fff" stop-opacity="0"/><stop offset=".98" stop-color="#151e28" stop-opacity=".3"/></linearGradient><linearGradient id="uuid-893e7822-ec74-45eb-aca9-c5649b56a340" x1="295.82" y1="117.57" x2="375.48" y2="117.57" xlink:href="#uuid-ccdb08a0-881a-49c5-baa8-4c689e008007"/><linearGradient id="uuid-93825a60-557d-4802-9097-bedcce816372" x1="-1676.68" y1="109.11" x2="-1753.17" y2="109.11" gradientTransform="translate(-1230.02) rotate(-180) scale(.95 -1)" gradientUnits="userSpaceOnUse"><stop offset="0" stop-color="#fff" stop-opacity="0"/><stop offset=".19" stop-color="#fdfefe" stop-opacity="0"/><stop offset=".22" stop-color="#fdfefe" stop-opacity="0"/><stop offset=".4" stop-color="#c9cbce" stop-opacity=".22"/><stop offset=".69" stop-color="#3c444c" stop-opacity=".83"/><stop offset=".76" stop-color="#151e28"/></linearGradient><linearGradient id="uuid-55809dd2-93a2-4eb9-9758-c26f98244562" x1="448.81" y1="227.24" x2="340.16" y2="227.24" xlink:href="#uuid-ec842ec5-96f8-48ef-b19c-2cbd1e1738aa"/></defs><g style="isolation:isolate;"><g id="uuid-9dfa055e-c18d-44f6-ba9f-0757ce36520b"><path d="m174.2,225.43h-60.72c-17.43,0-31.61-14.18-31.61-31.61v-11.86h64.53v-31.79h-64.53v-.3c0-17.43,14.18-31.61,31.61-31.61h82.73l31.48,36.03,23.23-21.73-26.3-30.11c-11.32-13.02-24.3-15.58-30.78-15.99h-80.36c-34.96,0-63.4,28.44-63.4,63.4v43.95c0,34.96,28.44,63.4,63.4,63.4h32.94l27.77-31.79Z" style="fill:#4ec0aa; stroke-width:0px;"/><g style="opacity:.5;"><path d="m224.61,102.45c-11.31-13.01-24.3-15.57-30.77-15.98h-80.36c-34.96,0-63.4,28.44-63.4,63.4v13.1l31.79-12.8v-.3c0-17.43,14.18-31.61,31.61-31.61h82.73l31.48,36.03,23.23-21.73-26.31-30.11Z" style="fill:url(#uuid-ec842ec5-96f8-48ef-b19c-2cbd1e1738aa); mix-blend-mode:multiply; stroke-width:0px;"/></g><path d="m346.21,241.58l-13.73-15.83h-.16s-39.85-45.61-39.85-45.61l-.04.04-68.9-78.87c-11.05-11.98-23.42-14.44-29.69-14.84h-25.49l67.64,77.42.04-.04,68.9,78.87c11.06,11.98,23.42,14.44,29.69,14.84h25.49l-.02-.02h13.72c-7.55-1.51-18.01-5.56-27.6-15.95Z" style="fill:#4ec0aa; stroke-width:0px;"/><path d="m226.48,180.18l-.04-.04-67.64,77.42h25.49c5.39,0,18.64-2.86,29.69-14.84l39.94-45-21.08-24.13-6.35,6.59Z" style="fill:#4ec0aa; stroke-width:0px;"/><path d="m146.42,257.22l27.77-31.79h-60.72c-16.27,0-29.7-12.36-31.41-28.18,1.8,33.36,29.43,59.97,63.23,59.97h1.13Z" style="fill:url(#uuid-386972d7-cf75-4a79-b601-f9018db14dbe); mix-blend-mode:multiply; opacity:.2; stroke-width:0px;"/><path d="m542.58,197.25v-56h42.32v10.4h-29.44v35.2h30.48v10.4h-43.36Zm11.92-23.36v-10.16h26.96v10.16h-26.96Z" style="fill:#4ec0aa; stroke-width:0px;"/><path d="m602.09,197.25l24-33.2v9.44l-22.96-32.24h14.64l15.92,22.4-6.24.16,15.84-22.56h14l-22.88,31.68v-9.28l24.24,33.6h-14.96l-16.48-23.76h5.92l-16.24,23.76h-14.8Z" style="fill:#4ec0aa; stroke-width:0px;"/><path d="m674.82,197.25v-56h24.24c5.01,0,9.33.81,12.96,2.44,3.63,1.63,6.43,3.96,8.4,7,1.97,3.04,2.96,6.64,2.96,10.8s-.99,7.83-2.96,10.84c-1.97,3.01-4.77,5.35-8.4,7-3.63,1.65-7.95,2.48-12.96,2.48h-17.12l5.92-5.84v21.28h-13.04Zm13.04-19.84l-5.92-6.16h16.4c3.95,0,6.93-.85,8.96-2.56,2.03-1.71,3.04-4.11,3.04-7.2s-1.01-5.48-3.04-7.16c-2.03-1.68-5.01-2.52-8.96-2.52h-16.4l5.92-6.16v31.76Z" style="fill:#4ec0aa; stroke-width:0px;"/><path d="m741.37,197.25v-56h23.92c7.79,0,13.84,1.8,18.16,5.4,4.32,3.6,6.48,8.55,6.48,14.84,0,4.21-.99,7.83-2.96,10.84-1.97,3.01-4.77,5.31-8.4,6.88-3.63,1.57-7.95,2.36-12.96,2.36h-17.12l5.92-5.6v21.28h-13.04Zm13.04-19.84l-5.92-6.16h16.4c3.95,0,6.93-.85,8.96-2.56,2.03-1.71,3.04-4.11,3.04-7.2s-1.01-5.48-3.04-7.16c-2.03-1.68-5.01-2.52-8.96-2.52h-16.4l5.92-6.16v31.76Zm22.64,19.84l-14.08-20.32h13.92l14.08,20.32h-13.92Z" style="fill:#4ec0aa; stroke-width:0px;"/><path d="m809.57,197.25v-56h42.32v10.4h-29.44v35.2h30.48v10.4h-43.36Zm11.92-23.36v-10.16h26.96v10.16h-26.96Z" style="fill:#4ec0aa; stroke-width:0px;"/><path d="m889.83,198.21c-4.48,0-8.79-.6-12.92-1.8-4.13-1.2-7.45-2.76-9.96-4.68l4.4-9.76c2.35,1.71,5.17,3.11,8.48,4.2,3.31,1.09,6.64,1.64,10,1.64,2.56,0,4.63-.27,6.2-.8,1.57-.53,2.73-1.24,3.48-2.12.75-.88,1.12-1.91,1.12-3.08,0-1.49-.59-2.68-1.76-3.56-1.17-.88-2.73-1.6-4.68-2.16-1.95-.56-4.07-1.09-6.36-1.6-2.29-.51-4.6-1.12-6.92-1.84-2.32-.72-4.45-1.68-6.4-2.88-1.95-1.2-3.49-2.77-4.64-4.72-1.15-1.95-1.72-4.39-1.72-7.32,0-3.2.85-6.12,2.56-8.76,1.71-2.64,4.31-4.75,7.8-6.32,3.49-1.57,7.88-2.36,13.16-2.36,3.52,0,7,.43,10.44,1.28,3.44.85,6.44,2.08,9,3.68l-4.08,9.76c-2.51-1.44-5.09-2.52-7.76-3.24-2.67-.72-5.23-1.08-7.68-1.08s-4.61.28-6.16.84-2.68,1.32-3.4,2.28c-.72.96-1.08,2.03-1.08,3.2,0,1.49.59,2.69,1.76,3.6,1.17.91,2.72,1.61,4.64,2.12s4.05,1.01,6.4,1.52c2.35.51,4.67,1.13,6.96,1.88,2.29.75,4.4,1.69,6.32,2.84,1.92,1.15,3.48,2.69,4.68,4.64,1.2,1.95,1.8,4.36,1.8,7.24,0,3.15-.87,6.03-2.6,8.64-1.73,2.61-4.36,4.72-7.88,6.32-3.52,1.6-7.92,2.4-13.2,2.4Z" style="fill:#4ec0aa; stroke-width:0px;"/><path d="m951.41,198.21c-4.48,0-8.79-.6-12.92-1.8-4.13-1.2-7.45-2.76-9.96-4.68l4.4-9.76c2.35,1.71,5.17,3.11,8.48,4.2,3.31,1.09,6.64,1.64,10,1.64,2.56,0,4.63-.27,6.2-.8,1.57-.53,2.73-1.24,3.48-2.12.75-.88,1.12-1.91,1.12-3.08,0-1.49-.59-2.68-1.76-3.56-1.17-.88-2.73-1.6-4.68-2.16-1.95-.56-4.07-1.09-6.36-1.6-2.29-.51-4.6-1.12-6.92-1.84-2.32-.72-4.45-1.68-6.4-2.88-1.95-1.2-3.49-2.77-4.64-4.72-1.15-1.95-1.72-4.39-1.72-7.32,0-3.2.85-6.12,2.56-8.76,1.71-2.64,4.31-4.75,7.8-6.32,3.49-1.57,7.88-2.36,13.16-2.36,3.52,0,7,.43,10.44,1.28,3.44.85,6.44,2.08,9,3.68l-4.08,9.76c-2.51-1.44-5.09-2.52-7.76-3.24-2.67-.72-5.23-1.08-7.68-1.08s-4.61.28-6.16.84-2.68,1.32-3.4,2.28c-.72.96-1.08,2.03-1.08,3.2,0,1.49.59,2.69,1.76,3.6,1.17.91,2.72,1.61,4.64,2.12s4.05,1.01,6.4,1.52c2.35.51,4.67,1.13,6.96,1.88,2.29.75,4.4,1.69,6.32,2.84,1.92,1.15,3.48,2.69,4.68,4.64,1.2,1.95,1.8,4.36,1.8,7.24,0,3.15-.87,6.03-2.6,8.64-1.73,2.61-4.36,4.72-7.88,6.32-3.52,1.6-7.92,2.4-13.2,2.4Z" style="fill:#4ec0aa; stroke-width:0px;"/><path d="m992.97,179.73v-10h22.64v10h-22.64Z" style="fill:#4ec0aa; stroke-width:0px;"/><path d="m1066.26,198.21c-4.43,0-8.51-.71-12.24-2.12-3.73-1.41-6.96-3.43-9.68-6.04-2.72-2.61-4.84-5.68-6.36-9.2-1.52-3.52-2.28-7.39-2.28-11.6s.76-8.08,2.28-11.6c1.52-3.52,3.67-6.59,6.44-9.2,2.77-2.61,6.03-4.63,9.76-6.04,3.73-1.41,7.84-2.12,12.32-2.12,4.96,0,9.43.83,13.4,2.48,3.97,1.65,7.32,4.05,10.04,7.2l-8.24,7.68c-2.08-2.19-4.32-3.8-6.72-4.84-2.4-1.04-5.04-1.56-7.92-1.56-2.67,0-5.12.44-7.36,1.32s-4.17,2.12-5.8,3.72c-1.63,1.6-2.88,3.49-3.76,5.68-.88,2.19-1.32,4.61-1.32,7.28s.44,4.95,1.32,7.16c.88,2.21,2.13,4.12,3.76,5.72,1.63,1.6,3.55,2.85,5.76,3.76,2.21.91,4.65,1.36,7.32,1.36s5.05-.43,7.48-1.28c2.43-.85,4.79-2.27,7.08-4.24l7.36,9.36c-3.09,2.35-6.64,4.12-10.64,5.32s-8,1.8-12,1.8Zm22.64-7.12l-11.84-1.76v-20.96h11.84v22.72Z" style="fill:#4ec0aa; stroke-width:0px;"/><path d="m364.82,86.66s1.89-.19,2.12-.21c-9.53,0-16.38,0-16.37,0h-25.49c-.77,0-1.58.13-2.34.23-6.7.85-17.54,3.98-27.35,14.61l-29.66,33.88,21.1,24.15,29.26-33.39s.07-.06.11-.09l21.29-24.55c9.81-10.63,20.65-13.76,27.35-14.61Z" style="fill:#4ec0aa; stroke-width:0px;"/><path d="m346.5,241.58l-13.73-15.83h-.16s-36.37-41.63-36.37-41.63l-.13,28.75c0,10.04,3.81,20.88,10.2,30.98,10.77,10.99,22.54,13.34,28.6,13.72h25.49l-.02-.02h13.49s0-.04,0-.04c-7.53-1.56-17.88-5.63-27.38-15.92Z" style="fill:url(#uuid-ccdb08a0-881a-49c5-baa8-4c689e008007); stroke-width:0px;"/><path d="m316.18,125.82l21.29-24.55c9.81-10.63,20.65-13.76,27.35-14.61,0,0,1.89-.19,2.12-.21-9.53,0-16.38,0-16.37,0h-25.49c-.77,0-1.58.13-2.34.23-2.74.35-6.19,1.09-9.96,2.56-10.11,11.71-16.55,24.95-16.55,35.72l-.11,23.75,19.96-22.78s.07-.06.11-.09Z" style="fill:url(#uuid-893e7822-ec74-45eb-aca9-c5649b56a340); stroke-width:0px;"/><path d="m438.2,131.73h32.4c-1.07-22.63-32.4-45.31-51.09-45.31h-31.03c-27.06,0-54.66,30.09-54.66,49.58l-.3,61.25c.8,28.5,23.87,56.06,56.96,59.97h32.84c23.53-3.85,49.11-21.07,49.11-55.76l-.07-51.79h-68.81v29.68h37.94s.15,11.84.15,17.22c0,20.29-10.67,28.6-25.48,29.14l-21.76-.04c-14.37-.32-29.69-10.68-30.21-26.54l.08-57.27c0-10.12,13.79-23.58,28.94-23.58,0,0,25.78,0,25.86,0,10.98.05,14.04,5.44,19.13,13.45Z" style="fill:#4ec0aa; stroke-width:0px;"/><path d="m384.46,86.48c43.35,0,53.79,45.26,53.79,45.26,0,0-2.15-13.72-19.13-13.55l-24.07.08-10.6-31.79Z" style="fill:url(#uuid-93825a60-557d-4802-9097-bedcce816372); mix-blend-mode:multiply; opacity:.2; stroke-width:0px;"/><path d="m395.88,257.22l27.77-31.79h-60.72c-16.27,0-29.7-12.36-31.41-28.18,1.8,33.36,29.43,59.97,63.23,59.97h1.13Z" style="fill:url(#uuid-55809dd2-93a2-4eb9-9758-c26f98244562); mix-blend-mode:multiply; opacity:.2; stroke-width:0px;"/></g></g></svg>