<?xml version="1.0" encoding="UTF-8"?><svg xmlns="http://www.w3.org/2000/svg" width="16cm" height="8cm" xmlns:xlink="http://www.w3.org/1999/xlink" viewBox="0 0 453.54 226.77"><defs><linearGradient id="uuid-e5b65226-a10e-417f-a1b1-bbc1da08679a" x1="39.34" y1="66.11" x2="259.68" y2="66.11" gradientUnits="userSpaceOnUse"><stop offset="0" stop-color="#fff" stop-opacity="0"/><stop offset=".19" stop-color="#fdfefe" stop-opacity="0"/><stop offset=".22" stop-color="#fdfefe" stop-opacity="0"/><stop offset=".4" stop-color="#c9cbce" stop-opacity=".22"/><stop offset=".69" stop-color="#3c444c" stop-opacity=".83"/><stop offset=".76" stop-color="#151e28"/></linearGradient><linearGradient id="uuid-2e197c6f-de05-4aff-b065-5bded79ba767" x1="442.2" y1="47.56" x2="295.34" y2="47.56" xlink:href="#uuid-e5b65226-a10e-417f-a1b1-bbc1da08679a"/><linearGradient id="uuid-15d3de36-7871-4fc4-a2ef-e565aa9686fd" x1="420.25" y1="183.04" x2="314.62" y2="183.04" xlink:href="#uuid-e5b65226-a10e-417f-a1b1-bbc1da08679a"/><linearGradient id="uuid-0395304c-efc6-4d21-8da9-78d9a45cbbf7" x1="188.93" y1="168.62" x2="80.28" y2="168.62" xlink:href="#uuid-e5b65226-a10e-417f-a1b1-bbc1da08679a"/></defs><g style="isolation:isolate;"><g id="uuid-c7df604e-71b3-4905-a9a9-4514fad5f7a9"><path d="m365.51,78.83h-41.9c-4.78.14-10.9,1.82-17.51,8.78l-15.27,17.89h51.68l23-26.67Z" style="fill:#fff; stroke-width:0px;"/><path d="m163.78,166.82h-60.72c-17.43,0-31.61-14.18-31.61-31.61v-11.86h64.53v-31.79h-64.53v-.3c0-17.43,14.18-31.61,31.61-31.61h82.73l31.48,36.03,23.23-21.73-26.3-30.11c-11.32-13.02-24.3-15.58-30.78-15.99h-80.36c-34.96,0-63.4,28.44-63.4,63.4v43.95c0,34.96,28.44,63.4,63.4,63.4h32.94l27.77-31.79Z" style="fill:#fff; stroke-width:0px;"/><g style="opacity:.4;"><path d="m214.19,43.84c-11.31-13.01-24.3-15.57-30.77-15.98h-80.36c-34.96,0-63.4,28.44-63.4,63.4v13.1l31.79-12.8v-.3c0-17.43,14.18-31.61,31.61-31.61h82.73l31.48,36.03,23.23-21.73-26.31-30.11Z" style="fill:url(#uuid-e5b65226-a10e-417f-a1b1-bbc1da08679a); mix-blend-mode:multiply; stroke-width:0px;"/></g><path d="m413.86,27.83s-73.74.02-73.72,0c0,0-25.48,0-25.49,0-.77,0-1.58.13-2.34.23-6.7.85-17.54,3.98-27.35,14.61l-29.66,33.88,21.1,24.15,29.26-33.39c5.47-4.64,10.52-7.36,15.3-7.66l65.48-.02,27.42-31.79Z" style="fill:#fff; stroke-width:0px;"/><path d="m413.89,27.83h-28.48s0,0,0,0h-28.88c-.12.02-2.15.22-2.15.22-6.7.85-17.54,3.98-27.35,14.61l-21.36,24.63c5.47-4.64,10.52-7.31,15.3-7.66l65.48-.02,27.41-31.78Z" style="fill:url(#uuid-2e197c6f-de05-4aff-b065-5bded79ba767); mix-blend-mode:multiply; opacity:.2; stroke-width:0px;"/><path d="m372.47,198.94l27.41-31.78-77.98-.03-39.85-45.61-.04.04-68.9-78.87c-11.05-11.98-23.42-14.44-29.69-14.84h-25.49l67.64,77.42.04-.04,68.9,78.87c11.06,11.98,23.42,14.44,29.69,14.84h25.49l-.02-.02,22.8.02Z" style="fill:#fff; stroke-width:0px;"/><path d="m399.89,167.17l-77.82-.03,13.73,15.83c9.59,10.39,20.05,14.44,27.6,15.97h9.08s27.41-31.77,27.41-31.77Z" style="fill:url(#uuid-15d3de36-7871-4fc4-a2ef-e565aa9686fd); mix-blend-mode:multiply; opacity:.2; stroke-width:0px;"/><path d="m216.06,121.56l-.04-.04-67.64,77.42h25.49c5.39,0,18.64-2.86,29.69-14.84l39.94-45-21.08-24.13-6.35,6.59Z" style="fill:#fff; stroke-width:0px;"/><path d="m136,198.61l27.77-31.79h-60.72c-16.27,0-29.7-12.36-31.41-28.18,1.8,33.36,29.43,59.97,63.23,59.97h1.13Z" style="fill:url(#uuid-0395304c-efc6-4d21-8da9-78d9a45cbbf7); mix-blend-mode:multiply; opacity:.2; stroke-width:0px;"/></g></g></svg>