<?xml version="1.0" encoding="UTF-8"?><svg xmlns="http://www.w3.org/2000/svg" width="40.82cm" height="11.92cm" xmlns:xlink="http://www.w3.org/1999/xlink" viewBox="0 0 1157.08 338"><defs><linearGradient id="uuid-7c02d728-3ff4-4f71-bc74-9e2dd38dbb45" x1="28.46" y1="143.54" x2="248.8" y2="143.54" gradientUnits="userSpaceOnUse"><stop offset="0" stop-color="#fff" stop-opacity="0"/><stop offset=".19" stop-color="#feffff" stop-opacity="0"/><stop offset=".22" stop-color="#feffff" stop-opacity="0"/><stop offset=".4" stop-color="#c9cece" stop-opacity=".22"/><stop offset=".69" stop-color="#3c4c49" stop-opacity=".83"/><stop offset=".76" stop-color="#152824"/></linearGradient><linearGradient id="uuid-b8d3ba02-dfd3-4136-a547-ebfc52a35d29" x1="178.06" y1="246.05" x2="69.41" y2="246.05" xlink:href="#uuid-7c02d728-3ff4-4f71-bc74-9e2dd38dbb45"/><linearGradient id="uuid-b6c39ed8-5605-4987-aa61-88a6e2ef8c3e" x1="274.81" y1="239.65" x2="354.47" y2="239.65" gradientUnits="userSpaceOnUse"><stop offset="0" stop-color="#fff" stop-opacity="0"/><stop offset=".98" stop-color="#151e28" stop-opacity=".3"/></linearGradient><linearGradient id="uuid-ae63dae5-a499-49d2-9841-fb8c86d9eb7a" x1="274.53" y1="136.39" x2="354.19" y2="136.39" xlink:href="#uuid-b6c39ed8-5605-4987-aa61-88a6e2ef8c3e"/><linearGradient id="uuid-7adf9194-75e6-4962-9591-e44828950591" x1="977.31" y1="127.92" x2="900.82" y2="127.92" gradientTransform="translate(1284.31) rotate(-180) scale(.95 -1)" gradientUnits="userSpaceOnUse"><stop offset="0" stop-color="#fff" stop-opacity="0"/><stop offset=".19" stop-color="#fdfefe" stop-opacity="0"/><stop offset=".22" stop-color="#fdfefe" stop-opacity="0"/><stop offset=".4" stop-color="#c9cbce" stop-opacity=".22"/><stop offset=".69" stop-color="#3c444c" stop-opacity=".83"/><stop offset=".76" stop-color="#151e28"/></linearGradient><linearGradient id="uuid-7c912ff4-f6d1-4cd3-9203-38d3f399b1a9" x1="343.71" y1="323.7" x2="237.82" y2="323.7" gradientTransform="translate(82.82 -77.65)" xlink:href="#uuid-7c02d728-3ff4-4f71-bc74-9e2dd38dbb45"/></defs><g style="isolation:isolate;"><g id="uuid-b634545b-64d8-428e-9ae4-e2c1d13b1a95"><path d="m542.58,197.25v-56h42.32v10.4h-29.44v35.2h30.48v10.4h-43.36Zm11.92-23.36v-10.16h26.96v10.16h-26.96Z" style="fill:#ed1c24; stroke-width:0px;"/><path d="m602.09,197.25l24-33.2v9.44l-22.96-32.24h14.64l15.92,22.4-6.24.16,15.84-22.56h14l-22.88,31.68v-9.28l24.24,33.6h-14.96l-16.48-23.76h5.92l-16.24,23.76h-14.8Z" style="fill:#ed1c24; stroke-width:0px;"/><path d="m674.82,197.25v-56h24.24c5.01,0,9.33.81,12.96,2.44,3.63,1.63,6.43,3.96,8.4,7,1.97,3.04,2.96,6.64,2.96,10.8s-.99,7.83-2.96,10.84c-1.97,3.01-4.77,5.35-8.4,7-3.63,1.65-7.95,2.48-12.96,2.48h-17.12l5.92-5.84v21.28h-13.04Zm13.04-19.84l-5.92-6.16h16.4c3.95,0,6.93-.85,8.96-2.56,2.03-1.71,3.04-4.11,3.04-7.2s-1.01-5.48-3.04-7.16c-2.03-1.68-5.01-2.52-8.96-2.52h-16.4l5.92-6.16v31.76Z" style="fill:#ed1c24; stroke-width:0px;"/><path d="m741.37,197.25v-56h23.92c7.79,0,13.84,1.8,18.16,5.4,4.32,3.6,6.48,8.55,6.48,14.84,0,4.21-.99,7.83-2.96,10.84-1.97,3.01-4.77,5.31-8.4,6.88-3.63,1.57-7.95,2.36-12.96,2.36h-17.12l5.92-5.6v21.28h-13.04Zm13.04-19.84l-5.92-6.16h16.4c3.95,0,6.93-.85,8.96-2.56,2.03-1.71,3.04-4.11,3.04-7.2s-1.01-5.48-3.04-7.16c-2.03-1.68-5.01-2.52-8.96-2.52h-16.4l5.92-6.16v31.76Zm22.64,19.84l-14.08-20.32h13.92l14.08,20.32h-13.92Z" style="fill:#ed1c24; stroke-width:0px;"/><path d="m809.57,197.25v-56h42.32v10.4h-29.44v35.2h30.48v10.4h-43.36Zm11.92-23.36v-10.16h26.96v10.16h-26.96Z" style="fill:#ed1c24; stroke-width:0px;"/><path d="m889.83,198.21c-4.48,0-8.79-.6-12.92-1.8-4.13-1.2-7.45-2.76-9.96-4.68l4.4-9.76c2.35,1.71,5.17,3.11,8.48,4.2,3.31,1.09,6.64,1.64,10,1.64,2.56,0,4.63-.27,6.2-.8,1.57-.53,2.73-1.24,3.48-2.12.75-.88,1.12-1.91,1.12-3.08,0-1.49-.59-2.68-1.76-3.56-1.17-.88-2.73-1.6-4.68-2.16-1.95-.56-4.07-1.09-6.36-1.6-2.29-.51-4.6-1.12-6.92-1.84-2.32-.72-4.45-1.68-6.4-2.88-1.95-1.2-3.49-2.77-4.64-4.72-1.15-1.95-1.72-4.39-1.72-7.32,0-3.2.85-6.12,2.56-8.76,1.71-2.64,4.31-4.75,7.8-6.32,3.49-1.57,7.88-2.36,13.16-2.36,3.52,0,7,.43,10.44,1.28,3.44.85,6.44,2.08,9,3.68l-4.08,9.76c-2.51-1.44-5.09-2.52-7.76-3.24-2.67-.72-5.23-1.08-7.68-1.08s-4.61.28-6.16.84c-1.55.56-2.68,1.32-3.4,2.28-.72.96-1.08,2.03-1.08,3.2,0,1.49.59,2.69,1.76,3.6,1.17.91,2.72,1.61,4.64,2.12,1.92.51,4.05,1.01,6.4,1.52,2.35.51,4.67,1.13,6.96,1.88,2.29.75,4.4,1.69,6.32,2.84,1.92,1.15,3.48,2.69,4.68,4.64s1.8,4.36,1.8,7.24c0,3.15-.87,6.03-2.6,8.64-1.73,2.61-4.36,4.72-7.88,6.32-3.52,1.6-7.92,2.4-13.2,2.4Z" style="fill:#ed1c24; stroke-width:0px;"/><path d="m951.41,198.21c-4.48,0-8.79-.6-12.92-1.8-4.13-1.2-7.45-2.76-9.96-4.68l4.4-9.76c2.35,1.71,5.17,3.11,8.48,4.2,3.31,1.09,6.64,1.64,10,1.64,2.56,0,4.63-.27,6.2-.8,1.57-.53,2.73-1.24,3.48-2.12.75-.88,1.12-1.91,1.12-3.08,0-1.49-.59-2.68-1.76-3.56-1.17-.88-2.73-1.6-4.68-2.16-1.95-.56-4.07-1.09-6.36-1.6-2.29-.51-4.6-1.12-6.92-1.84-2.32-.72-4.45-1.68-6.4-2.88-1.95-1.2-3.49-2.77-4.64-4.72-1.15-1.95-1.72-4.39-1.72-7.32,0-3.2.85-6.12,2.56-8.76,1.71-2.64,4.31-4.75,7.8-6.32,3.49-1.57,7.88-2.36,13.16-2.36,3.52,0,7,.43,10.44,1.28,3.44.85,6.44,2.08,9,3.68l-4.08,9.76c-2.51-1.44-5.09-2.52-7.76-3.24-2.67-.72-5.23-1.08-7.68-1.08s-4.61.28-6.16.84c-1.55.56-2.68,1.32-3.4,2.28-.72.96-1.08,2.03-1.08,3.2,0,1.49.59,2.69,1.76,3.6,1.17.91,2.72,1.61,4.64,2.12,1.92.51,4.05,1.01,6.4,1.52,2.35.51,4.67,1.13,6.96,1.88,2.29.75,4.4,1.69,6.32,2.84,1.92,1.15,3.48,2.69,4.68,4.64s1.8,4.36,1.8,7.24c0,3.15-.87,6.03-2.6,8.64-1.73,2.61-4.36,4.72-7.88,6.32-3.52,1.6-7.92,2.4-13.2,2.4Z" style="fill:#ed1c24; stroke-width:0px;"/><path d="m992.97,179.73v-10h22.64v10h-22.64Z" style="fill:#ed1c24; stroke-width:0px;"/><path d="m1066.34,198.21c-4.37,0-8.43-.72-12.16-2.16-3.73-1.44-6.99-3.47-9.76-6.08-2.77-2.61-4.92-5.68-6.44-9.2-1.52-3.52-2.28-7.36-2.28-11.52s.76-8.07,2.28-11.56c1.52-3.49,3.67-6.55,6.44-9.16,2.77-2.61,6.01-4.64,9.72-6.08,3.71-1.44,7.77-2.16,12.2-2.16s8.49.71,12.2,2.12c3.71,1.41,6.95,3.43,9.72,6.04,2.77,2.61,4.92,5.68,6.44,9.2,1.52,3.52,2.28,7.39,2.28,11.6s-.76,8.01-2.28,11.56c-1.52,3.55-3.67,6.63-6.44,9.24-2.77,2.61-6.01,4.63-9.72,6.04-3.71,1.41-7.77,2.12-12.2,2.12Zm0-10.96c2.51,0,4.81-.44,6.92-1.32,2.11-.88,3.96-2.12,5.56-3.72,1.6-1.6,2.84-3.51,3.72-5.72.88-2.21,1.32-4.63,1.32-7.24s-.44-5.09-1.32-7.28c-.88-2.19-2.12-4.08-3.72-5.68-1.6-1.6-3.45-2.84-5.56-3.72-2.11-.88-4.41-1.32-6.92-1.32s-4.83.44-6.96,1.32c-2.13.88-3.99,2.12-5.56,3.72-1.57,1.6-2.8,3.49-3.68,5.68-.88,2.19-1.32,4.61-1.32,7.28s.44,5.03,1.32,7.24c.88,2.21,2.11,4.12,3.68,5.72,1.57,1.6,3.43,2.84,5.56,3.72,2.13.88,4.45,1.32,6.96,1.32Zm18.32,22.88c-2.19,0-4.25-.25-6.2-.76-1.95-.51-3.87-1.29-5.76-2.36-1.89-1.07-3.85-2.49-5.88-4.28-2.03-1.79-4.29-4.01-6.8-6.68l13.68-3.44c1.44,1.97,2.77,3.55,4,4.72,1.23,1.17,2.41,2.01,3.56,2.52,1.15.51,2.36.76,3.64.76,3.41,0,6.45-1.41,9.12-4.24l5.76,6.88c-3.79,4.59-8.83,6.88-15.12,6.88Z" style="fill:#ed1c24; stroke-width:0px;"/><path d="m152.9,244.25h-60.72c-17.43,0-31.61-14.18-31.61-31.61v-11.86h64.53v-31.79H60.58v-.3c0-17.43,14.18-31.61,31.61-31.61h82.73l31.48,36.03,23.23-21.73-26.3-30.11c-11.32-13.02-24.3-15.58-30.78-15.99h-80.36c-34.96,0-63.4,28.44-63.4,63.4v43.95c0,34.96,28.44,63.4,63.4,63.4h32.94l27.77-31.79Z" style="fill:#ed1c24; stroke-width:0px;"/><g style="opacity:.5;"><path d="m203.31,121.27c-11.31-13.01-24.3-15.57-30.77-15.98h-80.36c-34.96,0-63.4,28.44-63.4,63.4v13.1l31.79-12.8v-.3c0-17.43,14.18-31.61,31.61-31.61h82.73l31.48,36.03,23.23-21.73-26.31-30.11Z" style="fill:url(#uuid-7c02d728-3ff4-4f71-bc74-9e2dd38dbb45); mix-blend-mode:multiply; stroke-width:0px;"/></g><path d="m324.92,260.4l-13.73-15.83h-.16s-39.85-45.61-39.85-45.61l-.04.04-68.9-78.87c-11.05-11.98-23.42-14.44-29.69-14.84h-25.49l67.64,77.42.04-.04,68.9,78.87c11.06,11.98,23.42,14.44,29.69,14.84h25.49l-.02-.02h13.72c-7.55-1.51-18.01-5.56-27.6-15.95Z" style="fill:#ed1c24; stroke-width:0px;"/><path d="m205.18,198.99l-.04-.04-67.64,77.42h25.49c5.39,0,18.64-2.86,29.69-14.84l39.94-45-21.08-24.13-6.35,6.59Z" style="fill:#ed1c24; stroke-width:0px;"/><path d="m125.13,276.04l27.77-31.79h-60.72c-16.27,0-29.7-12.36-31.41-28.18,1.8,33.36,29.43,59.97,63.23,59.97h1.13Z" style="fill:url(#uuid-b8d3ba02-dfd3-4136-a547-ebfc52a35d29); mix-blend-mode:multiply; opacity:.2; stroke-width:0px;"/><path d="m343.52,105.48s1.89-.19,2.12-.21c-9.53,0-16.38,0-16.37,0h-25.49c-.77,0-1.58.13-2.34.23-6.7.85-17.54,3.98-27.35,14.61l-29.66,33.88,21.1,24.15,29.26-33.39s.07-.06.11-.09l21.29-24.55c9.81-10.63,20.65-13.76,27.35-14.61Z" style="fill:#ed1c24; stroke-width:0px;"/><path d="m325.2,260.4l-13.73-15.83h-.16s-36.37-41.63-36.37-41.63l-.13,28.75c0,10.04,3.81,20.88,10.2,30.98,10.77,10.99,22.54,13.34,28.6,13.72h25.49l-.02-.02h13.49s0-.04,0-.04c-7.53-1.56-17.88-5.63-27.38-15.92Z" style="fill:url(#uuid-b6c39ed8-5605-4987-aa61-88a6e2ef8c3e); stroke-width:0px;"/><path d="m294.89,144.64l21.29-24.55c9.81-10.63,20.65-13.76,27.35-14.61,0,0,1.89-.19,2.12-.21-9.53,0-16.38,0-16.37,0h-25.49c-.77,0-1.58.13-2.34.23-2.74.35-6.19,1.09-9.96,2.56-10.11,11.71-16.55,24.95-16.55,35.72l-.11,23.75,19.96-22.78s.07-.06.11-.09Z" style="fill:url(#uuid-ae63dae5-a499-49d2-9841-fb8c86d9eb7a); stroke-width:0px;"/><path d="m419.32,150.55s-5.91-12.32-19.13-13.55l-24.07.08-10.6-31.79c43.35,0,53.79,45.26,53.79,45.26" style="fill:url(#uuid-7adf9194-75e6-4962-9591-e44828950591); mix-blend-mode:multiply; opacity:.2; stroke-width:0px;"/><polygon points="422.08 270.07 421.54 269.52 421.54 269.52 422.08 270.07 429.47 277.45 472.28 278.29 472.28 278.29 429.47 277.45 422.08 270.07" style="fill:none; stroke-width:0px;"/><path d="m382.38,244.51l-9.28-.02c-14.37-.32-29.69-10.69-30.21-26.54l.08-57.27c0-10.12,13.79-23.58,28.94-23.58,0,0,25.78,0,25.86,0,10.98.05,16.46,5.44,21.55,13.45l.1.12s-.14,42.24-.19,60.43l6.95,6.95,20.57,20.57c1.54-5.33,2.4-11.27,2.4-17.86l.13-70.23h.01v-4.01c-1.07-22.63-32.4-41.29-51.09-41.29h-31.03c-27.06,0-54.66,30.09-54.66,49.58l-.3,61.25c.8,28.5,23.87,56.06,56.96,59.97h32.84c3.21-.53,6.42-1.3,9.57-2.32l-22.21-22.21-7-7Z" style="fill:#ed1c24; stroke-width:0px;"/><polygon points="443.11 249.13 472.28 278.29 472.28 278.29 443.11 249.13 442.68 248.7 442.68 248.7 443.11 249.13" style="fill:#fff; stroke-width:0px;"/><path d="m413.68,237.15c.9-.96,1.72-2.04,2.44-3.24-.72,1.2-1.54,2.27-2.44,3.24Z" style="fill:#fff; stroke-width:0px;"/><path d="m443.11,249.13l-.43-.43-23.57-23.57c-.51,3.49-1.56,6.39-3,8.79-.72,1.2-1.54,2.27-2.44,3.24-2.7,2.88-6.11,4.74-9.76,5.88-.71.22-1.43.41-2.16.58-1.73.43-3.5.69-5.27.83-.01,0-.02,0-.03,0l25.08,25.08.55.55,7.38,7.38,42.82.84-29.17-29.17Z" style="fill:#ed1c24; stroke-width:0px;"/><path d="m402.02,276.04l-19.64-31.53-37.27-.26c-16.87.19-31.17-12.36-32.89-28.18,1.8,33.36,28.27,59.97,64.7,59.97h25.09Z" style="fill:url(#uuid-7c912ff4-f6d1-4cd3-9203-38d3f399b1a9); mix-blend-mode:multiply; opacity:.2; stroke-width:0px;"/><path d="m419.32,150.55s-6.96-14.08-21.55-13.45h-21.64s-10.6-31.8-10.6-31.8c43.35,0,53.79,45.26,53.79,45.26" style="fill:url(#uuid-7adf9194-75e6-4962-9591-e44828950591); mix-blend-mode:multiply; opacity:.2; stroke-width:0px;"/></g></g></svg>