<?xml version="1.0" encoding="UTF-8"?><svg xmlns="http://www.w3.org/2000/svg" width="16cm" height="8cm" xmlns:xlink="http://www.w3.org/1999/xlink" viewBox="0 0 453.54 226.77"><defs><linearGradient id="uuid-b3e345dc-e61b-480b-b650-1f61a2fa9c48" x1="15.28" y1="66.11" x2="235.62" y2="66.11" gradientUnits="userSpaceOnUse"><stop offset="0" stop-color="#fff" stop-opacity="0"/><stop offset=".19" stop-color="#feffff" stop-opacity="0"/><stop offset=".22" stop-color="#feffff" stop-opacity="0"/><stop offset=".4" stop-color="#c9cece" stop-opacity=".22"/><stop offset=".69" stop-color="#3c4c49" stop-opacity=".83"/><stop offset=".76" stop-color="#152824"/></linearGradient><linearGradient id="uuid-6fae2f1f-820c-47dc-8918-da55437973c0" x1="164.88" y1="168.63" x2="56.23" y2="168.63" xlink:href="#uuid-b3e345dc-e61b-480b-b650-1f61a2fa9c48"/><linearGradient id="uuid-b649665e-f889-48cb-9477-de32fd37e19b" x1="261.63" y1="162.23" x2="341.29" y2="162.23" gradientUnits="userSpaceOnUse"><stop offset="0" stop-color="#fff" stop-opacity="0"/><stop offset=".98" stop-color="#151e28" stop-opacity=".3"/></linearGradient><linearGradient id="uuid-b317e70c-40af-4fd9-bc13-d42763018e50" x1="261.35" y1="58.96" x2="341" y2="58.96" xlink:href="#uuid-b649665e-f889-48cb-9477-de32fd37e19b"/><linearGradient id="uuid-78097884-615b-4a7a-a8b5-3b4b28b53b61" x1="-1671.66" y1="50.5" x2="-1748.15" y2="50.5" gradientTransform="translate(-1259.7) rotate(-180) scale(.95 -1)" gradientUnits="userSpaceOnUse"><stop offset="0" stop-color="#fff" stop-opacity="0"/><stop offset=".19" stop-color="#fdfefe" stop-opacity="0"/><stop offset=".22" stop-color="#fdfefe" stop-opacity="0"/><stop offset=".4" stop-color="#c9cbce" stop-opacity=".22"/><stop offset=".69" stop-color="#3c444c" stop-opacity=".83"/><stop offset=".76" stop-color="#151e28"/></linearGradient><linearGradient id="uuid-12bda5fe-001d-42eb-80b8-1c61c3d09f74" x1="414.33" y1="168.63" x2="305.68" y2="168.63" xlink:href="#uuid-b3e345dc-e61b-480b-b650-1f61a2fa9c48"/></defs><g style="isolation:isolate;"><g id="uuid-f74d9b3a-6b52-4cd5-adb0-99387beb0200"><path d="m139.72,166.82h-60.72c-17.43,0-31.61-14.18-31.61-31.61v-11.86h64.53v-31.79H47.39v-.3c0-17.43,14.18-31.61,31.61-31.61h82.73l31.48,36.03,23.23-21.73-26.3-30.11c-11.32-13.02-24.3-15.58-30.78-15.99h-80.36c-34.96,0-63.4,28.44-63.4,63.4v43.95c0,34.96,28.44,63.4,63.4,63.4h32.94l27.77-31.79Z" style="fill:#4ec0aa; stroke-width:0px;"/><g style="opacity:.5;"><path d="m190.13,43.85c-11.31-13.01-24.3-15.57-30.77-15.98h-80.36c-34.96,0-63.4,28.44-63.4,63.4v13.1l31.79-12.8v-.3c0-17.43,14.18-31.61,31.61-31.61h82.73l31.48,36.03,23.23-21.73-26.31-30.11Z" style="fill:url(#uuid-b3e345dc-e61b-480b-b650-1f61a2fa9c48); mix-blend-mode:multiply; stroke-width:0px;"/></g><path d="m311.74,182.97l-13.73-15.83h-.16s-39.85-45.61-39.85-45.61l-.04.04-68.9-78.87c-11.05-11.98-23.42-14.44-29.69-14.84h-25.49l67.64,77.42.04-.04,68.9,78.87c11.06,11.98,23.42,14.44,29.69,14.84h25.49l-.02-.02h13.72c-7.55-1.51-18.01-5.56-27.6-15.95Z" style="fill:#4ec0aa; stroke-width:0px;"/><path d="m192,121.57l-.04-.04-67.64,77.42h25.49c5.39,0,18.64-2.86,29.69-14.84l39.94-45-21.08-24.13-6.35,6.59Z" style="fill:#4ec0aa; stroke-width:0px;"/><path d="m111.95,198.61l27.77-31.79h-60.72c-16.27,0-29.7-12.36-31.41-28.18,1.8,33.36,29.43,59.97,63.23,59.97h1.13Z" style="fill:url(#uuid-6fae2f1f-820c-47dc-8918-da55437973c0); mix-blend-mode:multiply; opacity:.2; stroke-width:0px;"/><path d="m330.34,28.05s1.89-.19,2.12-.21c-9.53,0-16.38,0-16.37,0h-25.49c-.77,0-1.58.13-2.34.23-6.7.85-17.54,3.98-27.35,14.61l-29.66,33.88,21.1,24.15,29.26-33.39s.07-.06.11-.09l21.29-24.55c9.81-10.63,20.65-13.76,27.35-14.61Z" style="fill:#4ec0aa; stroke-width:0px;"/><path d="m312.02,182.97l-13.73-15.83h-.16s-36.37-41.63-36.37-41.63l-.13,28.75c0,10.04,3.81,20.88,10.2,30.98,10.77,10.99,22.54,13.34,28.6,13.72h25.49l-.02-.02h13.49s0-.04,0-.04c-7.53-1.56-17.88-5.63-27.38-15.92Z" style="fill:url(#uuid-b649665e-f889-48cb-9477-de32fd37e19b); stroke-width:0px;"/><path d="m281.7,67.21l21.29-24.55c9.81-10.63,20.65-13.76,27.35-14.61,0,0,1.89-.19,2.12-.21-9.53,0-16.38,0-16.37,0h-25.49c-.77,0-1.58.13-2.34.23-2.74.35-6.19,1.09-9.96,2.56-10.11,11.71-16.55,24.95-16.55,35.72l-.11,23.75,19.96-22.78s.07-.06.11-.09Z" style="fill:url(#uuid-b317e70c-40af-4fd9-bc13-d42763018e50); stroke-width:0px;"/><path d="m403.72,73.13h32.4c-1.07-22.63-32.4-45.31-51.09-45.31h-31.03c-27.06,0-54.66,30.09-54.66,49.58l-.3,61.25c.8,28.5,23.87,56.06,56.96,59.97h32.84c23.53-3.85,49.11-21.07,49.11-55.76l-.07-51.79h-68.81v29.68h37.94s.15,11.84.15,17.22c0,20.29-10.67,28.6-25.48,29.14l-21.76-.04c-14.37-.32-29.69-10.68-30.21-26.54l.08-57.27c0-10.12,13.79-23.58,28.94-23.58,0,0,25.78,0,25.86,0,10.98.05,14.04,5.44,19.13,13.45Z" style="fill:#4ec0aa; stroke-width:0px;"/><path d="m349.99,27.87c43.35,0,53.79,45.26,53.79,45.26,0,0-2.15-13.72-19.13-13.55l-24.07.08-10.6-31.79Z" style="fill:url(#uuid-78097884-615b-4a7a-a8b5-3b4b28b53b61); mix-blend-mode:multiply; opacity:.2; stroke-width:0px;"/><path d="m361.4,198.61l27.77-31.79h-60.72c-16.27,0-29.7-12.36-31.41-28.18,1.8,33.36,29.43,59.97,63.23,59.97h1.13Z" style="fill:url(#uuid-12bda5fe-001d-42eb-80b8-1c61c3d09f74); mix-blend-mode:multiply; opacity:.2; stroke-width:0px;"/></g></g></svg>