<?xml version="1.0" encoding="UTF-8"?><svg xmlns="http://www.w3.org/2000/svg" width="16cm" height="8cm" xmlns:xlink="http://www.w3.org/1999/xlink" viewBox="0 0 453.54 226.77"><defs><linearGradient id="uuid-28cc18b6-d9e1-49ad-abe1-36455c254572" x1="36.32" y1="66.11" x2="256.66" y2="66.11" gradientUnits="userSpaceOnUse"><stop offset="0" stop-color="#fff" stop-opacity="0"/><stop offset=".19" stop-color="#feffff" stop-opacity="0"/><stop offset=".22" stop-color="#feffff" stop-opacity="0"/><stop offset=".4" stop-color="#c9cece" stop-opacity=".22"/><stop offset=".69" stop-color="#3c4c49" stop-opacity=".83"/><stop offset=".76" stop-color="#152824"/></linearGradient><linearGradient id="uuid-72eeae26-5629-4524-8b7c-5d2f5b7c0457" x1="185.92" y1="168.62" x2="77.27" y2="168.62" xlink:href="#uuid-28cc18b6-d9e1-49ad-abe1-36455c254572"/></defs><g style="isolation:isolate;"><g id="uuid-5112ffdc-f6c8-4a15-9370-9ff71889b00b"><path d="m160.76,166.82h-60.72c-17.43,0-31.61-14.18-31.61-31.61v-11.86h64.53v-31.79h-64.53v-.3c0-17.43,14.18-31.61,31.61-31.61h82.73l31.48,36.03,23.23-21.73-26.3-30.11c-11.32-13.02-24.3-15.58-30.78-15.99h-80.36c-34.96,0-63.4,28.44-63.4,63.4v43.95c0,34.96,28.44,63.4,63.4,63.4h32.94l27.77-31.79Z" style="fill:#077783; stroke-width:0px;"/><g style="opacity:.5;"><path d="m211.17,43.84c-11.31-13.01-24.3-15.57-30.77-15.98h-80.36c-34.96,0-63.4,28.44-63.4,63.4v13.1l31.79-12.8v-.3c0-17.43,14.18-31.61,31.61-31.61h82.73l31.48,36.03,23.23-21.73-26.31-30.11Z" style="fill:url(#uuid-28cc18b6-d9e1-49ad-abe1-36455c254572); mix-blend-mode:multiply; stroke-width:0px;"/></g><path d="m332.78,182.97l-13.73-15.83h-.16s-39.85-45.61-39.85-45.61l-.04.04-68.9-78.87c-11.05-11.98-23.42-14.44-29.69-14.84h-25.49l67.64,77.42.04-.04,68.9,78.87c11.06,11.98,23.42,14.44,29.69,14.84h25.49l-.02-.02h13.72c-7.55-1.51-18.01-5.56-27.6-15.95Z" style="fill:#077783; stroke-width:0px;"/><path d="m132.99,198.61l27.77-31.79h-60.72c-16.27,0-29.7-12.36-31.41-28.18,1.8,33.36,29.43,59.97,63.23,59.97h1.13Z" style="fill:url(#uuid-72eeae26-5629-4524-8b7c-5d2f5b7c0457); mix-blend-mode:multiply; opacity:.2; stroke-width:0px;"/><path d="m387.82,182.97l-13.73-15.83h-.16s-39.85-45.61-39.85-45.61l-.04.04-68.9-78.87c-11.05-11.98-23.42-14.44-29.69-14.84h-25.49l67.64,77.42.04-.04,68.9,78.87c11.06,11.98,23.42,14.44,29.69,14.84h25.49l-.02-.02h13.72c-7.55-1.51-18.01-5.56-27.6-15.95Z" style="fill:#87a4a5; stroke-width:0px;"/><path d="m414.79,28.05s1.89-.19,2.12-.21c-9.53,0-16.38,0-16.37,0h-25.49c-.77,0-1.58.13-2.34.23-6.7.85-17.54,3.98-27.35,14.61l-33.66,37.88,21.1,24.15,33.26-37.39s.07-.06.11-.09l21.29-24.55c9.81-10.63,20.65-13.76,27.35-14.61Z" style="fill:#87a4a5; stroke-width:0px;"/><path d="m213.04,121.56l-.04-.04-67.64,77.42h25.49c5.39,0,18.64-2.86,29.69-14.84l39.94-45-21.08-24.13-6.35,6.59Z" style="fill:#077783; stroke-width:0px;"/><path d="m201.55,198.94h25.34c5.39,0,18.64-2.86,29.69-14.84l11.08-14.12-21.14-24.19-44.98,53.15Z" style="fill:#87a4a5; stroke-width:0px;"/><path d="m295.63,36.59l-12.96,13.54,20.86,22.89,27.39-30.36c9.81-10.63,20.65-13.76,27.35-14.61,0,0,1.89-.19,2.12-.21-9.53,0-16.38,0-16.37,0h-25.49c-.77,0-1.58.13-2.34.23-5.18.66-12.84,2.7-20.58,8.49.01.01.03.03.04.04Z" style="fill:#077783; stroke-width:0px;"/></g></g></svg>