<?xml version="1.0" encoding="UTF-8"?><svg xmlns="http://www.w3.org/2000/svg" width="16cm" height="8cm" xmlns:xlink="http://www.w3.org/1999/xlink" viewBox="0 0 453.54 226.77"><defs><linearGradient id="uuid-8ad87c74-75f4-49d9-81d3-1c441e8e11df" x1="4.7" y1="65.15" x2="225.04" y2="65.15" gradientUnits="userSpaceOnUse"><stop offset="0" stop-color="#fff" stop-opacity="0"/><stop offset=".19" stop-color="#feffff" stop-opacity="0"/><stop offset=".22" stop-color="#feffff" stop-opacity="0"/><stop offset=".4" stop-color="#c9cece" stop-opacity=".22"/><stop offset=".69" stop-color="#3c4c49" stop-opacity=".83"/><stop offset=".76" stop-color="#152824"/></linearGradient><linearGradient id="uuid-0de2ad13-cfa9-4948-9884-f3198afaab90" x1="154.3" y1="167.67" x2="45.65" y2="167.67" xlink:href="#uuid-8ad87c74-75f4-49d9-81d3-1c441e8e11df"/><linearGradient id="uuid-34502a39-37bb-4f1f-aa0a-17077442f33f" x1="251.05" y1="161.27" x2="330.71" y2="161.27" gradientUnits="userSpaceOnUse"><stop offset="0" stop-color="#fff" stop-opacity="0"/><stop offset=".98" stop-color="#151e28" stop-opacity=".3"/></linearGradient><linearGradient id="uuid-0114fc2d-4d0e-4d94-a23b-c5696685319c" x1="250.77" y1="58" x2="330.43" y2="58" xlink:href="#uuid-34502a39-37bb-4f1f-aa0a-17077442f33f"/><linearGradient id="uuid-fa110102-dc8e-4452-b916-a8f0f6b8cbe3" x1="-1709.93" y1="49.54" x2="-1786.42" y2="49.54" gradientTransform="translate(-1304.44) rotate(-180) scale(.95 -1)" gradientUnits="userSpaceOnUse"><stop offset="0" stop-color="#fff" stop-opacity="0"/><stop offset=".19" stop-color="#fdfefe" stop-opacity="0"/><stop offset=".22" stop-color="#fdfefe" stop-opacity="0"/><stop offset=".4" stop-color="#c9cbce" stop-opacity=".22"/><stop offset=".69" stop-color="#3c444c" stop-opacity=".83"/><stop offset=".76" stop-color="#151e28"/></linearGradient><linearGradient id="uuid-1d699693-95a4-4a2d-a652-39b1965bdfd4" x1="319.95" y1="245.32" x2="214.06" y2="245.32" gradientTransform="translate(82.82 -77.65)" xlink:href="#uuid-8ad87c74-75f4-49d9-81d3-1c441e8e11df"/></defs><g style="isolation:isolate;"><g id="uuid-0dc3191f-ca80-4a80-a1b2-9a03c18d5bab"><path d="m129.14,165.86h-60.72c-17.43,0-31.61-14.18-31.61-31.61v-11.86h64.53v-31.79H36.82v-.3c0-17.43,14.18-31.61,31.61-31.61h82.73l31.48,36.03,23.23-21.73-26.3-30.11c-11.32-13.02-24.3-15.58-30.78-15.99h-80.36c-34.96,0-63.4,28.44-63.4,63.4v43.95c0,34.96,28.44,63.4,63.4,63.4h32.94l27.77-31.79Z" style="fill:#ed1c24; stroke-width:0px;"/><g style="opacity:.5;"><path d="m179.56,42.89c-11.31-13.01-24.3-15.57-30.77-15.98h-80.36c-34.96,0-63.4,28.44-63.4,63.4v13.1l31.79-12.8v-.3c0-17.43,14.18-31.61,31.61-31.61h82.73l31.48,36.03,23.23-21.73-26.31-30.11Z" style="fill:url(#uuid-8ad87c74-75f4-49d9-81d3-1c441e8e11df); mix-blend-mode:multiply; stroke-width:0px;"/></g><path d="m301.16,182.02l-13.73-15.83h-.16s-39.85-45.61-39.85-45.61l-.04.04-68.9-78.87c-11.05-11.98-23.42-14.44-29.69-14.84h-25.49l67.64,77.42.04-.04,68.9,78.87c11.06,11.98,23.42,14.44,29.69,14.84h25.49l-.02-.02h13.72c-7.55-1.51-18.01-5.56-27.6-15.95Z" style="fill:#ed1c24; stroke-width:0px;"/><path d="m181.42,120.61l-.04-.04-67.64,77.42h25.49c5.39,0,18.64-2.86,29.69-14.84l39.94-45-21.08-24.13-6.35,6.59Z" style="fill:#ed1c24; stroke-width:0px;"/><path d="m101.37,197.65l27.77-31.79h-60.72c-16.27,0-29.7-12.36-31.41-28.18,1.8,33.36,29.43,59.97,63.23,59.97h1.13Z" style="fill:url(#uuid-0de2ad13-cfa9-4948-9884-f3198afaab90); mix-blend-mode:multiply; opacity:.2; stroke-width:0px;"/><path d="m319.76,27.09s1.89-.19,2.12-.21c-9.53,0-16.38,0-16.37,0h-25.49c-.77,0-1.58.13-2.34.23-6.7.85-17.54,3.98-27.35,14.61l-29.66,33.88,21.1,24.15,29.26-33.39s.07-.06.11-.09l21.29-24.55c9.81-10.63,20.65-13.76,27.35-14.61Z" style="fill:#ed1c24; stroke-width:0px;"/><path d="m301.44,182.02l-13.73-15.83h-.16s-36.37-41.63-36.37-41.63l-.13,28.75c0,10.04,3.81,20.88,10.2,30.98,10.77,10.99,22.54,13.34,28.6,13.72h25.49l-.02-.02h13.49s0-.04,0-.04c-7.53-1.56-17.88-5.63-27.38-15.92Z" style="fill:url(#uuid-34502a39-37bb-4f1f-aa0a-17077442f33f); stroke-width:0px;"/><path d="m271.13,66.25l21.29-24.55c9.81-10.63,20.65-13.76,27.35-14.61,0,0,1.89-.19,2.12-.21-9.53,0-16.38,0-16.37,0h-25.49c-.77,0-1.58.13-2.34.23-2.74.35-6.19,1.09-9.96,2.56-10.11,11.71-16.55,24.95-16.55,35.72l-.11,23.75,19.96-22.78s.07-.06.11-.09Z" style="fill:url(#uuid-0114fc2d-4d0e-4d94-a23b-c5696685319c); stroke-width:0px;"/><path d="m395.56,72.17s-5.91-12.32-19.13-13.55l-24.07.08-10.6-31.79c43.35,0,53.79,45.26,53.79,45.26" style="fill:url(#uuid-fa110102-dc8e-4452-b916-a8f0f6b8cbe3); mix-blend-mode:multiply; opacity:.2; stroke-width:0px;"/><polygon points="398.32 191.69 397.78 191.14 397.78 191.14 398.32 191.69 405.71 199.07 448.52 199.91 448.52 199.91 405.71 199.07 398.32 191.69" style="fill:none; stroke-width:0px;"/><path d="m358.62,166.12l-9.28-.02c-14.37-.32-29.69-10.69-30.21-26.54l.08-57.27c0-10.12,13.79-23.58,28.94-23.58,0,0,25.78,0,25.86,0,10.98.05,16.46,5.44,21.55,13.45l.1.12s-.14,42.24-.19,60.43l6.95,6.95,20.57,20.57c1.54-5.33,2.4-11.27,2.4-17.86l.13-70.23h.01v-4.01c-1.07-22.63-32.4-41.29-51.09-41.29h-31.03c-27.06,0-54.66,30.09-54.66,49.58l-.3,61.25c.8,28.5,23.87,56.06,56.96,59.97h32.84c3.21-.53,6.42-1.3,9.57-2.32l-22.21-22.21-7-7Z" style="fill:#ed1c24; stroke-width:0px;"/><polygon points="419.35 170.74 448.52 199.91 448.52 199.91 419.35 170.74 418.92 170.31 418.92 170.31 419.35 170.74" style="fill:#fff; stroke-width:0px;"/><path d="m389.92,158.77c.9-.96,1.72-2.04,2.44-3.24-.72,1.2-1.54,2.27-2.44,3.24Z" style="fill:#fff; stroke-width:0px;"/><path d="m419.35,170.74l-.43-.43-23.57-23.57c-.51,3.49-1.56,6.39-3,8.79-.72,1.2-1.54,2.27-2.44,3.24-2.7,2.88-6.11,4.74-9.76,5.88-.71.22-1.43.41-2.16.58-1.73.43-3.5.69-5.27.83-.01,0-.02,0-.03,0l25.08,25.08.55.55,7.38,7.38,42.82.84-29.17-29.17Z" style="fill:#ed1c24; stroke-width:0px;"/><path d="m378.26,197.65l-19.64-31.53-37.27-.26c-16.87.19-31.17-12.36-32.89-28.18,1.8,33.36,28.27,59.97,64.7,59.97h25.09Z" style="fill:url(#uuid-1d699693-95a4-4a2d-a652-39b1965bdfd4); mix-blend-mode:multiply; opacity:.2; stroke-width:0px;"/><path d="m395.56,72.17s-6.96-14.08-21.55-13.45h-21.64s-10.6-31.8-10.6-31.8c43.35,0,53.79,45.26,53.79,45.26" style="fill:url(#uuid-fa110102-dc8e-4452-b916-a8f0f6b8cbe3); mix-blend-mode:multiply; opacity:.2; stroke-width:0px;"/></g></g></svg>