<?xml version="1.0" encoding="UTF-8"?><svg xmlns="http://www.w3.org/2000/svg" width="40.82cm" height="11.92cm" xmlns:xlink="http://www.w3.org/1999/xlink" viewBox="0 0 1157.08 338"><defs><linearGradient id="uuid-6d2b71a2-255e-424a-9d77-ac93e3ddc274" x1="49.76" y1="124.72" x2="270.1" y2="124.72" gradientUnits="userSpaceOnUse"><stop offset="0" stop-color="#fff" stop-opacity="0"/><stop offset=".19" stop-color="#feffff" stop-opacity="0"/><stop offset=".22" stop-color="#feffff" stop-opacity="0"/><stop offset=".4" stop-color="#c9cece" stop-opacity=".22"/><stop offset=".69" stop-color="#3c4c49" stop-opacity=".83"/><stop offset=".76" stop-color="#152824"/></linearGradient><linearGradient id="uuid-27dd3906-d055-4c12-899f-c441da7ef202" x1="199.35" y1="227.24" x2="90.71" y2="227.24" xlink:href="#uuid-6d2b71a2-255e-424a-9d77-ac93e3ddc274"/></defs><g style="isolation:isolate;"><g id="uuid-b03cfe87-074f-4350-94fd-e9027916ebab"><path d="m481.59,197.25v-56h42.32v10.4h-29.44v35.2h30.48v10.4h-43.36Zm11.92-23.36v-10.16h26.96v10.16h-26.96Z" style="fill:#077783; stroke-width:0px;"/><path d="m541.1,197.25l24-33.2v9.44l-22.96-32.24h14.64l15.92,22.4-6.24.16,15.84-22.56h14l-22.88,31.68v-9.28l24.24,33.6h-14.96l-16.48-23.76h5.92l-16.24,23.76h-14.8Z" style="fill:#077783; stroke-width:0px;"/><path d="m613.83,197.25v-56h24.24c5.01,0,9.33.81,12.96,2.44,3.63,1.63,6.43,3.96,8.4,7,1.97,3.04,2.96,6.64,2.96,10.8s-.99,7.83-2.96,10.84c-1.97,3.01-4.77,5.35-8.4,7-3.63,1.65-7.95,2.48-12.96,2.48h-17.12l5.92-5.84v21.28h-13.04Zm13.04-19.84l-5.92-6.16h16.4c3.95,0,6.93-.85,8.96-2.56,2.03-1.71,3.04-4.11,3.04-7.2s-1.01-5.48-3.04-7.16c-2.03-1.68-5.01-2.52-8.96-2.52h-16.4l5.92-6.16v31.76Z" style="fill:#077783; stroke-width:0px;"/><path d="m680.38,197.25v-56h23.92c7.79,0,13.84,1.8,18.16,5.4,4.32,3.6,6.48,8.55,6.48,14.84,0,4.21-.99,7.83-2.96,10.84-1.97,3.01-4.77,5.31-8.4,6.88-3.63,1.57-7.95,2.36-12.96,2.36h-17.12l5.92-5.6v21.28h-13.04Zm13.04-19.84l-5.92-6.16h16.4c3.95,0,6.93-.85,8.96-2.56,2.03-1.71,3.04-4.11,3.04-7.2s-1.01-5.48-3.04-7.16c-2.03-1.68-5.01-2.52-8.96-2.52h-16.4l5.92-6.16v31.76Zm22.64,19.84l-14.08-20.32h13.92l14.08,20.32h-13.92Z" style="fill:#077783; stroke-width:0px;"/><path d="m748.58,197.25v-56h42.32v10.4h-29.44v35.2h30.48v10.4h-43.36Zm11.92-23.36v-10.16h26.96v10.16h-26.96Z" style="fill:#077783; stroke-width:0px;"/><path d="m828.84,198.21c-4.48,0-8.79-.6-12.92-1.8-4.13-1.2-7.45-2.76-9.96-4.68l4.4-9.76c2.35,1.71,5.17,3.11,8.48,4.2,3.31,1.09,6.64,1.64,10,1.64,2.56,0,4.63-.27,6.2-.8,1.57-.53,2.73-1.24,3.48-2.12.75-.88,1.12-1.91,1.12-3.08,0-1.49-.59-2.68-1.76-3.56-1.17-.88-2.73-1.6-4.68-2.16-1.95-.56-4.07-1.09-6.36-1.6-2.29-.51-4.6-1.12-6.92-1.84-2.32-.72-4.45-1.68-6.4-2.88-1.95-1.2-3.49-2.77-4.64-4.72-1.15-1.95-1.72-4.39-1.72-7.32,0-3.2.85-6.12,2.56-8.76,1.71-2.64,4.31-4.75,7.8-6.32,3.49-1.57,7.88-2.36,13.16-2.36,3.52,0,7,.43,10.44,1.28,3.44.85,6.44,2.08,9,3.68l-4.08,9.76c-2.51-1.44-5.09-2.52-7.76-3.24-2.67-.72-5.23-1.08-7.68-1.08s-4.61.28-6.16.84c-1.55.56-2.68,1.32-3.4,2.28-.72.96-1.08,2.03-1.08,3.2,0,1.49.59,2.69,1.76,3.6,1.17.91,2.72,1.61,4.64,2.12,1.92.51,4.05,1.01,6.4,1.52,2.35.51,4.67,1.13,6.96,1.88,2.29.75,4.4,1.69,6.32,2.84,1.92,1.15,3.48,2.69,4.68,4.64,1.2,1.95,1.8,4.36,1.8,7.24,0,3.15-.87,6.03-2.6,8.64-1.73,2.61-4.36,4.72-7.88,6.32-3.52,1.6-7.92,2.4-13.2,2.4Z" style="fill:#077783; stroke-width:0px;"/><path d="m890.42,198.21c-4.48,0-8.79-.6-12.92-1.8-4.13-1.2-7.45-2.76-9.96-4.68l4.4-9.76c2.35,1.71,5.17,3.11,8.48,4.2,3.31,1.09,6.64,1.64,10,1.64,2.56,0,4.63-.27,6.2-.8,1.57-.53,2.73-1.24,3.48-2.12.75-.88,1.12-1.91,1.12-3.08,0-1.49-.59-2.68-1.76-3.56-1.17-.88-2.73-1.6-4.68-2.16-1.95-.56-4.07-1.09-6.36-1.6-2.29-.51-4.6-1.12-6.92-1.84-2.32-.72-4.45-1.68-6.4-2.88-1.95-1.2-3.49-2.77-4.64-4.72-1.15-1.95-1.72-4.39-1.72-7.32,0-3.2.85-6.12,2.56-8.76,1.71-2.64,4.31-4.75,7.8-6.32,3.49-1.57,7.88-2.36,13.16-2.36,3.52,0,7,.43,10.44,1.28,3.44.85,6.44,2.08,9,3.68l-4.08,9.76c-2.51-1.44-5.09-2.52-7.76-3.24-2.67-.72-5.23-1.08-7.68-1.08s-4.61.28-6.16.84c-1.55.56-2.68,1.32-3.4,2.28-.72.96-1.08,2.03-1.08,3.2,0,1.49.59,2.69,1.76,3.6,1.17.91,2.72,1.61,4.64,2.12,1.92.51,4.05,1.01,6.4,1.52,2.35.51,4.67,1.13,6.96,1.88,2.29.75,4.4,1.69,6.32,2.84,1.92,1.15,3.48,2.69,4.68,4.64,1.2,1.95,1.8,4.36,1.8,7.24,0,3.15-.87,6.03-2.6,8.64-1.73,2.61-4.36,4.72-7.88,6.32-3.52,1.6-7.92,2.4-13.2,2.4Z" style="fill:#077783; stroke-width:0px;"/><path d="m931.98,179.73v-10h22.64v10h-22.64Z" style="fill:#077783; stroke-width:0px;"/><path d="m966.08,197.25l24-33.2v9.44l-22.96-32.24h14.64l15.92,22.4-6.24.16,15.84-22.56h14l-22.88,31.68v-9.28l24.24,33.6h-14.96l-16.48-23.76h5.92l-16.24,23.76h-14.8Z" style="fill:#077783; stroke-width:0px;"/><path d="m174.2,225.43h-60.72c-17.43,0-31.61-14.18-31.61-31.61v-11.86h64.53v-31.79h-64.53v-.3c0-17.43,14.18-31.61,31.61-31.61h82.73l31.48,36.03,23.23-21.73-26.3-30.11c-11.32-13.02-24.3-15.58-30.78-15.99h-80.36c-34.96,0-63.4,28.44-63.4,63.4v43.95c0,34.96,28.44,63.4,63.4,63.4h32.94l27.77-31.79Z" style="fill:#077783; stroke-width:0px;"/><g style="opacity:.5;"><path d="m224.61,102.45c-11.31-13.01-24.3-15.57-30.77-15.98h-80.36c-34.96,0-63.4,28.44-63.4,63.4v13.1l31.79-12.8v-.3c0-17.43,14.18-31.61,31.61-31.61h82.73l31.48,36.03,23.23-21.73-26.31-30.11Z" style="fill:url(#uuid-6d2b71a2-255e-424a-9d77-ac93e3ddc274); mix-blend-mode:multiply; stroke-width:0px;"/></g><path d="m346.21,241.58l-13.73-15.83h-.16s-39.85-45.61-39.85-45.61l-.04.04-68.9-78.87c-11.05-11.98-23.42-14.44-29.69-14.84h-25.49l67.64,77.42.04-.04,68.9,78.87c11.06,11.98,23.42,14.44,29.69,14.84h25.49l-.02-.02h13.72c-7.55-1.51-18.01-5.56-27.6-15.95Z" style="fill:#077783; stroke-width:0px;"/><path d="m146.42,257.22l27.77-31.79h-60.72c-16.27,0-29.7-12.36-31.41-28.18,1.8,33.36,29.43,59.97,63.23,59.97h1.13Z" style="fill:url(#uuid-27dd3906-d055-4c12-899f-c441da7ef202); mix-blend-mode:multiply; opacity:.2; stroke-width:0px;"/><path d="m401.26,241.58l-13.73-15.83h-.16s-39.85-45.61-39.85-45.61l-.04.04-68.9-78.87c-11.05-11.98-23.42-14.44-29.69-14.84h-25.49l67.64,77.42.04-.04,68.9,78.87c11.06,11.98,23.42,14.44,29.69,14.84h25.49l-.02-.02h13.72c-7.55-1.51-18.01-5.56-27.6-15.95Z" style="fill:#87a4a5; stroke-width:0px;"/><path d="m428.22,86.66s1.89-.19,2.12-.21c-9.53,0-16.38,0-16.37,0h-25.49c-.77,0-1.58.13-2.34.23-6.7.85-17.54,3.98-27.35,14.61l-33.66,37.88,21.1,24.15,33.26-37.39s.07-.06.11-.09l21.29-24.55c9.81-10.63,20.65-13.76,27.35-14.61Z" style="fill:#87a4a5; stroke-width:0px;"/><path d="m226.48,180.18l-.04-.04-67.64,77.42h25.49c5.39,0,18.64-2.86,29.69-14.84l39.94-45-21.08-24.13-6.35,6.59Z" style="fill:#077783; stroke-width:0px;"/><path d="m214.98,257.56h25.34c5.39,0,18.64-2.86,29.69-14.84l11.08-14.12-21.14-24.19-44.98,53.15Z" style="fill:#87a4a5; stroke-width:0px;"/><path d="m309.07,95.2l-12.96,13.54,20.86,22.89,27.39-30.36c9.81-10.63,20.65-13.76,27.35-14.61,0,0,1.89-.19,2.12-.21-9.53,0-16.38,0-16.37,0h-25.49c-.77,0-1.58.13-2.34.23-5.18.66-12.84,2.7-20.58,8.49.01.01.03.03.04.04Z" style="fill:#077783; stroke-width:0px;"/></g></g></svg>