<?xml version="1.0" encoding="UTF-8"?><svg xmlns="http://www.w3.org/2000/svg" xmlns:xlink="http://www.w3.org/1999/xlink" viewBox="80 80 400 180"><defs><style>.f{fill:none;}.g{fill:#3d7cc9;}.h{fill:url(#b);}.h,.i,.j,.k{mix-blend-mode:multiply;}.i{fill:url(#e);}.i,.j,.k{opacity:.2;}.j{fill:url(#d);}.k{fill:url(#c);}.l{opacity:.5;}.m{isolation:isolate;}</style><linearGradient id="b" x1="80.41" y1="124.72" x2="300.75" y2="124.72" gradientTransform="matrix(1, 0, 0, 1, 0, 0)" gradientUnits="userSpaceOnUse"><stop offset="0" stop-color="#fff" stop-opacity="0"/><stop offset=".19" stop-color="#fdfefe" stop-opacity="0"/><stop offset=".22" stop-color="#fdfefe" stop-opacity="0"/><stop offset=".4" stop-color="#c9cbce" stop-opacity=".22"/><stop offset=".69" stop-color="#3c444c" stop-opacity=".83"/><stop offset=".76" stop-color="#151e28"/></linearGradient><linearGradient id="c" x1="483.27" y1="106.17" x2="336.41" y2="106.17" xlink:href="#b"/><linearGradient id="d" x1="461.32" y1="241.65" x2="355.69" y2="241.65" xlink:href="#b"/><linearGradient id="e" x1="230" y1="227.24" x2="121.35" y2="227.24" xlink:href="#b"/></defs><g style="isolation:isolate;"><g id="a"><g><g><path d="M406.58,137.45h-41.9c-4.78,.14-10.9,1.82-17.51,8.78l-15.27,17.89h51.68l23-26.67Z" style="fill:#3d7cc9;"/><path d="M204.85,225.43h-60.72c-17.43,0-31.61-14.18-31.61-31.61v-11.86h64.53v-31.79H112.52v-.3c0-17.43,14.18-31.61,31.61-31.61h82.73l31.48,36.03,23.23-21.73-26.3-30.11c-11.32-13.02-24.3-15.58-30.78-15.99h-80.36c-34.96,0-63.4,28.44-63.4,63.4v43.95c0,34.96,28.44,63.4,63.4,63.4h32.94l27.77-31.79Z" style="fill:#3d7cc9;"/><g style="opacity:.5;"><path d="M255.26,102.45c-11.31-13.01-24.3-15.57-30.77-15.98h-80.36c-34.96,0-63.4,28.44-63.4,63.4v13.1l31.79-12.8v-.3c0-17.43,14.18-31.61,31.61-31.61h82.73l31.48,36.03,23.23-21.73-26.31-30.11Z" style="fill:url(#b); mix-blend-mode:multiply;"/></g><path d="M454.93,86.44s-73.74,.02-73.72,0h-25.49c-.77,0-1.58,.13-2.34,.23-6.7,.85-17.54,3.98-27.35,14.61l-29.66,33.88,21.1,24.15,29.26-33.39c5.47-4.64,10.52-7.36,15.3-7.66l65.48-.02,27.42-31.79Z" style="fill:#3d7cc9;"/><path d="M454.96,86.44h-57.34c-.12,.01-2.15,.22-2.15,.22-6.7,.85-17.54,3.98-27.35,14.61l-21.36,24.63c5.47-4.64,10.52-7.31,15.3-7.66l65.48-.02,27.41-31.78Z" style="fill:url(#c); mix-blend-mode:multiply; opacity:.2;"/><path d="M413.54,257.56l27.41-31.78-77.98-.03-39.85-45.61-.04,.04-68.9-78.87c-11.05-11.98-23.42-14.44-29.69-14.84h-25.49l67.64,77.42,.04-.04,68.9,78.87c11.06,11.98,23.42,14.44,29.69,14.84h25.49l-.02-.02,22.8,.02Z" style="fill:#3d7cc9;"/><path d="M440.96,225.78l-77.82-.03,13.73,15.83c9.59,10.39,20.05,14.44,27.6,15.97h9.08l27.41-31.77Z" style="fill:url(#d); mix-blend-mode:multiply; opacity:.2;"/><path d="M257.12,180.18l-.04-.04-67.64,77.42h25.49c5.39,0,18.64-2.86,29.69-14.84l39.94-45-21.08-24.13-6.35,6.59Z" style="fill:#3d7cc9;"/><path d="M177.07,257.22l27.77-31.79h-60.72c-16.27,0-29.7-12.36-31.41-28.18,1.8,33.36,29.43,59.97,63.23,59.97h1.13Z" style="fill:url(#e); mix-blend-mode:multiply; opacity:.2;"/></g></g><rect width="500" height="338" style="fill:none;"/></g></g></svg>
