<?xml version="1.0" encoding="UTF-8"?><svg xmlns="http://www.w3.org/2000/svg" xmlns:xlink="http://www.w3.org/1999/xlink" viewBox="0 0 436.44 199.56"><defs><style>.f{fill:#fff;}.g{fill:url(#b);}.g,.h,.i,.j,.k{mix-blend-mode:multiply;}.h{fill:url(#e);}.h,.i,.j,.k{opacity:.4;}.i{fill:url(#d);}.j{fill:url(#c);}.l{isolation:isolate;}</style><linearGradient id="b" x1="175.15" y1="46.51" x2="109.71" y2="45.17" gradientTransform="matrix(1, 0, 0, 1, 0, 0)" gradientUnits="userSpaceOnUse"><stop offset="0" stop-color="#231f20"/><stop offset="1" stop-color="#fff" stop-opacity="0"/></linearGradient><linearGradient id="c" x1="469.46" y1="23.01" x2="298.18" y2="23.01" gradientTransform="matrix(1, 0, 0, 1, 0, 0)" gradientUnits="userSpaceOnUse"><stop offset="0" stop-color="#fff" stop-opacity="0"/><stop offset=".31" stop-color="#d5d7d9" stop-opacity=".18"/><stop offset=".76" stop-color="#646a70" stop-opacity=".66"/><stop offset="1" stop-color="#151e28"/></linearGradient><linearGradient id="d" x1="443.86" y1="181.01" x2="320.67" y2="181.01" gradientTransform="matrix(1, 0, 0, 1, 0, 0)" gradientUnits="userSpaceOnUse"><stop offset="0" stop-color="#fff" stop-opacity="0"/><stop offset=".3" stop-color="#d7d9db" stop-opacity=".17"/><stop offset=".74" stop-color="#6b7077" stop-opacity=".63"/><stop offset="1" stop-color="#151e28"/></linearGradient><linearGradient id="e" x1="174.09" y1="164.2" x2="34.88" y2="164.2" gradientTransform="matrix(1, 0, 0, 1, 0, 0)" gradientUnits="userSpaceOnUse"><stop offset="0" stop-color="#fff" stop-opacity="0"/><stop offset=".3" stop-color="#dcddde" stop-opacity=".15"/><stop offset=".7" stop-color="#797e84" stop-opacity=".57"/><stop offset="1" stop-color="#151e28"/></linearGradient></defs><g style="isolation:isolate;"><g id="a"><g><path d="M144.76,162.09H73.94c-20.33,0-36.86-16.54-36.86-36.86v-13.83H112.34v-37.07H37.08v-.35c0-20.32,16.54-36.86,36.86-36.86h96.48l36.71,42.02,27.09-25.34-30.68-35.11C190.35,3.5,175.21,.51,167.66,.04H73.94C33.17,.04,0,33.2,0,73.97v51.26C0,166,33.17,199.17,73.94,199.17h38.42l32.39-37.08Z" style="fill:#fff;"/><g style="mix-blend-mode:multiply; opacity:.4;"><path d="M203.55,18.67C190.35,3.5,175.21,.51,167.66,.04H73.94C33.17,.04,0,33.2,0,73.97v15.27l37.08-14.93v-.35c0-20.33,16.54-36.86,36.86-36.86h96.48l36.71,42.02,27.1-25.34-30.68-35.12Z" style="fill:url(#b); mix-blend-mode:multiply;"/></g><path d="M436.41,0S350.41,.02,350.43,0C350.43,0,320.71,0,320.71,0c-9.49,.04-23.18,4.91-34.63,17.3l-34.59,39.51,24.6,28.16,34.12-38.94c6.38-5.41,12.27-8.59,17.85-8.94l76.37-.02L436.41,0Z" style="fill:#fff;"/><path d="M436.44,0h-66.88c-.14,.02-2.51,.25-2.51,.25-7.81,.99-20.45,4.64-31.9,17.04l-24.91,28.73c6.38-5.41,12.27-8.53,17.85-8.94l76.37-.02L436.44,0Z" style="fill:url(#c); mix-blend-mode:multiply; opacity:.4;"/><path d="M388.15,199.56l31.97-37.06-90.94-.04-46.47-53.19-.05,.05L202.29,17.34C189.4,3.37,178.15,.04,167.66,.04h-29.72l78.89,90.29,.05-.05,80.36,91.98c12.89,13.97,27.22,17.11,34.63,17.3h29.72l-.02-.03,26.59,.03Z" style="fill:#fff;"/><path d="M420.11,162.5l-90.76-.04,16.01,18.47c11.19,12.12,23.38,16.84,32.19,18.62h10.59l31.97-37.05Z" style="fill:url(#d); mix-blend-mode:multiply; opacity:.4;"/><path d="M205.72,109.32l-.05-.05-78.89,90.29h29.72c6.28,0,21.74-3.34,34.63-17.3l46.58-52.48-24.59-28.14-7.41,7.68Z" style="fill:#fff;"/><path d="M112.36,199.17l32.39-37.08H73.94c-18.97,0-34.63-14.41-36.64-32.87,2.1,38.91,34.32,69.94,73.74,69.94h1.32Z" style="fill:url(#e); mix-blend-mode:multiply; opacity:.4;"/><path d="M310.73,69.72l-17.81,20.86h60.27l26.83-31.1h-48.86c-5.57,.17-12.71,2.13-20.42,10.24Z" style="fill:#fff;"/></g></g></g></svg>