<svg id="Layer_1" data-name="Layer 1" xmlns="http://www.w3.org/2000/svg" viewBox="0 0 800 800"><defs><style>.cls-1{fill:#ff1d25;}.cls-2,.cls-3{fill:none;stroke:#000;stroke-miterlimit:10;}.cls-2{stroke-width:20px;}.cls-3{stroke-width:40px;}</style></defs><title>SymbolOutlined</title><path d="M237.7,286.37h-116V424.06H253.78L244.56,490H48.41V39.69H243.67v66.74h-122V220.21h116Z"/><path class="cls-1" d="M398.54,490,345.8,326.08h-.67L290,490H213.19l90.39-229.57L216.82,39.69h82.37L348.67,189l.67-.22,48.88-149h77.3L389.53,251,481,490Z"/><path d="M48,548.49h68.19c34.91,0,58.91,19.36,58.91,53.18,0,34.36-23.73,54.55-60.82,54.55H63V739.4H48Zm15,94.09h52.64c30.82,0,43.64-16.37,43.64-40.37,0-25.63-16.91-40.09-42.55-40.09H63Z"/><path d="M207,650.22V739.4H192V548.49h68.45c37.64,0,57.55,20.18,57.55,50.18,0,24.27-14.46,40.09-35.73,44.73C301.91,648,315,660.85,315,693.31v7.36c0,13.37-1.09,31.37,2.45,38.73h-15c-3.54-8.18-2.72-23.45-2.72-39.82v-4.91c0-31.36-9.28-44.45-45.82-44.45Zm0-13.64h46.09c33.54,0,49.09-12.55,49.09-37.64,0-23.45-15.27-36.82-45-36.82H207Z"/><path d="M454.91,645.58H357.54v80.18H464.18L462,739.4H342.81V548.49h117v13.63H357.54v69.82h97.37Z"/><path d="M483,688.13c5.72,25.36,22.63,40.36,54,40.36,34.91,0,48.27-17.45,48.27-38.18,0-21.55-9.54-34.91-51.55-45.28-40.36-10.09-57.81-23.18-57.81-50.73,0-25.09,18.27-48.54,59.18-48.54,42,0,59.73,25.64,62.18,48.82H582c-4.36-20.46-17.73-35.19-47.73-35.19-27.55,0-42.55,12.82-42.55,34.1,0,21,12.55,29.18,47.73,37.91,53.73,13.36,61.64,34.91,61.64,57.82,0,28.09-20.45,52.36-64.64,52.36-47.73,0-65.18-27.82-68.73-53.45Z"/><path d="M628.08,688.13c5.73,25.36,22.64,40.36,54,40.36,34.91,0,48.27-17.45,48.27-38.18,0-21.55-9.55-34.91-51.55-45.28C638.45,634.94,621,621.85,621,594.3c0-25.09,18.28-48.54,59.19-48.54,42,0,59.73,25.64,62.18,48.82H727.09c-4.37-20.46-17.73-35.19-47.73-35.19-27.55,0-42.55,12.82-42.55,34.1,0,21,12.55,29.18,47.73,37.91,53.73,13.36,61.64,34.91,61.64,57.82,0,28.09-20.46,52.36-64.64,52.36-47.73,0-65.18-27.82-68.73-53.45Z"/><circle class="cls-2" cx="576.69" cy="259.46" r="91.69"/><line class="cls-3" x1="671.36" y1="257.89" x2="752.18" y2="257.89"/></svg>